<?xml version="1.0" encoding="UTF-8" standalone="no"?>
<!DOCTYPE svg PUBLIC "-//W3C//DTD SVG 1.1//EN" "http://www.w3.org/Graphics/SVG/1.1/DTD/svg11.dtd">
<svg version="1.1" xmlns="http://www.w3.org/2000/svg" xmlns:xlink="http://www.w3.org/1999/xlink" preserveAspectRatio="xMidYMid meet" viewBox="0 0 24 24" width="24" height="24"><defs><path d="M251.98 19L263.29 35.49L274.73 19L288.93 19L270.9 44.53L290 72L275.67 72L263.29 54.61L251.01 72L237 72L255.92 45.05L238.01 19L251.98 19Z" id="diHm21UrR"></path><path d="M208.65 72L195.95 72L175 19L188.1 19L202.5 58.99L217.3 19L230 19L208.65 72Z" id="b2vnNlhHCs"></path><path d="M164 19C164 19 164 19 164 19C164 50.8 164 68.47 164 72C164 72 164 72 164 72C156.8 72 152.8 72 152 72C152 72 152 72 152 72C152 40.2 152 22.53 152 19C152 19 152 19 152 19C159.2 19 163.2 19 164 19Z" id="blBI6BqDQ"></path><path d="M14.66 2.36L15.89 2.79L17.05 3.37L18.11 4.08L19.07 4.93L19.92 5.89L20.63 6.95L21.21 8.11L21.64 9.34L21.91 10.64L22 12L21.91 13.36L21.64 14.66L21.21 15.89L20.63 17.05L19.92 18.11L19.07 19.07L18.11 19.92L17.05 20.63L15.89 21.21L14.66 21.64L13.36 21.91L12 22L10.64 21.91L9.34 21.64L8.11 21.21L6.95 20.63L5.89 19.92L4.93 19.07L4.08 18.11L3.37 17.05L2.79 15.89L2.36 14.66L2.09 13.36L2 12L2.09 10.64L2.36 9.34L2.79 8.11L3.37 6.95L4.08 5.89L4.93 4.93L5.89 4.08L6.95 3.37L8.11 2.79L9.34 2.36L10.64 2.09L12 2L13.36 2.09L14.66 2.36ZM9.33 3.14L8.1 3.61L6.96 4.24L5.93 5.02L5.02 5.93L4.24 6.96L3.61 8.1L3.14 9.33L2.85 10.63L2.75 12L2.85 13.37L3.14 14.67L3.61 15.9L4.24 17.04L5.02 18.07L5.93 18.98L6.96 19.76L8.1 20.39L9.33 20.86L10.63 21.15L12 21.25L13.37 21.15L14.67 20.86L15.9 20.39L17.04 19.76L18.07 18.98L18.98 18.07L19.76 17.04L20.39 15.9L20.86 14.67L21.15 13.37L21.25 12L21.15 10.63L20.86 9.33L20.39 8.1L19.76 6.96L18.98 5.93L18.07 5.02L17.04 4.24L15.9 3.61L14.67 3.14L13.37 2.85L12 2.75L10.63 2.85L9.33 3.14Z" id="b44YFanGaK"></path><path d="M921.06 357.51L878.22 380.08L806.04 437.15L806.04 437.15L769.59 426.48L730.13 419.73L670.75 426.48L611.37 419.73L571.91 426.48L535.46 437.15L535.46 437.15L463.28 380.08L420.44 357.51L390.39 365.33L375.64 387.55L375.64 441.24L375.64 472.35L386.13 507.73L387.19 543.11L410.48 589.51L412.08 638.39L401.42 693.51L396.26 760.88L422.57 803.73L463.64 838.75L472.71 846.39L505.42 914.48L556.26 950.57L556.26 950.57L575.11 964.08L670.75 983.99L670.75 983.99L670.75 983.99L670.75 983.99L670.75 983.99L766.39 964.08L785.24 950.57L836.08 914.48L868.79 846.39L877.86 838.75L918.93 803.73L945.24 760.88L940.08 693.51L929.42 638.39L931.02 589.51L954.31 543.11L955.37 507.73L965.86 472.35L965.86 441.24L965.86 387.55L951.11 365.33L921.06 357.51Z" id="j2ROfU1SYd"></path><path d="M764.97 549.51L753.24 501.51L670.75 592.71L611.37 527.11L611.37 527.11L588.26 501.51L576.53 549.51L548.62 554.13L526.57 577.42L538.31 610.66L544.88 592.88L576.17 581.86L597.51 611.55L598.04 632.17L598.04 632.17L575.11 707.19L563.73 766.22L623.46 703.64L654.57 693.51L670.75 592.71L686.93 693.51L718.04 703.64L777.77 766.22L766.39 707.19L743.46 632.17L743.46 632.17L743.99 611.55L765.33 581.86L796.62 592.88L803.19 610.66L814.93 577.42L792.88 554.13L764.97 549.51Z" id="ceIv3AmH3"></path><path d="M461.15 400.17L415.64 386.48L397.86 390.57L390.93 420.26L390.93 473.42L415.28 516.79L457.59 543.11L499.55 506.66L503.82 448.17L461.15 400.17Z" id="bgFExuyEr"></path><path d="M659.91 476.44L670.75 478.22L670.75 581.86L659.91 476.44Z" id="a2ePaPw33K"></path><path d="M535.46 437.15L463.28 380.08L420.44 357.51L390.39 365.33L375.64 387.55L375.64 441.24L390.93 452.44L390.93 420.26L397.86 390.57L415.64 386.48L461.15 400.17L503.82 448.17L499.55 506.66L457.59 543.11L430.04 632.17L481.59 652.26L523.19 607.46L538.31 610.66L526.57 577.42L541.68 561.42L548.62 554.13L576.53 549.51L588.26 501.51L615.46 499.37L638.39 476.44L657.59 504.53L670.75 592.71L670.75 448.17L576.17 435.02L535.46 437.15Z" id="a17l4gIrft"></path><path d="M416.88 737.42L447.46 666.31L481.59 652.26L430.04 632.17L559.99 452.44L499.55 506.66L457.59 543.11L410.48 589.51L401.42 693.51L396.26 760.88L422.57 803.73L416.88 737.42Z" id="aZuDA4LHc"></path><path d="M588.26 501.51L576.53 549.51L548.62 554.13L539.37 563.91L542.39 545.24L588.26 501.51Z" id="c33tK19Niv"></path><path d="M542.39 824.17L514.84 726.22L529.77 675.55L523.19 632.17L575.11 707.19L611.37 690.84L654.57 693.51L651.02 718.22L620.97 732.44L611.37 756.26L616.17 777.24L624.88 787.02L603.55 839.82L579.02 839.82L559.99 814.22L559.99 832.71L575.11 852.44L542.39 824.17Z" id="a3Nw1CRSWO"></path><path d="M503.82 448.17L538.31 459.73L559.99 452.44L499.55 506.66L503.82 448.17Z" id="h28HYRzDMz"></path><path d="M499.55 506.66L503.82 448.17L479.99 422.04L494.39 455.46L499.55 506.66Z" id="emeoQVbBQ"></path><path d="M387.19 543.11L375.64 472.35L375.64 441.24L390.93 452.44L390.93 473.42L415.28 516.79L457.59 543.11L410.48 589.51L387.19 543.11Z" id="d6yJ7PZXNs"></path><path d="M538.31 585.42L581.68 565.51L576.17 581.86L544.88 592.88L538.31 610.66L538.31 585.42Z" id="aThWJj7Gm"></path><path d="M551.64 630.93L538.31 610.66L523.19 607.46L514.84 616.35L523.19 632.17L531.73 644.44L575.11 707.19L598.04 632.17L577.42 638.39L551.64 630.93Z" id="a1kmjhJkxO"></path><path d="M595.55 858.13L575.11 852.44L542.39 824.17L532.62 789.68L491.91 839.82L472.71 846.39L505.42 914.48L556.26 950.57L595.55 930.66L633.06 911.64L607.46 899.91L595.55 858.13Z" id="a21Ucc2giU"></path><path d="M880.35 400.17L925.86 386.48L943.64 390.57L950.57 420.26L950.57 473.42L926.22 516.79L883.91 543.11L841.95 506.66L837.68 448.17L880.35 400.17Z" id="cInfTllr0"></path><path d="M743.99 611.55L765.33 581.86L796.62 592.88L803.19 610.66L789.86 630.93L764.08 638.39L743.99 632.17L743.99 611.55Z" id="aZyenzTTg"></path><path d="M790.93 601.77C791.11 602.66 791.11 603.55 791.11 604.62C791.11 616.35 782.22 625.77 771.19 625.77C760.17 625.77 751.28 616.35 751.28 604.62C751.28 604.44 751.28 604.26 751.28 604.08C754.31 611.91 761.95 617.59 770.84 617.59C780.62 617.59 788.79 610.84 790.93 601.77Z" id="c69NB4t5l"></path><path d="M751.28 604.08C751.64 592.71 760.35 583.46 771.19 583.46C781.33 583.46 789.68 591.46 790.93 601.77C788.79 610.84 780.62 617.59 770.84 617.59C761.95 617.59 754.31 611.91 751.28 604.08Z" id="hSPMKZN3W"></path><path d="M789.86 601.95C789.86 601.95 785.95 591.28 770.48 593.59C770.48 593.77 778.31 600.53 779.55 605.15C781.61 604.51 788.83 602.27 789.86 601.95Z" id="b22nDSNBQG"></path><path d="M681.59 476.44L670.75 478.22L670.75 581.86L681.59 476.44Z" id="d31Jhlk5C"></path><path d="M690.48 718.22L670.75 718.22L670.75 718.22L651.02 718.22L620.97 732.44L611.37 756.26L616.17 777.24L641.06 805.33L670.75 814.22L670.75 814.22L670.75 814.22L670.75 814.22L670.75 814.22L700.44 805.33L725.33 777.24L730.13 756.26L720.53 732.44L690.48 718.22Z" id="a1uv2futcN"></path><path d="M694.39 775.64L707.91 775.64L717.86 758.04L698.66 744.35L670.75 738.48L670.75 738.48L670.75 738.48L670.75 738.48L670.75 738.48L642.84 744.35L623.64 758.04L633.59 775.64L647.11 775.64L657.59 772.08L648.53 783.82L624.88 787.02L641.06 805.33L670.75 814.22L670.75 814.22L670.75 814.22L670.75 814.22L670.75 814.22L700.44 805.33L716.62 787.02L692.97 783.82L683.91 772.08L694.39 775.64Z" id="a1XOiCUNPF"></path><path d="M737.95 839.82L670.75 824.71L670.75 824.71L670.75 824.71L670.75 824.71L670.75 824.71L603.55 839.82L579.02 839.82L559.99 814.22L559.99 832.71L575.11 852.44L603.55 860.44L641.06 843.02L670.75 851.73L670.75 851.73L670.75 851.73L670.75 851.73L670.75 851.73L700.44 843.02L737.95 860.44L766.39 852.44L781.51 832.71L781.51 814.22L762.48 839.82L737.95 839.82Z" id="b5nMWSNFsw"></path><path d="M700.44 843.02L670.75 851.73L641.06 843.02L603.55 860.44L641.06 880.71L670.75 886.57L670.75 886.57L670.75 886.57L670.75 886.57L670.75 886.57L700.44 880.71L737.95 860.44L700.44 843.02Z" id="a1tMDXL2BP"></path><path d="M716.62 787.02L700.44 805.33L670.75 814.22L641.06 805.33L624.88 787.02L603.55 839.82L670.75 824.71L737.95 839.82L716.62 787.02Z" id="c3mXcPGEj"></path><path d="M700.44 880.71L670.75 886.57L641.06 880.71L603.55 860.44L595.55 858.13L607.46 899.91L647.11 918.22L670.75 924.44L670.75 924.44L670.75 924.44L670.75 924.44L670.75 924.44L694.39 918.22L734.04 899.91L745.95 858.13L737.95 860.44L700.44 880.71Z" id="b4AiugmztF"></path><path d="M806.04 437.15L878.22 380.08L921.06 357.51L951.11 365.33L965.86 387.55L965.86 441.24L950.57 452.44L950.57 420.26L943.64 390.57L925.86 386.48L880.35 400.17L837.68 448.17L841.95 506.66L883.91 543.11L911.46 632.17L859.91 652.26L818.31 607.46L803.19 610.66L814.93 577.42L799.82 561.42L792.88 554.13L764.97 549.51L753.24 501.51L726.04 499.37L703.11 476.44L683.91 504.53L670.75 592.71L670.75 448.17L765.33 435.02L806.04 437.15Z" id="cXYi9zrj"></path><path d="M924.62 737.42L894.04 666.31L859.91 652.26L911.46 632.17L781.51 452.44L841.95 506.66L883.91 543.11L931.02 589.51L940.08 693.51L945.24 760.88L918.93 803.73L924.62 737.42Z" id="b44d5BHI5n"></path><path d="M769.59 426.48L730.13 419.73L670.75 426.48L611.37 419.73L571.91 426.48L535.46 437.15L576.17 435.02L670.75 448.17L670.75 448.17L670.75 448.17L670.75 448.17L670.75 448.17L765.33 435.02L806.04 437.15L769.59 426.48Z" id="dUeu2F3xk"></path><path d="M753.24 501.51L764.97 549.51L792.88 554.13L802.13 563.91L799.11 545.24L753.24 501.51Z" id="bmGe8t4uJ"></path><path d="M799.11 824.17L826.66 726.22L811.73 675.55L818.31 632.17L766.39 707.19L730.13 690.84L686.93 693.51L690.48 718.22L720.53 732.44L730.13 756.26L725.33 777.24L716.62 787.02L737.95 839.82L762.48 839.82L781.51 814.22L781.51 832.71L766.39 852.44L799.11 824.17Z" id="bUQVj6oOC"></path><path d="M753.24 501.51L726.04 499.37L703.11 476.44L707.37 458.13L670.75 448.17L670.75 448.17L670.75 448.17L670.75 448.17L670.75 448.17L634.13 458.13L638.39 476.44L615.46 499.37L588.26 501.51L670.75 592.71L670.75 592.71L670.75 592.71L670.75 592.71L670.75 592.71L753.24 501.51Z" id="b2hpo2Y6oC"></path><path d="M837.68 448.17L803.19 459.73L781.51 452.44L841.95 506.66L837.68 448.17Z" id="a2k5gJzRPT"></path><path d="M841.95 506.66L837.68 448.17L861.51 422.04L847.11 455.46L841.95 506.66Z" id="a2ho3psv4"></path><path d="M954.31 543.11L965.86 472.35L965.86 441.24L950.57 452.44L950.57 473.42L926.22 516.79L883.91 543.11L931.02 589.51L954.31 543.11Z" id="i1lHks1uT"></path><path d="M803.19 585.42L759.82 565.51L765.33 581.86L796.62 592.88L803.19 610.66L803.19 585.42Z" id="a2KjVE0VBI"></path><path d="M730.13 527.11L670.75 592.71L717.51 614.75L730.13 527.11Z" id="c1SStXzQES"></path><path d="M708.44 911.64L694.39 918.22L670.75 924.44L647.11 918.22L633.06 911.64L556.26 950.57L575.11 964.08L670.75 983.99L670.75 983.99L670.75 983.99L670.75 983.99L670.75 983.99L766.39 964.08L785.24 950.57L708.44 911.64Z" id="aLWHBLpTk"></path><path d="M481.59 652.26L447.46 666.31L416.88 737.42L422.57 803.73L463.64 838.75L463.64 793.59L477.68 753.24L505.77 700.97L503.82 628.08L495.46 637.33L481.59 652.26Z" id="h66NP2jMZI"></path><path d="M859.91 652.26L846.04 637.33L837.68 628.08L835.73 700.97L863.82 753.24L877.86 793.59L877.86 838.75L918.93 803.73L924.62 737.42L894.04 666.31L859.91 652.26Z" id="iwxyY0LJ6"></path><path d="M803.19 610.66L789.86 630.93L764.08 638.39L743.46 632.17L766.39 707.19L809.77 644.44L818.31 632.17L826.66 616.35L818.31 607.46L803.19 610.66Z" id="b28QMQKZ9r"></path><path d="M826.66 616.35L818.31 632.17L811.73 675.55L826.66 726.22L808.88 789.68L849.59 839.82L868.79 846.39L906.48 814.22L837.68 628.08L826.66 616.35Z" id="aIDP8tsxV"></path><path d="M808.88 789.68L799.11 824.17L766.39 852.44L745.95 858.13L734.04 899.91L708.44 911.64L745.95 930.66L785.24 950.57L836.08 914.48L868.79 846.39L849.59 839.82L808.88 789.68Z" id="c7RtVTbrEQ"></path><path d="M514.84 616.35L523.19 632.17L529.77 675.55L514.84 726.22L532.62 789.68L491.91 839.82L472.71 846.39L435.02 814.22L503.82 628.08L514.84 616.35Z" id="b8O6CMhU4"></path><path d="M597.51 611.55L576.17 581.86L544.88 592.88L538.31 610.66L551.64 630.93L577.42 638.39L597.51 632.17L597.51 611.55Z" id="l1Az7snjU6"></path><path d="M550.57 601.77C550.39 602.66 550.39 603.55 550.39 604.62C550.39 616.35 559.28 625.77 570.31 625.77C581.33 625.77 590.22 616.35 590.22 604.62C590.22 604.44 590.22 604.26 590.22 604.08C587.19 611.91 579.55 617.59 570.66 617.59C560.88 617.59 552.71 610.84 550.57 601.77Z" id="f2Ll7ppcij"></path><path d="M590.22 604.08C589.86 592.71 581.15 583.46 570.31 583.46C560.17 583.46 551.82 591.46 550.57 601.77C552.71 610.84 560.88 617.59 570.66 617.59C579.55 617.59 587.19 611.91 590.22 604.08Z" id="b1uOLDM5f"></path><path d="M551.64 601.95C551.64 601.95 555.55 591.28 571.02 593.59C571.02 593.77 563.19 600.53 561.95 605.15C559.89 604.51 552.67 602.27 551.64 601.95Z" id="aaMDShsqB"></path><path d="M670.75 592.71L651.02 718.22L670.75 718.22L670.75 718.22L690.48 718.22L670.75 592.71L670.75 592.71Z" id="c3U5FCT5h"></path><path d="M883.91 861.15C884.71 861.15 891.11 861.15 891.91 861.15C891.91 862.04 891.91 862.75 891.91 863.64C891.73 863.64 890.84 863.64 889.24 863.64C889.24 868.55 889.24 871.27 889.24 871.82C888.35 871.82 887.46 871.82 886.57 871.82C886.57 871.27 886.57 868.55 886.57 863.64L883.91 863.64C883.91 862.57 883.91 861.74 883.91 861.15Z" id="e5Z7O8nE8j"></path><path d="M903.82 861.15C903.82 867.55 903.82 871.11 903.82 871.82C902.93 871.82 902.04 871.82 900.97 871.82C900.97 871.5 900.97 869.9 900.97 867.02L898.66 869.33L898.31 869.33L895.99 867.02C895.99 869.9 895.99 871.5 895.99 871.82C895.11 871.82 894.22 871.82 893.15 871.82C893.15 871.11 893.15 867.55 893.15 861.15L894.22 861.15L898.31 865.77L902.93 861.15L903.82 861.15Z" id="b2pJ3IZsO"></path><path d="M896.55 849.27L897.85 849.52L899.11 849.87L900.33 850.31L901.51 850.84L902.64 851.44L903.72 852.13L904.75 852.9L905.71 853.73L906.61 854.63L907.45 855.6L908.21 856.62L908.9 857.7L909.51 858.83L910.03 860.01L910.47 861.23L910.82 862.5L911.08 863.79L911.23 865.12L911.28 866.48L911.23 867.84L911.08 869.17L910.82 870.47L910.47 871.73L910.03 872.96L909.51 874.14L908.9 875.27L908.21 876.35L907.45 877.37L906.61 878.34L905.71 879.24L904.75 880.07L903.72 880.83L902.64 881.52L901.51 882.13L900.33 882.66L899.11 883.1L897.85 883.44L896.55 883.7L895.22 883.85L893.86 883.91L892.5 883.85L891.17 883.7L889.87 883.44L888.61 883.1L887.39 882.66L886.21 882.13L885.08 881.52L884 880.83L882.97 880.07L882.01 879.24L881.11 878.34L880.27 877.37L879.51 876.35L878.82 875.27L878.21 874.14L877.69 872.96L877.25 871.73L876.9 870.47L876.65 869.17L876.49 867.84L876.44 866.48L876.49 865.12L876.65 863.79L876.9 862.5L877.25 861.23L877.69 860.01L878.21 858.83L878.82 857.7L879.51 856.62L880.27 855.6L881.11 854.63L882.01 853.73L882.97 852.9L884 852.13L885.08 851.44L886.21 850.84L887.39 850.31L888.61 849.87L889.87 849.52L891.17 849.27L892.5 849.11L893.86 849.06L895.22 849.11L896.55 849.27ZM891.23 851.24L889.97 851.51L888.75 851.89L887.58 852.36L886.47 852.92L885.4 853.56L884.4 854.29L883.46 855.1L882.59 855.97L881.79 856.92L881.07 857.93L880.44 858.99L879.89 860.1L879.42 861.27L879.06 862.48L878.79 863.72L878.63 865L878.57 866.31L878.63 867.64L878.8 868.94L879.07 870.2L879.44 871.41L879.91 872.58L880.47 873.7L881.12 874.76L881.85 875.77L882.65 876.71L883.53 877.58L884.47 878.37L885.48 879.09L886.54 879.73L887.66 880.28L888.82 880.74L890.03 881.11L891.28 881.38L892.55 881.54L893.86 881.59L895.19 881.54L896.49 881.37L897.75 881.1L898.97 880.72L900.14 880.25L901.26 879.69L902.32 879.05L903.32 878.32L904.26 877.51L905.13 876.64L905.93 875.69L906.65 874.69L907.29 873.62L907.84 872.51L908.3 871.34L908.66 870.14L908.93 868.89L909.09 867.61L909.15 866.31L909.09 865L908.93 863.72L908.66 862.48L908.3 861.27L907.84 860.1L907.29 858.99L906.65 857.93L905.93 856.92L905.13 855.97L904.26 855.1L903.32 854.29L902.32 853.56L901.26 852.92L900.14 852.36L898.97 851.89L897.75 851.51L896.49 851.24L895.19 851.07L893.86 851.02L892.53 851.07L891.23 851.24Z" id="aMjVaGl8N"></path><path d="M921.81 358.26L878.97 380.83L806.79 437.9L806.79 437.9L770.34 427.23L730.88 420.48L671.5 427.23L612.12 420.48L572.66 427.23L536.21 437.9L536.21 437.9L464.03 380.83L421.19 358.26L391.14 366.08L376.39 388.3L376.39 441.99L376.39 473.1L386.88 508.48L387.94 543.86L411.23 590.26L412.83 639.14L402.17 694.26L397.01 761.63L423.32 804.48L464.39 839.5L473.46 847.14L506.17 915.23L557.01 951.32L557.01 951.32L575.86 964.83L671.5 984.74L671.5 984.74L671.5 984.74L671.5 984.74L671.5 984.74L767.14 964.83L785.99 951.32L836.83 915.23L869.54 847.14L878.61 839.5L919.68 804.48L945.99 761.63L940.83 694.26L930.17 639.14L931.77 590.26L955.06 543.86L956.12 508.48L966.61 473.1L966.61 441.99L966.61 388.3L951.86 366.08L921.81 358.26Z" id="b6HHUM66FN"></path><path d="M765.72 550.26L753.99 502.26L671.5 593.46L612.12 527.86L612.12 527.86L589.01 502.26L577.28 550.26L549.37 554.88L527.32 578.17L539.06 611.41L545.63 593.63L576.92 582.61L598.26 612.3L598.79 632.92L598.79 632.92L575.86 707.94L564.48 766.97L624.21 704.39L655.32 694.26L671.5 593.46L687.68 694.26L718.79 704.39L778.52 766.97L767.14 707.94L744.21 632.92L744.21 632.92L744.74 612.3L766.08 582.61L797.37 593.63L803.94 611.41L815.68 578.17L793.63 554.88L765.72 550.26Z" id="e1zisvr5D"></path><path d="M461.9 400.92L416.39 387.23L398.61 391.32L391.68 421.01L391.68 474.17L416.03 517.54L458.34 543.86L500.3 507.41L504.57 448.92L461.9 400.92Z" id="a6iQ1SyaOg"></path><path d="M660.66 477.19L671.5 478.97L671.5 582.61L660.66 477.19Z" id="c40MICyhn"></path><path d="M536.21 437.9L464.03 380.83L421.19 358.26L391.14 366.08L376.39 388.3L376.39 441.99L391.68 453.19L391.68 421.01L398.61 391.32L416.39 387.23L461.9 400.92L504.57 448.92L500.3 507.41L458.34 543.86L430.79 632.92L482.34 653.01L523.94 608.21L539.06 611.41L527.32 578.17L542.43 562.17L549.37 554.88L577.28 550.26L589.01 502.26L616.21 500.12L639.14 477.19L658.34 505.28L671.5 593.46L671.5 448.92L576.92 435.77L536.21 437.9Z" id="a4fi7pDLxj"></path><path d="M417.63 738.17L448.21 667.06L482.34 653.01L430.79 632.92L560.74 453.19L500.3 507.41L458.34 543.86L411.23 590.26L402.17 694.26L397.01 761.63L423.32 804.48L417.63 738.17Z" id="ivgjwf7TJ"></path><path d="M589.01 502.26L577.28 550.26L549.37 554.88L540.12 564.66L543.14 545.99L589.01 502.26Z" id="g1Bm3f7W1b"></path><path d="M543.14 824.92L515.59 726.97L530.52 676.3L523.94 632.92L575.86 707.94L612.12 691.59L655.32 694.26L651.77 718.97L621.72 733.19L612.12 757.01L616.92 777.99L625.63 787.77L604.3 840.57L579.77 840.57L560.74 814.97L560.74 833.46L575.86 853.19L543.14 824.92Z" id="bbbFlqP36"></path><path d="M504.57 448.92L539.06 460.48L560.74 453.19L500.3 507.41L504.57 448.92Z" id="hVwPorvJT"></path><path d="M500.3 507.41L504.57 448.92L480.74 422.79L495.14 456.21L500.3 507.41Z" id="bCwBJQTRZ"></path><path d="M387.94 543.86L376.39 473.1L376.39 441.99L391.68 453.19L391.68 474.17L416.03 517.54L458.34 543.86L411.23 590.26L387.94 543.86Z" id="b4Ngzcg0gl"></path><path d="M539.06 586.17L582.43 566.26L576.92 582.61L545.63 593.63L539.06 611.41L539.06 586.17Z" id="a3pT0LznSm"></path><path d="M552.39 631.68L539.06 611.41L523.94 608.21L515.59 617.1L523.94 632.92L532.48 645.19L575.86 707.94L598.79 632.92L578.17 639.14L552.39 631.68Z" id="cSg07UoYh"></path><path d="M596.3 858.88L575.86 853.19L543.14 824.92L533.37 790.43L492.66 840.57L473.46 847.14L506.17 915.23L557.01 951.32L596.3 931.41L633.81 912.39L608.21 900.66L596.3 858.88Z" id="kaW9mpR0m"></path><path d="M881.1 400.92L926.61 387.23L944.39 391.32L951.32 421.01L951.32 474.17L926.97 517.54L884.66 543.86L842.7 507.41L838.43 448.92L881.1 400.92Z" id="a2uteA9MFO"></path><path d="M744.74 612.3L766.08 582.61L797.37 593.63L803.94 611.41L790.61 631.68L764.83 639.14L744.74 632.92L744.74 612.3Z" id="j628GUqf2"></path><path d="M791.68 602.52C791.86 603.41 791.86 604.3 791.86 605.37C791.86 617.1 782.97 626.52 771.94 626.52C760.92 626.52 752.03 617.1 752.03 605.37C752.03 605.19 752.03 605.01 752.03 604.83C755.06 612.66 762.7 618.34 771.59 618.34C781.37 618.34 789.54 611.59 791.68 602.52Z" id="ah9CTicrn"></path><path d="M752.03 604.83C752.39 593.46 761.1 584.21 771.94 584.21C782.08 584.21 790.43 592.21 791.68 602.52C789.54 611.59 781.37 618.34 771.59 618.34C762.7 618.34 755.06 612.66 752.03 604.83Z" id="d4RpCSRRXa"></path><path d="M790.61 602.7C790.61 602.7 786.7 592.03 771.23 594.34C771.23 594.52 779.06 601.28 780.3 605.9C782.36 605.26 789.58 603.02 790.61 602.7Z" id="b64wvVnUqH"></path><path d="M682.34 477.19L671.5 478.97L671.5 582.61L682.34 477.19Z" id="b7aBnapvdj"></path><path d="M691.23 718.97L671.5 718.97L671.5 718.97L651.77 718.97L621.72 733.19L612.12 757.01L616.92 777.99L641.81 806.08L671.5 814.97L671.5 814.97L671.5 814.97L671.5 814.97L671.5 814.97L701.19 806.08L726.08 777.99L730.88 757.01L721.28 733.19L691.23 718.97Z" id="a7uy8X70x"></path><path d="M695.14 776.39L708.66 776.39L718.61 758.79L699.41 745.1L671.5 739.23L671.5 739.23L671.5 739.23L671.5 739.23L671.5 739.23L643.59 745.1L624.39 758.79L634.34 776.39L647.86 776.39L658.34 772.83L649.28 784.57L625.63 787.77L641.81 806.08L671.5 814.97L671.5 814.97L671.5 814.97L671.5 814.97L671.5 814.97L701.19 806.08L717.37 787.77L693.72 784.57L684.66 772.83L695.14 776.39Z" id="a5SI82CI7j"></path><path d="M738.7 840.57L671.5 825.46L671.5 825.46L671.5 825.46L671.5 825.46L671.5 825.46L604.3 840.57L579.77 840.57L560.74 814.97L560.74 833.46L575.86 853.19L604.3 861.19L641.81 843.77L671.5 852.48L671.5 852.48L671.5 852.48L671.5 852.48L671.5 852.48L701.19 843.77L738.7 861.19L767.14 853.19L782.26 833.46L782.26 814.97L763.23 840.57L738.7 840.57Z" id="b1VU0O8F4i"></path><path d="M701.19 843.77L671.5 852.48L641.81 843.77L604.3 861.19L641.81 881.46L671.5 887.32L671.5 887.32L671.5 887.32L671.5 887.32L671.5 887.32L701.19 881.46L738.7 861.19L701.19 843.77Z" id="h2lmkHWUk"></path><path d="M717.37 787.77L701.19 806.08L671.5 814.97L641.81 806.08L625.63 787.77L604.3 840.57L671.5 825.46L738.7 840.57L717.37 787.77Z" id="cDpNnL4Qk"></path><path d="M701.19 881.46L671.5 887.32L641.81 881.46L604.3 861.19L596.3 858.88L608.21 900.66L647.86 918.97L671.5 925.19L671.5 925.19L671.5 925.19L671.5 925.19L671.5 925.19L695.14 918.97L734.79 900.66L746.7 858.88L738.7 861.19L701.19 881.46Z" id="hqhwRkO0T"></path><path d="M806.79 437.9L878.97 380.83L921.81 358.26L951.86 366.08L966.61 388.3L966.61 441.99L951.32 453.19L951.32 421.01L944.39 391.32L926.61 387.23L881.1 400.92L838.43 448.92L842.7 507.41L884.66 543.86L912.21 632.92L860.66 653.01L819.06 608.21L803.94 611.41L815.68 578.17L800.57 562.17L793.63 554.88L765.72 550.26L753.99 502.26L726.79 500.12L703.86 477.19L684.66 505.28L671.5 593.46L671.5 448.92L766.08 435.77L806.79 437.9Z" id="b1Md4cD8yD"></path><path d="M925.37 738.17L894.79 667.06L860.66 653.01L912.21 632.92L782.26 453.19L842.7 507.41L884.66 543.86L931.77 590.26L940.83 694.26L945.99 761.63L919.68 804.48L925.37 738.17Z" id="a6r0oOPM8t"></path><path d="M770.34 427.23L730.88 420.48L671.5 427.23L612.12 420.48L572.66 427.23L536.21 437.9L576.92 435.77L671.5 448.92L671.5 448.92L671.5 448.92L671.5 448.92L671.5 448.92L766.08 435.77L806.79 437.9L770.34 427.23Z" id="a3U664oC4"></path><path d="M753.99 502.26L765.72 550.26L793.63 554.88L802.88 564.66L799.86 545.99L753.99 502.26Z" id="b5iRgQxeH"></path><path d="M799.86 824.92L827.41 726.97L812.48 676.3L819.06 632.92L767.14 707.94L730.88 691.59L687.68 694.26L691.23 718.97L721.28 733.19L730.88 757.01L726.08 777.99L717.37 787.77L738.7 840.57L763.23 840.57L782.26 814.97L782.26 833.46L767.14 853.19L799.86 824.92Z" id="f4TBDZL2U"></path><path d="M753.99 502.26L726.79 500.12L703.86 477.19L708.12 458.88L671.5 448.92L671.5 448.92L671.5 448.92L671.5 448.92L671.5 448.92L634.88 458.88L639.14 477.19L616.21 500.12L589.01 502.26L671.5 593.46L671.5 593.46L671.5 593.46L671.5 593.46L671.5 593.46L753.99 502.26Z" id="c1reler51J"></path><path d="M838.43 448.92L803.94 460.48L782.26 453.19L842.7 507.41L838.43 448.92Z" id="a112SNOGH0"></path><path d="M842.7 507.41L838.43 448.92L862.26 422.79L847.86 456.21L842.7 507.41Z" id="b25s5EbalE"></path><path d="M955.06 543.86L966.61 473.1L966.61 441.99L951.32 453.19L951.32 474.17L926.97 517.54L884.66 543.86L931.77 590.26L955.06 543.86Z" id="e23IhuKgUi"></path><path d="M803.94 586.17L760.57 566.26L766.08 582.61L797.37 593.63L803.94 611.41L803.94 586.17Z" id="g2zXxg0Qkh"></path><path d="M730.88 527.86L671.5 593.46L718.26 615.5L730.88 527.86Z" id="a1UBCyH9Xe"></path><path d="M709.19 912.39L695.14 918.97L671.5 925.19L647.86 918.97L633.81 912.39L557.01 951.32L575.86 964.83L671.5 984.74L671.5 984.74L671.5 984.74L671.5 984.74L671.5 984.74L767.14 964.83L785.99 951.32L709.19 912.39Z" id="cv9a8E4pO"></path><path d="M482.34 653.01L448.21 667.06L417.63 738.17L423.32 804.48L464.39 839.5L464.39 794.34L478.43 753.99L506.52 701.72L504.57 628.83L496.21 638.08L482.34 653.01Z" id="fasK73RU6"></path><path d="M860.66 653.01L846.79 638.08L838.43 628.83L836.48 701.72L864.57 753.99L878.61 794.34L878.61 839.5L919.68 804.48L925.37 738.17L894.79 667.06L860.66 653.01Z" id="abb1MMMDa"></path><path d="M803.94 611.41L790.61 631.68L764.83 639.14L744.21 632.92L767.14 707.94L810.52 645.19L819.06 632.92L827.41 617.1L819.06 608.21L803.94 611.41Z" id="aqqcSfCpX"></path><path d="M827.41 617.1L819.06 632.92L812.48 676.3L827.41 726.97L809.63 790.43L850.34 840.57L869.54 847.14L907.23 814.97L838.43 628.83L827.41 617.1Z" id="f10Bg4sZih"></path><path d="M809.63 790.43L799.86 824.92L767.14 853.19L746.7 858.88L734.79 900.66L709.19 912.39L746.7 931.41L785.99 951.32L836.83 915.23L869.54 847.14L850.34 840.57L809.63 790.43Z" id="eGaLeny8v"></path><path d="M515.59 617.1L523.94 632.92L530.52 676.3L515.59 726.97L533.37 790.43L492.66 840.57L473.46 847.14L435.77 814.97L504.57 628.83L515.59 617.1Z" id="d8IHV204r"></path><path d="M598.26 612.3L576.92 582.61L545.63 593.63L539.06 611.41L552.39 631.68L578.17 639.14L598.26 632.92L598.26 612.3Z" id="b1BaK9NbZg"></path><path d="M551.32 602.52C551.14 603.41 551.14 604.3 551.14 605.37C551.14 617.1 560.03 626.52 571.06 626.52C582.08 626.52 590.97 617.1 590.97 605.37C590.97 605.19 590.97 605.01 590.97 604.83C587.94 612.66 580.3 618.34 571.41 618.34C561.63 618.34 553.46 611.59 551.32 602.52Z" id="ccdLTV7ov"></path><path d="M590.97 604.83C590.61 593.46 581.9 584.21 571.06 584.21C560.92 584.21 552.57 592.21 551.32 602.52C553.46 611.59 561.63 618.34 571.41 618.34C580.3 618.34 587.94 612.66 590.97 604.83Z" id="b9ICGb5ZN"></path><path d="M552.39 602.7C552.39 602.7 556.3 592.03 571.77 594.34C571.77 594.52 563.94 601.28 562.7 605.9C560.64 605.26 553.42 603.02 552.39 602.7Z" id="d2w4Ffzu92"></path><path d="M671.5 593.46L651.77 718.97L671.5 718.97L671.5 718.97L691.23 718.97L671.5 593.46L671.5 593.46Z" id="a95Abps0k"></path><path d="M884.66 861.9C885.46 861.9 891.86 861.9 892.66 861.9C892.66 862.79 892.66 863.5 892.66 864.39C892.48 864.39 891.59 864.39 889.99 864.39C889.99 869.3 889.99 872.02 889.99 872.57C889.1 872.57 888.21 872.57 887.32 872.57C887.32 872.02 887.32 869.3 887.32 864.39L884.66 864.39C884.66 863.32 884.66 862.49 884.66 861.9Z" id="acEFRrkE"></path><path d="M904.57 861.9C904.57 868.3 904.57 871.86 904.57 872.57C903.68 872.57 902.79 872.57 901.72 872.57C901.72 872.25 901.72 870.65 901.72 867.77L899.41 870.08L899.06 870.08L896.74 867.77C896.74 870.65 896.74 872.25 896.74 872.57C895.86 872.57 894.97 872.57 893.9 872.57C893.9 871.86 893.9 868.3 893.9 861.9L894.97 861.9L899.06 866.52L903.68 861.9L904.57 861.9Z" id="c2p5a2165u"></path><path d="M897.3 850.02L898.6 850.27L899.86 850.62L901.08 851.06L902.26 851.59L903.39 852.19L904.47 852.88L905.5 853.65L906.46 854.48L907.36 855.38L908.2 856.35L908.96 857.37L909.65 858.45L910.26 859.58L910.78 860.76L911.22 861.98L911.57 863.25L911.83 864.54L911.98 865.87L912.03 867.23L911.98 868.59L911.83 869.92L911.57 871.22L911.22 872.48L910.78 873.71L910.26 874.89L909.65 876.02L908.96 877.1L908.2 878.12L907.36 879.09L906.46 879.99L905.5 880.82L904.47 881.58L903.39 882.27L902.26 882.88L901.08 883.41L899.86 883.85L898.6 884.19L897.3 884.45L895.97 884.6L894.61 884.66L893.25 884.6L891.92 884.45L890.62 884.19L889.36 883.85L888.14 883.41L886.96 882.88L885.83 882.27L884.75 881.58L883.72 880.82L882.76 879.99L881.86 879.09L881.02 878.12L880.26 877.1L879.57 876.02L878.96 874.89L878.44 873.71L878 872.48L877.65 871.22L877.4 869.92L877.24 868.59L877.19 867.23L877.24 865.87L877.4 864.54L877.65 863.25L878 861.98L878.44 860.76L878.96 859.58L879.57 858.45L880.26 857.37L881.02 856.35L881.86 855.38L882.76 854.48L883.72 853.65L884.75 852.88L885.83 852.19L886.96 851.59L888.14 851.06L889.36 850.62L890.62 850.27L891.92 850.02L893.25 849.86L894.61 849.81L895.97 849.86L897.3 850.02ZM891.98 851.99L890.72 852.26L889.5 852.64L888.33 853.11L887.22 853.67L886.15 854.31L885.15 855.04L884.21 855.85L883.34 856.72L882.54 857.67L881.82 858.68L881.19 859.74L880.64 860.85L880.17 862.02L879.81 863.23L879.54 864.47L879.38 865.75L879.32 867.06L879.38 868.39L879.55 869.69L879.82 870.95L880.19 872.16L880.66 873.33L881.22 874.45L881.87 875.51L882.6 876.52L883.4 877.46L884.28 878.33L885.22 879.12L886.23 879.84L887.29 880.48L888.41 881.03L889.57 881.49L890.78 881.86L892.03 882.13L893.3 882.29L894.61 882.34L895.94 882.29L897.24 882.12L898.5 881.85L899.72 881.47L900.89 881L902.01 880.44L903.07 879.8L904.07 879.07L905.01 878.26L905.88 877.39L906.68 876.44L907.4 875.44L908.04 874.37L908.59 873.26L909.05 872.09L909.41 870.89L909.68 869.64L909.84 868.36L909.9 867.06L909.84 865.75L909.68 864.47L909.41 863.23L909.05 862.02L908.59 860.85L908.04 859.74L907.4 858.68L906.68 857.67L905.88 856.72L905.01 855.85L904.07 855.04L903.07 854.31L902.01 853.67L900.89 853.11L899.72 852.64L898.5 852.26L897.24 851.99L895.94 851.82L894.61 851.77L893.28 851.82L891.98 851.99Z" id="f4FdLUJlig"></path><path d="M17.67 5.68L16.67 6.21L14.99 7.54L14.99 7.54L14.14 7.29L13.22 7.13L11.84 7.29L10.45 7.13L9.53 7.29L8.68 7.54L8.68 7.54L7 6.21L6 5.68L5.3 5.86L4.95 6.38L4.95 7.63L4.95 8.36L5.2 9.18L5.22 10.01L5.77 11.09L5.8 12.23L5.55 13.52L5.43 15.09L6.05 16.09L7 16.9L7.22 17.08L7.98 18.67L9.17 19.51L9.17 19.51L9.6 19.83L11.84 20.29L11.84 20.29L11.84 20.29L11.84 20.29L11.84 20.29L14.07 19.83L14.51 19.51L15.69 18.67L16.45 17.08L16.67 16.9L17.62 16.09L18.24 15.09L18.12 13.52L17.87 12.23L17.91 11.09L18.45 10.01L18.47 9.18L18.72 8.36L18.72 7.63L18.72 6.38L18.37 5.86L17.67 5.68Z" id="akyrPpPWM"></path><path d="M14.03 10.16L13.76 9.04L11.84 11.17L10.45 9.64L10.45 9.64L9.91 9.04L9.64 10.16L8.99 10.27L8.47 10.81L8.75 11.58L8.9 11.17L9.63 10.91L10.13 11.6L10.14 12.09L10.14 12.09L9.6 13.84L9.34 15.21L10.73 13.75L11.46 13.52L11.84 11.17L12.21 13.52L12.94 13.75L14.33 15.21L14.07 13.84L13.53 12.09L13.53 12.09L13.54 11.6L14.04 10.91L14.77 11.17L14.92 11.58L15.2 10.81L14.68 10.27L14.03 10.16Z" id="c4JakMK1VF"></path><path d="M6.95 6.67L5.89 6.36L5.47 6.45L5.31 7.14L5.31 8.38L5.88 9.39L6.86 10.01L7.84 9.16L7.94 7.79L6.95 6.67Z" id="d3R5g1HGC"></path><path d="M11.58 8.45L11.84 8.5L11.84 10.91L11.58 8.45Z" id="g1jdJ5tP1Z"></path><path d="M8.68 7.54L7 6.21L6 5.68L5.3 5.86L4.95 6.38L4.95 7.63L5.31 7.89L5.31 7.14L5.47 6.45L5.89 6.36L6.95 6.67L7.94 7.79L7.84 9.16L6.86 10.01L6.22 12.09L7.42 12.55L8.39 11.51L8.75 11.58L8.47 10.81L8.83 10.44L8.99 10.27L9.64 10.16L9.91 9.04L10.55 8.99L11.08 8.45L11.53 9.11L11.84 11.17L11.84 7.79L9.63 7.49L8.68 7.54Z" id="d4BsJf0633"></path><path d="M5.91 14.54L6.63 12.88L7.42 12.55L6.22 12.09L9.25 7.89L7.84 9.16L6.86 10.01L5.77 11.09L5.55 13.52L5.43 15.09L6.05 16.09L5.91 14.54Z" id="b1daXCWW3q"></path><path d="M9.91 9.04L9.64 10.16L8.99 10.27L8.77 10.49L8.84 10.06L9.91 9.04Z" id="anLwPh1fj"></path><path d="M8.84 16.56L8.2 14.28L8.55 13.1L8.39 12.09L9.6 13.84L10.45 13.45L11.46 13.52L11.38 14.09L10.67 14.42L10.45 14.98L10.56 15.47L10.77 15.7L10.27 16.93L9.7 16.93L9.25 16.33L9.25 16.76L9.6 17.22L8.84 16.56Z" id="b3vZFz4eh"></path><path d="M7.94 7.79L8.75 8.06L9.25 7.89L7.84 9.16L7.94 7.79Z" id="a5iH1oIaMw"></path><path d="M7.84 9.16L7.94 7.79L7.39 7.18L7.72 7.96L7.84 9.16Z" id="b3ZyWD3DS"></path><path d="M5.22 10.01L4.95 8.36L4.95 7.63L5.31 7.89L5.31 8.38L5.88 9.39L6.86 10.01L5.77 11.09L5.22 10.01Z" id="a1xFvfOqPy"></path><path d="M8.75 11L9.76 10.53L9.63 10.91L8.9 11.17L8.75 11.58L8.75 11Z" id="a5QF1Pbezl"></path><path d="M9.06 12.06L8.75 11.58L8.39 11.51L8.2 11.72L8.39 12.09L8.59 12.37L9.6 13.84L10.14 12.09L9.66 12.23L9.06 12.06Z" id="a7xHcCvhR"></path><path d="M10.08 17.36L9.6 17.22L8.84 16.56L8.61 15.76L7.66 16.93L7.22 17.08L7.98 18.67L9.17 19.51L10.08 19.05L10.96 18.6L10.36 18.33L10.08 17.36Z" id="a2DSF6Cqpg"></path><path d="M16.72 6.67L17.79 6.36L18.2 6.45L18.36 7.14L18.36 8.38L17.79 9.39L16.81 10.01L15.83 9.16L15.73 7.79L16.72 6.67Z" id="a13k3o1nDn"></path><path d="M13.54 11.6L14.04 10.91L14.77 11.17L14.92 11.58L14.61 12.06L14.01 12.23L13.54 12.09L13.54 11.6Z" id="dM1LqP0Am"></path><path d="M14.64 11.38C14.64 11.4 14.64 11.42 14.64 11.44C14.64 11.72 14.43 11.94 14.18 11.94C13.92 11.94 13.71 11.72 13.71 11.44C13.71 11.44 13.71 11.43 13.71 11.43C13.78 11.61 13.96 11.75 14.17 11.75C14.4 11.75 14.59 11.59 14.64 11.38Z" id="dcRpJ7Ifj"></path><path d="M13.71 11.43C13.72 11.17 13.92 10.95 14.18 10.95C14.41 10.95 14.61 11.14 14.64 11.38C14.59 11.59 14.4 11.75 14.17 11.75C13.96 11.75 13.78 11.61 13.71 11.43Z" id="aLrWfmlGt"></path><path d="M14.61 11.38C14.61 11.38 14.52 11.13 14.16 11.19C14.16 11.19 14.34 11.35 14.37 11.46C14.42 11.44 14.59 11.39 14.61 11.38Z" id="bCjzaAs8F"></path><path d="M12.09 8.45L11.84 8.5L11.84 10.91L12.09 8.45Z" id="gjIkZP63D"></path><path d="M12.3 14.09L11.84 14.09L11.84 14.09L11.38 14.09L10.67 14.42L10.45 14.98L10.56 15.47L11.14 16.12L11.84 16.33L11.84 16.33L11.84 16.33L11.84 16.33L11.84 16.33L12.53 16.12L13.11 15.47L13.22 14.98L13 14.42L12.3 14.09Z" id="c1uVDKWWB3"></path><path d="M12.39 15.43L12.7 15.43L12.93 15.02L12.49 14.7L11.84 14.57L11.84 14.57L11.84 14.57L11.84 14.57L11.84 14.57L11.18 14.7L10.74 15.02L10.97 15.43L11.28 15.43L11.53 15.35L11.32 15.62L10.77 15.7L11.14 16.12L11.84 16.33L11.84 16.33L11.84 16.33L11.84 16.33L11.84 16.33L12.53 16.12L12.9 15.7L12.35 15.62L12.14 15.35L12.39 15.43Z" id="bvVrqpEMM"></path><path d="M13.4 16.93L11.84 16.58L11.84 16.58L11.84 16.58L11.84 16.58L11.84 16.58L10.27 16.93L9.7 16.93L9.25 16.33L9.25 16.76L9.6 17.22L10.27 17.41L11.14 17L11.84 17.21L11.84 17.21L11.84 17.21L11.84 17.21L11.84 17.21L12.53 17L13.4 17.41L14.07 17.22L14.42 16.76L14.42 16.33L13.97 16.93L13.4 16.93Z" id="aXgR0m0SU"></path><path d="M12.53 17L11.84 17.21L11.14 17L10.27 17.41L11.14 17.88L11.84 18.02L11.84 18.02L11.84 18.02L11.84 18.02L11.84 18.02L12.53 17.88L13.4 17.41L12.53 17Z" id="a25OdqGwQW"></path><path d="M12.9 15.7L12.53 16.12L11.84 16.33L11.14 16.12L10.77 15.7L10.27 16.93L11.84 16.58L13.4 16.93L12.9 15.7Z" id="gbSPzX14g"></path><path d="M12.53 17.88L11.84 18.02L11.14 17.88L10.27 17.41L10.08 17.36L10.36 18.33L11.28 18.76L11.84 18.9L11.84 18.9L11.84 18.9L11.84 18.9L11.84 18.9L12.39 18.76L13.31 18.33L13.59 17.36L13.4 17.41L12.53 17.88Z" id="c1LikA1270"></path><path d="M14.99 7.54L16.67 6.21L17.67 5.68L18.37 5.86L18.72 6.38L18.72 7.63L18.36 7.89L18.36 7.14L18.2 6.45L17.79 6.36L16.72 6.67L15.73 7.79L15.83 9.16L16.81 10.01L17.45 12.09L16.25 12.55L15.28 11.51L14.92 11.58L15.2 10.81L14.85 10.44L14.68 10.27L14.03 10.16L13.76 9.04L13.12 8.99L12.59 8.45L12.14 9.11L11.84 11.17L11.84 7.79L14.04 7.49L14.99 7.54Z" id="a3e2hYFiGS"></path><path d="M17.76 14.54L17.04 12.88L16.25 12.55L17.45 12.09L14.42 7.89L15.83 9.16L16.81 10.01L17.91 11.09L18.12 13.52L18.24 15.09L17.62 16.09L17.76 14.54Z" id="b18p5R0OYE"></path><path d="M14.14 7.29L13.22 7.13L11.84 7.29L10.45 7.13L9.53 7.29L8.68 7.54L9.63 7.49L11.84 7.79L11.84 7.79L11.84 7.79L11.84 7.79L11.84 7.79L14.04 7.49L14.99 7.54L14.14 7.29Z" id="h7AQvzD7xn"></path><path d="M13.76 9.04L14.03 10.16L14.68 10.27L14.9 10.49L14.83 10.06L13.76 9.04Z" id="d1SGN67OfL"></path><path d="M14.83 16.56L15.47 14.28L15.12 13.1L15.28 12.09L14.07 13.84L13.22 13.45L12.21 13.52L12.3 14.09L13 14.42L13.22 14.98L13.11 15.47L12.9 15.7L13.4 16.93L13.97 16.93L14.42 16.33L14.42 16.76L14.07 17.22L14.83 16.56Z" id="a23cZoRkye"></path><path d="M13.76 9.04L13.12 8.99L12.59 8.45L12.69 8.03L11.84 7.79L11.84 7.79L11.84 7.79L11.84 7.79L11.84 7.79L10.98 8.03L11.08 8.45L10.55 8.99L9.91 9.04L11.84 11.17L11.84 11.17L11.84 11.17L11.84 11.17L11.84 11.17L13.76 9.04Z" id="a1QnjllLef"></path><path d="M15.73 7.79L14.92 8.06L14.42 7.89L15.83 9.16L15.73 7.79Z" id="aRf4GJpKI"></path><path d="M15.83 9.16L15.73 7.79L16.28 7.18L15.95 7.96L15.83 9.16Z" id="a6bsb8Ekwj"></path><path d="M18.45 10.01L18.72 8.36L18.72 7.63L18.36 7.89L18.36 8.38L17.79 9.39L16.81 10.01L17.91 11.09L18.45 10.01Z" id="beybkSf3i"></path><path d="M14.92 11L13.91 10.53L14.04 10.91L14.77 11.17L14.92 11.58L14.92 11Z" id="g8J1yyjBj"></path><path d="M13.22 9.64L11.84 11.17L12.93 11.68L13.22 9.64Z" id="a1LtBERBjU"></path><path d="M12.71 18.6L12.39 18.76L11.84 18.9L11.28 18.76L10.96 18.6L9.17 19.51L9.6 19.83L11.84 20.29L11.84 20.29L11.84 20.29L11.84 20.29L11.84 20.29L14.07 19.83L14.51 19.51L12.71 18.6Z" id="f26qgixlUI"></path><path d="M7.42 12.55L6.63 12.88L5.91 14.54L6.05 16.09L7 16.9L7 15.85L7.33 14.91L7.99 13.69L7.94 11.99L7.75 12.21L7.42 12.55Z" id="eAf17NHDQ"></path><path d="M16.25 12.55L15.92 12.21L15.73 11.99L15.68 13.69L16.34 14.91L16.67 15.85L16.67 16.9L17.62 16.09L17.76 14.54L17.04 12.88L16.25 12.55Z" id="a3ICCBpM1j"></path><path d="M14.92 11.58L14.61 12.06L14.01 12.23L13.53 12.09L14.07 13.84L15.08 12.37L15.28 12.09L15.47 11.72L15.28 11.51L14.92 11.58Z" id="anUXtsHpt"></path><path d="M15.47 11.72L15.28 12.09L15.12 13.1L15.47 14.28L15.06 15.76L16.01 16.93L16.45 17.08L17.33 16.33L15.73 11.99L15.47 11.72Z" id="c45yXsAzxI"></path><path d="M15.06 15.76L14.83 16.56L14.07 17.22L13.59 17.36L13.31 18.33L12.71 18.6L13.59 19.05L14.51 19.51L15.69 18.67L16.45 17.08L16.01 16.93L15.06 15.76Z" id="c24v3yJYoo"></path><path d="M8.2 11.72L8.39 12.09L8.55 13.1L8.2 14.28L8.61 15.76L7.66 16.93L7.22 17.08L6.34 16.33L7.94 11.99L8.2 11.72Z" id="apVV8Pa6D"></path><path d="M10.13 11.6L9.63 10.91L8.9 11.17L8.75 11.58L9.06 12.06L9.66 12.23L10.13 12.09L10.13 11.6Z" id="a9K5iUhAah"></path><path d="M9.03 11.38C9.03 11.4 9.03 11.42 9.03 11.44C9.03 11.72 9.24 11.94 9.49 11.94C9.75 11.94 9.96 11.72 9.96 11.44C9.96 11.44 9.96 11.43 9.96 11.43C9.89 11.61 9.71 11.75 9.5 11.75C9.27 11.75 9.08 11.59 9.03 11.38Z" id="d4dcdxJqsl"></path><path d="M9.96 11.43C9.95 11.17 9.75 10.95 9.49 10.95C9.26 10.95 9.06 11.14 9.03 11.38C9.08 11.59 9.27 11.75 9.5 11.75C9.71 11.75 9.89 11.61 9.96 11.43Z" id="n9dtnxFnGX"></path><path d="M9.06 11.38C9.06 11.38 9.15 11.13 9.51 11.19C9.51 11.19 9.33 11.35 9.3 11.46C9.25 11.44 9.08 11.39 9.06 11.38Z" id="cWE8sZxhu"></path><path d="M11.84 11.17L11.38 14.09L11.84 14.09L11.84 14.09L12.3 14.09L11.84 11.17L11.84 11.17Z" id="avs8bCKfM"></path><path d="M16.81 17.43C16.83 17.43 16.97 17.43 16.99 17.43C16.99 17.45 16.99 17.46 16.99 17.48C16.99 17.48 16.97 17.48 16.93 17.48C16.93 17.6 16.93 17.66 16.93 17.67C16.91 17.67 16.89 17.67 16.87 17.67C16.87 17.66 16.87 17.6 16.87 17.48L16.81 17.48C16.81 17.46 16.81 17.44 16.81 17.43Z" id="aslpceehW"></path><path d="M17.27 17.43C17.27 17.58 17.27 17.66 17.27 17.67C17.25 17.67 17.23 17.67 17.2 17.67C17.2 17.67 17.2 17.63 17.2 17.56L17.15 17.62L17.14 17.62L17.09 17.56C17.09 17.63 17.09 17.67 17.09 17.67C17.07 17.67 17.05 17.67 17.02 17.67C17.02 17.66 17.02 17.58 17.02 17.43L17.05 17.43L17.14 17.53L17.25 17.43L17.27 17.43Z" id="apOVU3Qyw"></path><path d="M17.33 17.26L17.41 17.39L17.45 17.55L17.41 17.71L17.33 17.84L17.2 17.92L17.04 17.96L16.88 17.92L16.75 17.84L16.66 17.71L16.63 17.55L16.66 17.39L16.75 17.26L16.88 17.18L17.04 17.14L17.2 17.18L17.33 17.26ZM16.79 17.3L16.71 17.41L16.68 17.55L16.71 17.69L16.79 17.8L16.9 17.88L17.04 17.9L17.18 17.87L17.29 17.8L17.37 17.68L17.4 17.55L17.37 17.41L17.29 17.3L17.18 17.22L17.04 17.19L16.9 17.22L16.79 17.3Z" id="b3xTJgidlO"></path></defs><g><g><g><use xlink:href="#diHm21UrR" opacity="1" fill="#ffffff" fill-opacity="1"></use><g><use xlink:href="#diHm21UrR" opacity="1" fill-opacity="0" stroke="#000000" stroke-width="1" stroke-opacity="0"></use></g></g><g><use xlink:href="#b2vnNlhHCs" opacity="1" fill="#ffffff" fill-opacity="1"></use><g><use xlink:href="#b2vnNlhHCs" opacity="1" fill-opacity="0" stroke="#000000" stroke-width="1" stroke-opacity="0"></use></g></g><g><use xlink:href="#blBI6BqDQ" opacity="1" fill="#ffffff" fill-opacity="1"></use><g><use xlink:href="#blBI6BqDQ" opacity="1" fill-opacity="0" stroke="#000000" stroke-width="1" stroke-opacity="0"></use></g></g><g><use xlink:href="#b44YFanGaK" opacity="1" fill="#7d644b" fill-opacity="1"></use><g><use xlink:href="#b44YFanGaK" opacity="1" fill-opacity="0" stroke="#000000" stroke-width="1" stroke-opacity="0"></use></g></g><g><use xlink:href="#j2ROfU1SYd" opacity="1" fill="#cc8e58" fill-opacity="1"></use><g><use xlink:href="#j2ROfU1SYd" opacity="1" fill-opacity="0" stroke="#000000" stroke-width="1" stroke-opacity="0"></use></g></g><g><use xlink:href="#ceIv3AmH3" opacity="1" fill="#cc8e58" fill-opacity="1"></use><g><use xlink:href="#ceIv3AmH3" opacity="1" fill-opacity="0" stroke="#000000" stroke-width="1" stroke-opacity="0"></use></g></g><g><use xlink:href="#bgFExuyEr" opacity="1" fill="#2d2113" fill-opacity="1"></use><g><use xlink:href="#bgFExuyEr" opacity="1" fill-opacity="0" stroke="#000000" stroke-width="1" stroke-opacity="0"></use></g></g><g><use xlink:href="#a2ePaPw33K" opacity="1" fill="#2c1800" fill-opacity="1"></use><g><use xlink:href="#a2ePaPw33K" opacity="1" fill-opacity="0" stroke="#000000" stroke-width="1" stroke-opacity="0"></use></g></g><g><use xlink:href="#a17l4gIrft" opacity="1" fill="#a8633a" fill-opacity="1"></use><g><use xlink:href="#a17l4gIrft" opacity="1" fill-opacity="0" stroke="#000000" stroke-width="1" stroke-opacity="0"></use></g></g><g><use xlink:href="#aZuDA4LHc" opacity="1" fill="#cc8e58" fill-opacity="1"></use><g><use xlink:href="#aZuDA4LHc" opacity="1" fill-opacity="0" stroke="#000000" stroke-width="1" stroke-opacity="0"></use></g></g><g><use xlink:href="#c33tK19Niv" opacity="1" fill="#a8633a" fill-opacity="1"></use><g><use xlink:href="#c33tK19Niv" opacity="1" fill-opacity="0" stroke="#000000" stroke-width="1" stroke-opacity="0"></use></g></g><g><use xlink:href="#a3Nw1CRSWO" opacity="1" fill="#ebe8db" fill-opacity="1"></use><g><use xlink:href="#a3Nw1CRSWO" opacity="1" fill-opacity="0" stroke="#000000" stroke-width="1" stroke-opacity="0"></use></g></g><g><use xlink:href="#h28HYRzDMz" opacity="1" fill="#5d2900" fill-opacity="1"></use><g><use xlink:href="#h28HYRzDMz" opacity="1" fill-opacity="0" stroke="#000000" stroke-width="1" stroke-opacity="0"></use></g></g><g><use xlink:href="#emeoQVbBQ" opacity="1" fill="#5d2900" fill-opacity="1"></use><g><use xlink:href="#emeoQVbBQ" opacity="1" fill-opacity="0" stroke="#000000" stroke-width="1" stroke-opacity="0"></use></g></g><g><use xlink:href="#d6yJ7PZXNs" opacity="1" fill="#a8633a" fill-opacity="1"></use><g><use xlink:href="#d6yJ7PZXNs" opacity="1" fill-opacity="0" stroke="#000000" stroke-width="1" stroke-opacity="0"></use></g></g><g><use xlink:href="#aThWJj7Gm" opacity="1" fill="#a8633a" fill-opacity="1"></use><g><use xlink:href="#aThWJj7Gm" opacity="1" fill-opacity="0" stroke="#000000" stroke-width="1" stroke-opacity="0"></use></g></g><g><use xlink:href="#a1kmjhJkxO" opacity="1" fill="#d6b795" fill-opacity="1"></use><g><use xlink:href="#a1kmjhJkxO" opacity="1" fill-opacity="0" stroke="#000000" stroke-width="1" stroke-opacity="0"></use></g></g><g><use xlink:href="#a21Ucc2giU" opacity="1" fill="#dbd5c3" fill-opacity="1"></use><g><use xlink:href="#a21Ucc2giU" opacity="1" fill-opacity="0" stroke="#000000" stroke-width="1" stroke-opacity="0"></use></g></g><g><use xlink:href="#cInfTllr0" opacity="1" fill="#2d2113" fill-opacity="1"></use><g><use xlink:href="#cInfTllr0" opacity="1" fill-opacity="0" stroke="#000000" stroke-width="1" stroke-opacity="0"></use></g></g><g><use xlink:href="#aZyenzTTg" opacity="1" fill="#2c1800" fill-opacity="1"></use><g><use xlink:href="#aZyenzTTg" opacity="1" fill-opacity="0" stroke="#000000" stroke-width="1" stroke-opacity="0"></use></g></g><g><use xlink:href="#c69NB4t5l" opacity="1" fill="#4d2f00" fill-opacity="1"></use><g><use xlink:href="#c69NB4t5l" opacity="1" fill-opacity="0" stroke="#000000" stroke-width="1" stroke-opacity="0"></use></g></g><g><use xlink:href="#hSPMKZN3W" opacity="1" fill="#2c1800" fill-opacity="1"></use><g><use xlink:href="#hSPMKZN3W" opacity="1" fill-opacity="0" stroke="#000000" stroke-width="1" stroke-opacity="0"></use></g></g><g><use xlink:href="#b22nDSNBQG" opacity="1" fill="#ecd9cb" fill-opacity="1"></use><g><use xlink:href="#b22nDSNBQG" opacity="1" fill-opacity="0" stroke="#000000" stroke-width="1" stroke-opacity="0"></use></g></g><g><use xlink:href="#d31Jhlk5C" opacity="1" fill="#2c1800" fill-opacity="1"></use><g><use xlink:href="#d31Jhlk5C" opacity="1" fill-opacity="0" stroke="#000000" stroke-width="1" stroke-opacity="0"></use></g></g><g><use xlink:href="#a1uv2futcN" opacity="1" fill="#262626" fill-opacity="1"></use><g><use xlink:href="#a1uv2futcN" opacity="1" fill-opacity="0" stroke="#000000" stroke-width="1" stroke-opacity="0"></use></g></g><g><use xlink:href="#a1XOiCUNPF" opacity="1" fill="#000000" fill-opacity="1"></use><g><use xlink:href="#a1XOiCUNPF" opacity="1" fill-opacity="0" stroke="#000000" stroke-width="1" stroke-opacity="0"></use></g></g><g><use xlink:href="#b5nMWSNFsw" opacity="1" fill="#000000" fill-opacity="1"></use><g><use xlink:href="#b5nMWSNFsw" opacity="1" fill-opacity="0" stroke="#000000" stroke-width="1" stroke-opacity="0"></use></g></g><g><use xlink:href="#a1tMDXL2BP" opacity="1" fill="#918a85" fill-opacity="1"></use><g><use xlink:href="#a1tMDXL2BP" opacity="1" fill-opacity="0" stroke="#000000" stroke-width="1" stroke-opacity="0"></use></g></g><g><use xlink:href="#c3mXcPGEj" opacity="1" fill="#5c524a" fill-opacity="1"></use><g><use xlink:href="#c3mXcPGEj" opacity="1" fill-opacity="0" stroke="#000000" stroke-width="1" stroke-opacity="0"></use></g></g><g><use xlink:href="#b4AiugmztF" opacity="1" fill="#ebe8db" fill-opacity="1"></use><g><use xlink:href="#b4AiugmztF" opacity="1" fill-opacity="0" stroke="#000000" stroke-width="1" stroke-opacity="0"></use></g></g><g><use xlink:href="#cXYi9zrj" opacity="1" fill="#a8633a" fill-opacity="1"></use><g><use xlink:href="#cXYi9zrj" opacity="1" fill-opacity="0" stroke="#000000" stroke-width="1" stroke-opacity="0"></use></g></g><g><use xlink:href="#b44d5BHI5n" opacity="1" fill="#cc8e58" fill-opacity="1"></use><g><use xlink:href="#b44d5BHI5n" opacity="1" fill-opacity="0" stroke="#000000" stroke-width="1" stroke-opacity="0"></use></g></g><g><use xlink:href="#dUeu2F3xk" opacity="1" fill="#a8633a" fill-opacity="1"></use><g><use xlink:href="#dUeu2F3xk" opacity="1" fill-opacity="0" stroke="#000000" stroke-width="1" stroke-opacity="0"></use></g></g><g><use xlink:href="#bmGe8t4uJ" opacity="1" fill="#a8633a" fill-opacity="1"></use><g><use xlink:href="#bmGe8t4uJ" opacity="1" fill-opacity="0" stroke="#000000" stroke-width="1" stroke-opacity="0"></use></g></g><g><use xlink:href="#bUQVj6oOC" opacity="1" fill="#ebe8db" fill-opacity="1"></use><g><use xlink:href="#bUQVj6oOC" opacity="1" fill-opacity="0" stroke="#000000" stroke-width="1" stroke-opacity="0"></use></g></g><g><use xlink:href="#b2hpo2Y6oC" opacity="1" fill="#a8633a" fill-opacity="1"></use><g><use xlink:href="#b2hpo2Y6oC" opacity="1" fill-opacity="0" stroke="#000000" stroke-width="1" stroke-opacity="0"></use></g></g><g><use xlink:href="#a2k5gJzRPT" opacity="1" fill="#5d2900" fill-opacity="1"></use><g><use xlink:href="#a2k5gJzRPT" opacity="1" fill-opacity="0" stroke="#000000" stroke-width="1" stroke-opacity="0"></use></g></g><g><use xlink:href="#a2ho3psv4" opacity="1" fill="#5d2900" fill-opacity="1"></use><g><use xlink:href="#a2ho3psv4" opacity="1" fill-opacity="0" stroke="#000000" stroke-width="1" stroke-opacity="0"></use></g></g><g><use xlink:href="#i1lHks1uT" opacity="1" fill="#a8633a" fill-opacity="1"></use><g><use xlink:href="#i1lHks1uT" opacity="1" fill-opacity="0" stroke="#000000" stroke-width="1" stroke-opacity="0"></use></g></g><g><use xlink:href="#a2KjVE0VBI" opacity="1" fill="#a8633a" fill-opacity="1"></use><g><use xlink:href="#a2KjVE0VBI" opacity="1" fill-opacity="0" stroke="#000000" stroke-width="1" stroke-opacity="0"></use></g></g><g><use xlink:href="#c1SStXzQES" opacity="1" fill="#cc8e58" fill-opacity="1"></use><g><use xlink:href="#c1SStXzQES" opacity="1" fill-opacity="0" stroke="#000000" stroke-width="1" stroke-opacity="0"></use></g></g><g><use xlink:href="#aLWHBLpTk" opacity="1" fill="#807664" fill-opacity="1"></use><g><use xlink:href="#aLWHBLpTk" opacity="1" fill-opacity="0" stroke="#000000" stroke-width="1" stroke-opacity="0"></use></g></g><g><use xlink:href="#h66NP2jMZI" opacity="1" fill="#dbd5c3" fill-opacity="1"></use><g><use xlink:href="#h66NP2jMZI" opacity="1" fill-opacity="0" stroke="#000000" stroke-width="1" stroke-opacity="0"></use></g></g><g><use xlink:href="#iwxyY0LJ6" opacity="1" fill="#dbd5c3" fill-opacity="1"></use><g><use xlink:href="#iwxyY0LJ6" opacity="1" fill-opacity="0" stroke="#000000" stroke-width="1" stroke-opacity="0"></use></g></g><g><use xlink:href="#b28QMQKZ9r" opacity="1" fill="#d6b795" fill-opacity="1"></use><g><use xlink:href="#b28QMQKZ9r" opacity="1" fill-opacity="0" stroke="#000000" stroke-width="1" stroke-opacity="0"></use></g></g><g><use xlink:href="#aIDP8tsxV" opacity="1" fill="#cfc7af" fill-opacity="1"></use><g><use xlink:href="#aIDP8tsxV" opacity="1" fill-opacity="0" stroke="#000000" stroke-width="1" stroke-opacity="0"></use></g></g><g><use xlink:href="#c7RtVTbrEQ" opacity="1" fill="#dbd5c3" fill-opacity="1"></use><g><use xlink:href="#c7RtVTbrEQ" opacity="1" fill-opacity="0" stroke="#000000" stroke-width="1" stroke-opacity="0"></use></g></g><g><use xlink:href="#b8O6CMhU4" opacity="1" fill="#cfc7af" fill-opacity="1"></use><g><use xlink:href="#b8O6CMhU4" opacity="1" fill-opacity="0" stroke="#000000" stroke-width="1" stroke-opacity="0"></use></g></g><g><use xlink:href="#l1Az7snjU6" opacity="1" fill="#2c1800" fill-opacity="1"></use><g><use xlink:href="#l1Az7snjU6" opacity="1" fill-opacity="0" stroke="#000000" stroke-width="1" stroke-opacity="0"></use></g></g><g><use xlink:href="#f2Ll7ppcij" opacity="1" fill="#4d2f00" fill-opacity="1"></use><g><use xlink:href="#f2Ll7ppcij" opacity="1" fill-opacity="0" stroke="#000000" stroke-width="1" stroke-opacity="0"></use></g></g><g><use xlink:href="#b1uOLDM5f" opacity="1" fill="#2c1800" fill-opacity="1"></use><g><use xlink:href="#b1uOLDM5f" opacity="1" fill-opacity="0" stroke="#000000" stroke-width="1" stroke-opacity="0"></use></g></g><g><use xlink:href="#aaMDShsqB" opacity="1" fill="#ecd9cb" fill-opacity="1"></use><g><use xlink:href="#aaMDShsqB" opacity="1" fill-opacity="0" stroke="#000000" stroke-width="1" stroke-opacity="0"></use></g></g><g><use xlink:href="#c3U5FCT5h" opacity="1" fill="#d9aa8b" fill-opacity="1"></use><g><use xlink:href="#c3U5FCT5h" opacity="1" fill-opacity="0" stroke="#000000" stroke-width="1" stroke-opacity="0"></use></g></g><g><use xlink:href="#e5Z7O8nE8j" opacity="1" fill="#cc8e58" fill-opacity="1"></use><g><use xlink:href="#e5Z7O8nE8j" opacity="1" fill-opacity="0" stroke="#000000" stroke-width="1" stroke-opacity="0"></use></g></g><g><use xlink:href="#b2pJ3IZsO" opacity="1" fill="#cc8e58" fill-opacity="1"></use><g><use xlink:href="#b2pJ3IZsO" opacity="1" fill-opacity="0" stroke="#000000" stroke-width="1" stroke-opacity="0"></use></g></g><g><use xlink:href="#aMjVaGl8N" opacity="1" fill="#cc8e58" fill-opacity="1"></use><g><use xlink:href="#aMjVaGl8N" opacity="1" fill-opacity="0" stroke="#000000" stroke-width="1" stroke-opacity="0"></use></g></g><g><use xlink:href="#b6HHUM66FN" opacity="1" fill="#cc8e58" fill-opacity="1"></use><g><use xlink:href="#b6HHUM66FN" opacity="1" fill-opacity="0" stroke="#000000" stroke-width="1" stroke-opacity="0"></use></g></g><g><use xlink:href="#e1zisvr5D" opacity="1" fill="#cc8e58" fill-opacity="1"></use><g><use xlink:href="#e1zisvr5D" opacity="1" fill-opacity="0" stroke="#000000" stroke-width="1" stroke-opacity="0"></use></g></g><g><use xlink:href="#a6iQ1SyaOg" opacity="1" fill="#2d2113" fill-opacity="1"></use><g><use xlink:href="#a6iQ1SyaOg" opacity="1" fill-opacity="0" stroke="#000000" stroke-width="1" stroke-opacity="0"></use></g></g><g><use xlink:href="#c40MICyhn" opacity="1" fill="#2c1800" fill-opacity="1"></use><g><use xlink:href="#c40MICyhn" opacity="1" fill-opacity="0" stroke="#000000" stroke-width="1" stroke-opacity="0"></use></g></g><g><use xlink:href="#a4fi7pDLxj" opacity="1" fill="#a8633a" fill-opacity="1"></use><g><use xlink:href="#a4fi7pDLxj" opacity="1" fill-opacity="0" stroke="#000000" stroke-width="1" stroke-opacity="0"></use></g></g><g><use xlink:href="#ivgjwf7TJ" opacity="1" fill="#cc8e58" fill-opacity="1"></use><g><use xlink:href="#ivgjwf7TJ" opacity="1" fill-opacity="0" stroke="#000000" stroke-width="1" stroke-opacity="0"></use></g></g><g><use xlink:href="#g1Bm3f7W1b" opacity="1" fill="#a8633a" fill-opacity="1"></use><g><use xlink:href="#g1Bm3f7W1b" opacity="1" fill-opacity="0" stroke="#000000" stroke-width="1" stroke-opacity="0"></use></g></g><g><use xlink:href="#bbbFlqP36" opacity="1" fill="#ebe8db" fill-opacity="1"></use><g><use xlink:href="#bbbFlqP36" opacity="1" fill-opacity="0" stroke="#000000" stroke-width="1" stroke-opacity="0"></use></g></g><g><use xlink:href="#hVwPorvJT" opacity="1" fill="#5d2900" fill-opacity="1"></use><g><use xlink:href="#hVwPorvJT" opacity="1" fill-opacity="0" stroke="#000000" stroke-width="1" stroke-opacity="0"></use></g></g><g><use xlink:href="#bCwBJQTRZ" opacity="1" fill="#5d2900" fill-opacity="1"></use><g><use xlink:href="#bCwBJQTRZ" opacity="1" fill-opacity="0" stroke="#000000" stroke-width="1" stroke-opacity="0"></use></g></g><g><use xlink:href="#b4Ngzcg0gl" opacity="1" fill="#a8633a" fill-opacity="1"></use><g><use xlink:href="#b4Ngzcg0gl" opacity="1" fill-opacity="0" stroke="#000000" stroke-width="1" stroke-opacity="0"></use></g></g><g><use xlink:href="#a3pT0LznSm" opacity="1" fill="#a8633a" fill-opacity="1"></use><g><use xlink:href="#a3pT0LznSm" opacity="1" fill-opacity="0" stroke="#000000" stroke-width="1" stroke-opacity="0"></use></g></g><g><use xlink:href="#cSg07UoYh" opacity="1" fill="#d6b795" fill-opacity="1"></use><g><use xlink:href="#cSg07UoYh" opacity="1" fill-opacity="0" stroke="#000000" stroke-width="1" stroke-opacity="0"></use></g></g><g><use xlink:href="#kaW9mpR0m" opacity="1" fill="#dbd5c3" fill-opacity="1"></use><g><use xlink:href="#kaW9mpR0m" opacity="1" fill-opacity="0" stroke="#000000" stroke-width="1" stroke-opacity="0"></use></g></g><g><use xlink:href="#a2uteA9MFO" opacity="1" fill="#2d2113" fill-opacity="1"></use><g><use xlink:href="#a2uteA9MFO" opacity="1" fill-opacity="0" stroke="#000000" stroke-width="1" stroke-opacity="0"></use></g></g><g><use xlink:href="#j628GUqf2" opacity="1" fill="#2c1800" fill-opacity="1"></use><g><use xlink:href="#j628GUqf2" opacity="1" fill-opacity="0" stroke="#000000" stroke-width="1" stroke-opacity="0"></use></g></g><g><use xlink:href="#ah9CTicrn" opacity="1" fill="#4d2f00" fill-opacity="1"></use><g><use xlink:href="#ah9CTicrn" opacity="1" fill-opacity="0" stroke="#000000" stroke-width="1" stroke-opacity="0"></use></g></g><g><use xlink:href="#d4RpCSRRXa" opacity="1" fill="#2c1800" fill-opacity="1"></use><g><use xlink:href="#d4RpCSRRXa" opacity="1" fill-opacity="0" stroke="#000000" stroke-width="1" stroke-opacity="0"></use></g></g><g><use xlink:href="#b64wvVnUqH" opacity="1" fill="#ecd9cb" fill-opacity="1"></use><g><use xlink:href="#b64wvVnUqH" opacity="1" fill-opacity="0" stroke="#000000" stroke-width="1" stroke-opacity="0"></use></g></g><g><use xlink:href="#b7aBnapvdj" opacity="1" fill="#2c1800" fill-opacity="1"></use><g><use xlink:href="#b7aBnapvdj" opacity="1" fill-opacity="0" stroke="#000000" stroke-width="1" stroke-opacity="0"></use></g></g><g><use xlink:href="#a7uy8X70x" opacity="1" fill="#262626" fill-opacity="1"></use><g><use xlink:href="#a7uy8X70x" opacity="1" fill-opacity="0" stroke="#000000" stroke-width="1" stroke-opacity="0"></use></g></g><g><use xlink:href="#a5SI82CI7j" opacity="1" fill="#000000" fill-opacity="1"></use><g><use xlink:href="#a5SI82CI7j" opacity="1" fill-opacity="0" stroke="#000000" stroke-width="1" stroke-opacity="0"></use></g></g><g><use xlink:href="#b1VU0O8F4i" opacity="1" fill="#000000" fill-opacity="1"></use><g><use xlink:href="#b1VU0O8F4i" opacity="1" fill-opacity="0" stroke="#000000" stroke-width="1" stroke-opacity="0"></use></g></g><g><use xlink:href="#h2lmkHWUk" opacity="1" fill="#918a85" fill-opacity="1"></use><g><use xlink:href="#h2lmkHWUk" opacity="1" fill-opacity="0" stroke="#000000" stroke-width="1" stroke-opacity="0"></use></g></g><g><use xlink:href="#cDpNnL4Qk" opacity="1" fill="#5c524a" fill-opacity="1"></use><g><use xlink:href="#cDpNnL4Qk" opacity="1" fill-opacity="0" stroke="#000000" stroke-width="1" stroke-opacity="0"></use></g></g><g><use xlink:href="#hqhwRkO0T" opacity="1" fill="#ebe8db" fill-opacity="1"></use><g><use xlink:href="#hqhwRkO0T" opacity="1" fill-opacity="0" stroke="#000000" stroke-width="1" stroke-opacity="0"></use></g></g><g><use xlink:href="#b1Md4cD8yD" opacity="1" fill="#a8633a" fill-opacity="1"></use><g><use xlink:href="#b1Md4cD8yD" opacity="1" fill-opacity="0" stroke="#000000" stroke-width="1" stroke-opacity="0"></use></g></g><g><use xlink:href="#a6r0oOPM8t" opacity="1" fill="#cc8e58" fill-opacity="1"></use><g><use xlink:href="#a6r0oOPM8t" opacity="1" fill-opacity="0" stroke="#000000" stroke-width="1" stroke-opacity="0"></use></g></g><g><use xlink:href="#a3U664oC4" opacity="1" fill="#a8633a" fill-opacity="1"></use><g><use xlink:href="#a3U664oC4" opacity="1" fill-opacity="0" stroke="#000000" stroke-width="1" stroke-opacity="0"></use></g></g><g><use xlink:href="#b5iRgQxeH" opacity="1" fill="#a8633a" fill-opacity="1"></use><g><use xlink:href="#b5iRgQxeH" opacity="1" fill-opacity="0" stroke="#000000" stroke-width="1" stroke-opacity="0"></use></g></g><g><use xlink:href="#f4TBDZL2U" opacity="1" fill="#ebe8db" fill-opacity="1"></use><g><use xlink:href="#f4TBDZL2U" opacity="1" fill-opacity="0" stroke="#000000" stroke-width="1" stroke-opacity="0"></use></g></g><g><use xlink:href="#c1reler51J" opacity="1" fill="#a8633a" fill-opacity="1"></use><g><use xlink:href="#c1reler51J" opacity="1" fill-opacity="0" stroke="#000000" stroke-width="1" stroke-opacity="0"></use></g></g><g><use xlink:href="#a112SNOGH0" opacity="1" fill="#5d2900" fill-opacity="1"></use><g><use xlink:href="#a112SNOGH0" opacity="1" fill-opacity="0" stroke="#000000" stroke-width="1" stroke-opacity="0"></use></g></g><g><use xlink:href="#b25s5EbalE" opacity="1" fill="#5d2900" fill-opacity="1"></use><g><use xlink:href="#b25s5EbalE" opacity="1" fill-opacity="0" stroke="#000000" stroke-width="1" stroke-opacity="0"></use></g></g><g><use xlink:href="#e23IhuKgUi" opacity="1" fill="#a8633a" fill-opacity="1"></use><g><use xlink:href="#e23IhuKgUi" opacity="1" fill-opacity="0" stroke="#000000" stroke-width="1" stroke-opacity="0"></use></g></g><g><use xlink:href="#g2zXxg0Qkh" opacity="1" fill="#a8633a" fill-opacity="1"></use><g><use xlink:href="#g2zXxg0Qkh" opacity="1" fill-opacity="0" stroke="#000000" stroke-width="1" stroke-opacity="0"></use></g></g><g><use xlink:href="#a1UBCyH9Xe" opacity="1" fill="#cc8e58" fill-opacity="1"></use><g><use xlink:href="#a1UBCyH9Xe" opacity="1" fill-opacity="0" stroke="#000000" stroke-width="1" stroke-opacity="0"></use></g></g><g><use xlink:href="#cv9a8E4pO" opacity="1" fill="#807664" fill-opacity="1"></use><g><use xlink:href="#cv9a8E4pO" opacity="1" fill-opacity="0" stroke="#000000" stroke-width="1" stroke-opacity="0"></use></g></g><g><use xlink:href="#fasK73RU6" opacity="1" fill="#dbd5c3" fill-opacity="1"></use><g><use xlink:href="#fasK73RU6" opacity="1" fill-opacity="0" stroke="#000000" stroke-width="1" stroke-opacity="0"></use></g></g><g><use xlink:href="#abb1MMMDa" opacity="1" fill="#dbd5c3" fill-opacity="1"></use><g><use xlink:href="#abb1MMMDa" opacity="1" fill-opacity="0" stroke="#000000" stroke-width="1" stroke-opacity="0"></use></g></g><g><use xlink:href="#aqqcSfCpX" opacity="1" fill="#d6b795" fill-opacity="1"></use><g><use xlink:href="#aqqcSfCpX" opacity="1" fill-opacity="0" stroke="#000000" stroke-width="1" stroke-opacity="0"></use></g></g><g><use xlink:href="#f10Bg4sZih" opacity="1" fill="#cfc7af" fill-opacity="1"></use><g><use xlink:href="#f10Bg4sZih" opacity="1" fill-opacity="0" stroke="#000000" stroke-width="1" stroke-opacity="0"></use></g></g><g><use xlink:href="#eGaLeny8v" opacity="1" fill="#dbd5c3" fill-opacity="1"></use><g><use xlink:href="#eGaLeny8v" opacity="1" fill-opacity="0" stroke="#000000" stroke-width="1" stroke-opacity="0"></use></g></g><g><use xlink:href="#d8IHV204r" opacity="1" fill="#cfc7af" fill-opacity="1"></use><g><use xlink:href="#d8IHV204r" opacity="1" fill-opacity="0" stroke="#000000" stroke-width="1" stroke-opacity="0"></use></g></g><g><use xlink:href="#b1BaK9NbZg" opacity="1" fill="#2c1800" fill-opacity="1"></use><g><use xlink:href="#b1BaK9NbZg" opacity="1" fill-opacity="0" stroke="#000000" stroke-width="1" stroke-opacity="0"></use></g></g><g><use xlink:href="#ccdLTV7ov" opacity="1" fill="#4d2f00" fill-opacity="1"></use><g><use xlink:href="#ccdLTV7ov" opacity="1" fill-opacity="0" stroke="#000000" stroke-width="1" stroke-opacity="0"></use></g></g><g><use xlink:href="#b9ICGb5ZN" opacity="1" fill="#2c1800" fill-opacity="1"></use><g><use xlink:href="#b9ICGb5ZN" opacity="1" fill-opacity="0" stroke="#000000" stroke-width="1" stroke-opacity="0"></use></g></g><g><use xlink:href="#d2w4Ffzu92" opacity="1" fill="#ecd9cb" fill-opacity="1"></use><g><use xlink:href="#d2w4Ffzu92" opacity="1" fill-opacity="0" stroke="#000000" stroke-width="1" stroke-opacity="0"></use></g></g><g><use xlink:href="#a95Abps0k" opacity="1" fill="#d9aa8b" fill-opacity="1"></use><g><use xlink:href="#a95Abps0k" opacity="1" fill-opacity="0" stroke="#000000" stroke-width="1" stroke-opacity="0"></use></g></g><g><use xlink:href="#acEFRrkE" opacity="1" fill="#cc8e58" fill-opacity="1"></use><g><use xlink:href="#acEFRrkE" opacity="1" fill-opacity="0" stroke="#000000" stroke-width="1" stroke-opacity="0"></use></g></g><g><use xlink:href="#c2p5a2165u" opacity="1" fill="#cc8e58" fill-opacity="1"></use><g><use xlink:href="#c2p5a2165u" opacity="1" fill-opacity="0" stroke="#000000" stroke-width="1" stroke-opacity="0"></use></g></g><g><use xlink:href="#f4FdLUJlig" opacity="1" fill="#cc8e58" fill-opacity="1"></use><g><use xlink:href="#f4FdLUJlig" opacity="1" fill-opacity="0" stroke="#000000" stroke-width="1" stroke-opacity="0"></use></g></g><g><use xlink:href="#akyrPpPWM" opacity="1" fill="#cc8e58" fill-opacity="1"></use><g><use xlink:href="#akyrPpPWM" opacity="1" fill-opacity="0" stroke="#000000" stroke-width="1" stroke-opacity="0"></use></g></g><g><use xlink:href="#c4JakMK1VF" opacity="1" fill="#cc8e58" fill-opacity="1"></use><g><use xlink:href="#c4JakMK1VF" opacity="1" fill-opacity="0" stroke="#000000" stroke-width="1" stroke-opacity="0"></use></g></g><g><use xlink:href="#d3R5g1HGC" opacity="1" fill="#2d2113" fill-opacity="1"></use><g><use xlink:href="#d3R5g1HGC" opacity="1" fill-opacity="0" stroke="#000000" stroke-width="1" stroke-opacity="0"></use></g></g><g><use xlink:href="#g1jdJ5tP1Z" opacity="1" fill="#2c1800" fill-opacity="1"></use><g><use xlink:href="#g1jdJ5tP1Z" opacity="1" fill-opacity="0" stroke="#000000" stroke-width="1" stroke-opacity="0"></use></g></g><g><use xlink:href="#d4BsJf0633" opacity="1" fill="#a8633a" fill-opacity="1"></use><g><use xlink:href="#d4BsJf0633" opacity="1" fill-opacity="0" stroke="#000000" stroke-width="1" stroke-opacity="0"></use></g></g><g><use xlink:href="#b1daXCWW3q" opacity="1" fill="#cc8e58" fill-opacity="1"></use><g><use xlink:href="#b1daXCWW3q" opacity="1" fill-opacity="0" stroke="#000000" stroke-width="1" stroke-opacity="0"></use></g></g><g><use xlink:href="#anLwPh1fj" opacity="1" fill="#a8633a" fill-opacity="1"></use><g><use xlink:href="#anLwPh1fj" opacity="1" fill-opacity="0" stroke="#000000" stroke-width="1" stroke-opacity="0"></use></g></g><g><use xlink:href="#b3vZFz4eh" opacity="1" fill="#ebe8db" fill-opacity="1"></use><g><use xlink:href="#b3vZFz4eh" opacity="1" fill-opacity="0" stroke="#000000" stroke-width="1" stroke-opacity="0"></use></g></g><g><use xlink:href="#a5iH1oIaMw" opacity="1" fill="#5d2900" fill-opacity="1"></use><g><use xlink:href="#a5iH1oIaMw" opacity="1" fill-opacity="0" stroke="#000000" stroke-width="1" stroke-opacity="0"></use></g></g><g><use xlink:href="#b3ZyWD3DS" opacity="1" fill="#5d2900" fill-opacity="1"></use><g><use xlink:href="#b3ZyWD3DS" opacity="1" fill-opacity="0" stroke="#000000" stroke-width="1" stroke-opacity="0"></use></g></g><g><use xlink:href="#a1xFvfOqPy" opacity="1" fill="#a8633a" fill-opacity="1"></use><g><use xlink:href="#a1xFvfOqPy" opacity="1" fill-opacity="0" stroke="#000000" stroke-width="1" stroke-opacity="0"></use></g></g><g><use xlink:href="#a5QF1Pbezl" opacity="1" fill="#a8633a" fill-opacity="1"></use><g><use xlink:href="#a5QF1Pbezl" opacity="1" fill-opacity="0" stroke="#000000" stroke-width="1" stroke-opacity="0"></use></g></g><g><use xlink:href="#a7xHcCvhR" opacity="1" fill="#d6b795" fill-opacity="1"></use><g><use xlink:href="#a7xHcCvhR" opacity="1" fill-opacity="0" stroke="#000000" stroke-width="1" stroke-opacity="0"></use></g></g><g><use xlink:href="#a2DSF6Cqpg" opacity="1" fill="#dbd5c3" fill-opacity="1"></use><g><use xlink:href="#a2DSF6Cqpg" opacity="1" fill-opacity="0" stroke="#000000" stroke-width="1" stroke-opacity="0"></use></g></g><g><use xlink:href="#a13k3o1nDn" opacity="1" fill="#2d2113" fill-opacity="1"></use><g><use xlink:href="#a13k3o1nDn" opacity="1" fill-opacity="0" stroke="#000000" stroke-width="1" stroke-opacity="0"></use></g></g><g><use xlink:href="#dM1LqP0Am" opacity="1" fill="#2c1800" fill-opacity="1"></use><g><use xlink:href="#dM1LqP0Am" opacity="1" fill-opacity="0" stroke="#000000" stroke-width="1" stroke-opacity="0"></use></g></g><g><use xlink:href="#dcRpJ7Ifj" opacity="1" fill="#4d2f00" fill-opacity="1"></use><g><use xlink:href="#dcRpJ7Ifj" opacity="1" fill-opacity="0" stroke="#000000" stroke-width="1" stroke-opacity="0"></use></g></g><g><use xlink:href="#aLrWfmlGt" opacity="1" fill="#2c1800" fill-opacity="1"></use><g><use xlink:href="#aLrWfmlGt" opacity="1" fill-opacity="0" stroke="#000000" stroke-width="1" stroke-opacity="0"></use></g></g><g><use xlink:href="#bCjzaAs8F" opacity="1" fill="#ecd9cb" fill-opacity="1"></use><g><use xlink:href="#bCjzaAs8F" opacity="1" fill-opacity="0" stroke="#000000" stroke-width="1" stroke-opacity="0"></use></g></g><g><use xlink:href="#gjIkZP63D" opacity="1" fill="#2c1800" fill-opacity="1"></use><g><use xlink:href="#gjIkZP63D" opacity="1" fill-opacity="0" stroke="#000000" stroke-width="1" stroke-opacity="0"></use></g></g><g><use xlink:href="#c1uVDKWWB3" opacity="1" fill="#262626" fill-opacity="1"></use><g><use xlink:href="#c1uVDKWWB3" opacity="1" fill-opacity="0" stroke="#000000" stroke-width="1" stroke-opacity="0"></use></g></g><g><use xlink:href="#bvVrqpEMM" opacity="1" fill="#000000" fill-opacity="1"></use><g><use xlink:href="#bvVrqpEMM" opacity="1" fill-opacity="0" stroke="#000000" stroke-width="1" stroke-opacity="0"></use></g></g><g><use xlink:href="#aXgR0m0SU" opacity="1" fill="#000000" fill-opacity="1"></use><g><use xlink:href="#aXgR0m0SU" opacity="1" fill-opacity="0" stroke="#000000" stroke-width="1" stroke-opacity="0"></use></g></g><g><use xlink:href="#a25OdqGwQW" opacity="1" fill="#918a85" fill-opacity="1"></use><g><use xlink:href="#a25OdqGwQW" opacity="1" fill-opacity="0" stroke="#000000" stroke-width="1" stroke-opacity="0"></use></g></g><g><use xlink:href="#gbSPzX14g" opacity="1" fill="#5c524a" fill-opacity="1"></use><g><use xlink:href="#gbSPzX14g" opacity="1" fill-opacity="0" stroke="#000000" stroke-width="1" stroke-opacity="0"></use></g></g><g><use xlink:href="#c1LikA1270" opacity="1" fill="#ebe8db" fill-opacity="1"></use><g><use xlink:href="#c1LikA1270" opacity="1" fill-opacity="0" stroke="#000000" stroke-width="1" stroke-opacity="0"></use></g></g><g><use xlink:href="#a3e2hYFiGS" opacity="1" fill="#a8633a" fill-opacity="1"></use><g><use xlink:href="#a3e2hYFiGS" opacity="1" fill-opacity="0" stroke="#000000" stroke-width="1" stroke-opacity="0"></use></g></g><g><use xlink:href="#b18p5R0OYE" opacity="1" fill="#cc8e58" fill-opacity="1"></use><g><use xlink:href="#b18p5R0OYE" opacity="1" fill-opacity="0" stroke="#000000" stroke-width="1" stroke-opacity="0"></use></g></g><g><use xlink:href="#h7AQvzD7xn" opacity="1" fill="#a8633a" fill-opacity="1"></use><g><use xlink:href="#h7AQvzD7xn" opacity="1" fill-opacity="0" stroke="#000000" stroke-width="1" stroke-opacity="0"></use></g></g><g><use xlink:href="#d1SGN67OfL" opacity="1" fill="#a8633a" fill-opacity="1"></use><g><use xlink:href="#d1SGN67OfL" opacity="1" fill-opacity="0" stroke="#000000" stroke-width="1" stroke-opacity="0"></use></g></g><g><use xlink:href="#a23cZoRkye" opacity="1" fill="#ebe8db" fill-opacity="1"></use><g><use xlink:href="#a23cZoRkye" opacity="1" fill-opacity="0" stroke="#000000" stroke-width="1" stroke-opacity="0"></use></g></g><g><use xlink:href="#a1QnjllLef" opacity="1" fill="#a8633a" fill-opacity="1"></use><g><use xlink:href="#a1QnjllLef" opacity="1" fill-opacity="0" stroke="#000000" stroke-width="1" stroke-opacity="0"></use></g></g><g><use xlink:href="#aRf4GJpKI" opacity="1" fill="#5d2900" fill-opacity="1"></use><g><use xlink:href="#aRf4GJpKI" opacity="1" fill-opacity="0" stroke="#000000" stroke-width="1" stroke-opacity="0"></use></g></g><g><use xlink:href="#a6bsb8Ekwj" opacity="1" fill="#5d2900" fill-opacity="1"></use><g><use xlink:href="#a6bsb8Ekwj" opacity="1" fill-opacity="0" stroke="#000000" stroke-width="1" stroke-opacity="0"></use></g></g><g><use xlink:href="#beybkSf3i" opacity="1" fill="#a8633a" fill-opacity="1"></use><g><use xlink:href="#beybkSf3i" opacity="1" fill-opacity="0" stroke="#000000" stroke-width="1" stroke-opacity="0"></use></g></g><g><use xlink:href="#g8J1yyjBj" opacity="1" fill="#a8633a" fill-opacity="1"></use><g><use xlink:href="#g8J1yyjBj" opacity="1" fill-opacity="0" stroke="#000000" stroke-width="1" stroke-opacity="0"></use></g></g><g><use xlink:href="#a1LtBERBjU" opacity="1" fill="#cc8e58" fill-opacity="1"></use><g><use xlink:href="#a1LtBERBjU" opacity="1" fill-opacity="0" stroke="#000000" stroke-width="1" stroke-opacity="0"></use></g></g><g><use xlink:href="#f26qgixlUI" opacity="1" fill="#807664" fill-opacity="1"></use><g><use xlink:href="#f26qgixlUI" opacity="1" fill-opacity="0" stroke="#000000" stroke-width="1" stroke-opacity="0"></use></g></g><g><use xlink:href="#eAf17NHDQ" opacity="1" fill="#dbd5c3" fill-opacity="1"></use><g><use xlink:href="#eAf17NHDQ" opacity="1" fill-opacity="0" stroke="#000000" stroke-width="1" stroke-opacity="0"></use></g></g><g><use xlink:href="#a3ICCBpM1j" opacity="1" fill="#dbd5c3" fill-opacity="1"></use><g><use xlink:href="#a3ICCBpM1j" opacity="1" fill-opacity="0" stroke="#000000" stroke-width="1" stroke-opacity="0"></use></g></g><g><use xlink:href="#anUXtsHpt" opacity="1" fill="#d6b795" fill-opacity="1"></use><g><use xlink:href="#anUXtsHpt" opacity="1" fill-opacity="0" stroke="#000000" stroke-width="1" stroke-opacity="0"></use></g></g><g><use xlink:href="#c45yXsAzxI" opacity="1" fill="#cfc7af" fill-opacity="1"></use><g><use xlink:href="#c45yXsAzxI" opacity="1" fill-opacity="0" stroke="#000000" stroke-width="1" stroke-opacity="0"></use></g></g><g><use xlink:href="#c24v3yJYoo" opacity="1" fill="#dbd5c3" fill-opacity="1"></use><g><use xlink:href="#c24v3yJYoo" opacity="1" fill-opacity="0" stroke="#000000" stroke-width="1" stroke-opacity="0"></use></g></g><g><use xlink:href="#apVV8Pa6D" opacity="1" fill="#cfc7af" fill-opacity="1"></use><g><use xlink:href="#apVV8Pa6D" opacity="1" fill-opacity="0" stroke="#000000" stroke-width="1" stroke-opacity="0"></use></g></g><g><use xlink:href="#a9K5iUhAah" opacity="1" fill="#2c1800" fill-opacity="1"></use><g><use xlink:href="#a9K5iUhAah" opacity="1" fill-opacity="0" stroke="#000000" stroke-width="1" stroke-opacity="0"></use></g></g><g><use xlink:href="#d4dcdxJqsl" opacity="1" fill="#4d2f00" fill-opacity="1"></use><g><use xlink:href="#d4dcdxJqsl" opacity="1" fill-opacity="0" stroke="#000000" stroke-width="1" stroke-opacity="0"></use></g></g><g><use xlink:href="#n9dtnxFnGX" opacity="1" fill="#2c1800" fill-opacity="1"></use><g><use xlink:href="#n9dtnxFnGX" opacity="1" fill-opacity="0" stroke="#000000" stroke-width="1" stroke-opacity="0"></use></g></g><g><use xlink:href="#cWE8sZxhu" opacity="1" fill="#ecd9cb" fill-opacity="1"></use><g><use xlink:href="#cWE8sZxhu" opacity="1" fill-opacity="0" stroke="#000000" stroke-width="1" stroke-opacity="0"></use></g></g><g><use xlink:href="#avs8bCKfM" opacity="1" fill="#d9aa8b" fill-opacity="1"></use><g><use xlink:href="#avs8bCKfM" opacity="1" fill-opacity="0" stroke="#000000" stroke-width="1" stroke-opacity="0"></use></g></g><g><use xlink:href="#aslpceehW" opacity="1" fill="#cc8e58" fill-opacity="1"></use><g><use xlink:href="#aslpceehW" opacity="1" fill-opacity="0" stroke="#000000" stroke-width="1" stroke-opacity="0"></use></g></g><g><use xlink:href="#apOVU3Qyw" opacity="1" fill="#cc8e58" fill-opacity="1"></use><g><use xlink:href="#apOVU3Qyw" opacity="1" fill-opacity="0" stroke="#000000" stroke-width="1" stroke-opacity="0"></use></g></g><g><use xlink:href="#b3xTJgidlO" opacity="1" fill="#cc8e58" fill-opacity="1"></use><g><use xlink:href="#b3xTJgidlO" opacity="1" fill-opacity="0" stroke="#000000" stroke-width="1" stroke-opacity="0"></use></g></g></g></g></svg>