<?xml version="1.0" encoding="UTF-8" standalone="no"?>
<!DOCTYPE svg PUBLIC "-//W3C//DTD SVG 1.1//EN" "http://www.w3.org/Graphics/SVG/1.1/DTD/svg11.dtd">
<svg version="1.1" xmlns="http://www.w3.org/2000/svg" xmlns:xlink="http://www.w3.org/1999/xlink" preserveAspectRatio="xMidYMid meet" viewBox="0 0 300 100" width="300" height="100"><defs><path d="M109.43 36.5L110.26 36.71L111.05 36.93L111.8 37.16L112.51 37.38L113.19 37.62L113.83 37.86L114.43 38.1L114.99 38.34L115.52 38.6L116.01 38.85L116.46 39.11L116.87 39.37L117.24 39.64L117.58 39.92L117.88 40.2L118.31 40.65L118.71 41.11L119.09 41.59L119.44 42.09L119.76 42.61L120.06 43.14L120.33 43.69L120.58 44.26L120.8 44.84L120.99 45.44L121.16 46.05L121.3 46.68L121.42 47.33L121.51 48L121.57 48.68L121.61 49.37L121.62 50.09L121.61 50.8L121.57 51.5L121.51 52.18L121.42 52.84L121.3 53.49L121.16 54.12L120.99 54.73L120.8 55.33L120.58 55.9L120.33 56.47L120.06 57.02L119.76 57.55L119.44 58.06L119.09 58.56L118.71 59.04L118.31 59.51L117.88 59.96L117.39 60.42L116.88 60.86L116.36 61.27L115.83 61.65L115.28 62.01L114.72 62.33L114.15 62.63L113.56 62.9L112.96 63.14L112.35 63.35L111.72 63.54L111.08 63.69L110.42 63.82L109.75 63.92L109.07 63.99L108.37 64.03L107.66 64.05L100.23 64.05L100.23 36.1L107.66 36.08L108.57 36.29L109.43 36.5ZM105.83 58.44L107.71 58.44L109.32 58.32L110.79 57.97L112.11 57.39L113.26 56.61L114.23 55.63L115 54.47L115.57 53.15L115.92 51.68L116.04 50.06L115.92 48.45L115.55 46.97L114.97 45.65L114.19 44.49L113.21 43.51L112.05 42.72L110.73 42.14L109.25 41.78L107.64 41.66L105.83 41.66L105.83 58.44Z" id="d1YAIn6dB5"></path><path d="M138.54 35.91L139.2 35.99L139.85 36.09L140.49 36.22L141.11 36.38L141.72 36.56L142.32 36.78L142.91 37.03L143.49 37.3L144.06 37.61L144.61 37.94L145.16 38.3L145.69 38.69L146.21 39.12L146.71 39.57L147.21 40.05L147.69 40.54L148.13 41.05L148.55 41.57L148.94 42.1L149.31 42.64L149.64 43.2L149.94 43.77L150.22 44.35L150.47 44.94L150.69 45.54L150.87 46.15L151.04 46.78L151.17 47.42L151.27 48.07L151.34 48.73L151.39 49.4L151.4 50.09L151.39 50.77L151.34 51.45L151.27 52.11L151.17 52.76L151.04 53.4L150.88 54.02L150.69 54.64L150.48 55.24L150.23 55.83L149.95 56.4L149.65 56.97L149.32 57.52L148.95 58.06L148.56 58.59L148.14 59.11L147.69 59.61L147.21 60.1L146.71 60.58L146.21 61.02L145.69 61.43L145.16 61.82L144.61 62.17L144.06 62.5L143.49 62.8L142.91 63.07L142.32 63.31L141.72 63.53L141.11 63.71L140.49 63.87L139.85 63.99L139.2 64.09L138.54 64.16L137.87 64.21L137.19 64.22L136.51 64.21L135.83 64.16L135.17 64.09L134.52 63.99L133.89 63.86L133.26 63.7L132.65 63.52L132.04 63.3L131.45 63.06L130.88 62.79L130.31 62.49L129.76 62.16L129.22 61.81L128.69 61.42L128.17 61.01L127.67 60.57L127.18 60.1L126.7 59.61L126.25 59.1L125.84 58.58L125.45 58.05L125.09 57.51L124.76 56.95L124.45 56.39L124.18 55.81L123.93 55.22L123.72 54.62L123.53 54L123.37 53.38L123.24 52.74L123.14 52.1L123.07 51.44L123.03 50.77L123.01 50.09L123.03 49.41L123.07 48.74L123.14 48.08L123.24 47.43L123.37 46.79L123.53 46.17L123.72 45.56L123.93 44.95L124.18 44.36L124.45 43.78L124.76 43.22L125.09 42.66L125.45 42.11L125.84 41.58L126.25 41.06L126.7 40.55L127.18 40.05L127.67 39.57L128.18 39.12L128.7 38.7L129.23 38.31L129.77 37.95L130.33 37.62L130.9 37.31L131.47 37.04L132.06 36.79L132.66 36.57L133.28 36.38L133.9 36.22L134.54 36.09L135.18 35.99L135.84 35.91L136.51 35.87L137.19 35.86L137.87 35.87L138.54 35.91ZM135.81 41.62L135.15 41.75L134.52 41.92L133.9 42.15L133.31 42.42L132.74 42.74L132.2 43.12L131.67 43.54L131.17 44.01L130.69 44.53L130.27 45.06L129.9 45.62L129.57 46.19L129.29 46.78L129.07 47.4L128.89 48.03L128.77 48.68L128.69 49.35L128.66 50.04L128.69 50.73L128.77 51.41L128.89 52.06L129.07 52.7L129.29 53.31L129.57 53.9L129.9 54.47L130.27 55.03L130.69 55.55L131.17 56.06L131.68 56.54L132.21 56.96L132.76 57.33L133.33 57.65L133.92 57.93L134.53 58.15L135.17 58.32L135.82 58.44L136.5 58.52L137.19 58.54L137.88 58.52L138.55 58.44L139.2 58.32L139.83 58.15L140.44 57.93L141.02 57.65L141.59 57.33L142.15 56.96L142.68 56.54L143.19 56.06L143.67 55.55L144.1 55.03L144.48 54.47L144.8 53.9L145.08 53.31L145.3 52.7L145.48 52.06L145.6 51.41L145.67 50.73L145.7 50.04L145.67 49.35L145.6 48.68L145.47 48.03L145.3 47.4L145.07 46.78L144.79 46.19L144.47 45.62L144.09 45.06L143.67 44.53L143.19 44.01L142.69 43.54L142.16 43.11L141.61 42.74L141.04 42.41L140.44 42.14L139.83 41.91L139.2 41.74L138.55 41.61L137.88 41.53L137.19 41.51L136.49 41.54L135.81 41.62Z" id="bZSXcTbWx"></path><path d="M176.96 40.05C176.56 40.45 173.35 43.66 172.95 44.06C171.24 42.38 169.25 41.56 166.95 41.56C164.59 41.56 162.61 42.4 160.95 44.06C159.29 45.72 158.44 47.73 158.44 50.09C158.44 52.44 159.29 54.45 160.95 56.11C162.58 57.77 164.59 58.62 166.95 58.62C170.57 58.62 173.39 56.36 174.61 53.73C174.08 53.73 171.41 53.73 166.62 53.73L166.62 48.33C175.25 48.33 180.05 48.33 181.01 48.33C181.4 53.56 179.69 57.35 176.94 60.08C174.16 62.83 170.81 64.22 166.92 64.22C162.98 64.22 159.66 62.83 156.93 60.08C154.13 57.35 152.74 54.01 152.74 50.06C152.74 46.17 154.13 42.82 156.91 40.02C159.66 37.24 162.98 35.83 166.9 35.83C166.9 35.84 166.91 35.86 166.92 35.91C172.1 37.18 175.44 38.56 176.96 40.05Z" id="a1ThCpg7Mb"></path><path d="M200.34 41.61L189.11 41.61L189.11 47.24L197.54 47.24L197.54 52.84L189.11 52.84L189.11 58.49L200.34 58.49L200.34 64.07L183.48 64.07L183.48 36L200.34 36L200.34 41.61Z" id="c3beFcu8Wu"></path><path d="M205.9 60.1C203.12 57.33 201.73 53.98 201.73 50.09C201.73 46.2 203.12 42.85 205.9 40.05C208.68 37.27 212.02 35.86 215.89 35.86C215.89 35.86 215.87 35.92 215.87 35.93C220.18 35.93 223.6 37.84 225.93 40.07C225.53 40.47 222.32 43.66 221.92 44.06C220.23 42.4 218.22 41.56 215.89 41.56C213.54 41.56 211.53 42.4 209.89 44.06C208.23 45.75 207.39 47.76 207.39 50.09C207.39 52.44 208.23 54.45 209.89 56.11C211.55 57.77 213.54 58.59 215.89 58.59C218.25 58.59 220.25 57.75 221.92 56.09C222.32 56.49 225.53 59.7 225.93 60.1C223.65 62.36 220.25 64.22 215.89 64.22C211.97 64.22 208.65 62.83 205.9 60.1Z" id="aIgkoqg5P"></path><path d="M246.21 64.02L244.33 59.78L234.76 59.78L232.88 64.02L226.8 64.02L239.52 35.51L252.29 64.02L246.21 64.02ZM242.07 54.82L239.52 48.92L236.94 54.82L242.07 54.82Z" id="a1gWvWYyk"></path><path d="M264.39 55.67C264.39 53.11 260.97 52.77 259.03 52.1C255.64 50.93 252.61 48.13 252.61 44.34C252.61 39.62 256.43 35.83 261.14 35.83C265.43 35.83 269 39.03 269.57 43.17C269.01 43.29 264.55 44.24 263.99 44.36C263.99 42.82 262.7 41.53 261.17 41.53C259.6 41.53 258.31 42.82 258.31 44.39C258.31 46.91 261.51 47.58 263.45 48.15C266.97 49.17 270.09 51.85 270.09 55.74C270.09 60.45 265.85 64.27 261.17 64.27C256.85 64.27 252.93 61.1 252.29 56.93C252.85 56.81 257.31 55.86 257.87 55.74C257.87 57.3 259.55 58.57 261.14 58.57C261.14 58.56 261.13 58.55 261.12 58.52C263.3 57.66 264.39 56.71 264.39 55.67Z" id="d2GrO6JPoF"></path><path d="M278.1 47.26L287.45 47.26L287.45 36.08L293.05 36.08L293.05 64.02L287.45 64.02L287.45 52.82L278.1 52.82L278.1 64.02L272.5 64.02L272.5 36.08L278.1 36.08L278.1 47.26Z" id="czDrPfdZ5"></path><path d="M83.02 6.18L77.04 9.35L66.98 17.29L66.98 17.29L61.89 15.82L56.39 14.86L48.11 15.82L39.83 14.86L34.32 15.82L29.24 17.29L29.24 17.29L19.17 9.35L13.2 6.18L9.01 7.29L6.95 10.37L6.95 17.88L6.95 22.22L8.41 27.15L8.56 32.06L11.81 38.56L12.03 45.38L10.54 53.04L9.83 62.46L13.49 68.41L19.25 73.3L20.49 74.36L25.05 83.86L32.14 88.92L32.14 88.92L34.77 90.78L48.11 93.58L48.11 93.58L48.11 93.58L48.11 93.58L48.11 93.58L61.45 90.78L64.08 88.92L71.17 83.86L75.73 74.36L76.99 73.3L82.72 68.41L86.39 62.46L85.67 53.04L84.18 45.38L84.41 38.56L87.65 32.06L87.8 27.15L89.27 22.22L89.27 17.88L89.27 10.37L87.21 7.29L83.02 6.18Z" id="aZx9NyKbL"></path><path d="M61.25 32.96L59.61 26.26L48.11 38.98L39.83 29.83L39.83 29.83L36.6 26.26L34.97 32.96L31.07 33.62L28 36.85L29.64 41.51L30.55 39.03L34.92 37.47L37.89 41.61L37.97 44.48L37.97 44.48L34.77 54.95L33.18 63.18L41.51 54.48L45.85 53.04L48.11 39L50.36 53.04L54.7 54.48L63.03 63.18L61.45 54.95L58.25 44.48L58.25 44.48L58.32 41.61L61.3 37.47L65.66 39.03L66.58 41.51L68.22 36.85L65.14 33.62L61.25 32.96Z" id="b5XWrHezbA"></path><path d="M18.87 12.13L12.53 10.22L10.05 10.81L9.08 14.93L9.08 22.37L12.48 28.39L18.38 32.06L24.23 27L24.83 18.82L18.87 12.13Z" id="f2kWF7C"></path><path d="M46.6 22.79L48.11 23.01L48.11 37.47L46.6 22.79Z" id="b60StPI7Y"></path><path d="M29.24 17.29L19.17 9.35L13.2 6.18L9.01 7.29L6.95 10.37L6.95 17.88L9.08 19.42L9.08 14.93L10.05 10.81L12.53 10.22L18.87 12.13L24.83 18.82L24.23 27L18.38 32.06L14.54 44.48L21.73 47.31L27.53 41.04L29.64 41.51L28 36.85L30.11 34.64L31.07 33.62L34.97 32.96L36.6 26.26L40.4 25.96L43.59 22.79L46.27 26.71L48.11 38.98L48.11 18.82L34.92 16.99L29.24 17.29Z" id="g3cJNYquk"></path><path d="M12.7 59.19L16.97 49.24L21.73 47.31L14.54 44.48L32.66 19.42L24.23 27L18.38 32.06L11.81 38.56L10.54 53.04L9.83 62.46L13.49 68.41L12.7 59.19Z" id="c5BOZNXGRZ"></path><path d="M36.6 26.26L34.97 32.96L31.07 33.62L29.78 34.99L30.21 32.36L36.6 26.26Z" id="j1nshUcNa5"></path><path d="M30.21 71.29L26.36 57.6L28.45 50.53L27.53 44.48L34.77 54.95L39.83 52.67L45.85 53.04L45.36 56.48L41.17 58.49L39.83 61.79L40.5 64.74L41.71 66.11L38.74 73.44L35.31 73.44L32.66 69.87L32.66 72.45L34.77 75.23L30.21 71.29Z" id="aE3JT2WGU"></path><path d="M24.83 18.82L29.64 20.46L32.66 19.42L24.23 27L24.83 18.82Z" id="c2MZvRrdG"></path><path d="M24.23 27L24.83 18.82L21.5 15.18L23.51 19.86L24.23 27Z" id="dAKKIb84E"></path><path d="M8.56 32.06L6.95 22.22L6.95 17.88L9.08 19.42L9.08 22.37L12.48 28.39L18.38 32.06L11.81 38.56L8.56 32.06Z" id="c2XDaJiXZH"></path><path d="M29.64 37.99L35.69 35.21L34.92 37.47L30.55 39.03L29.64 41.51L29.64 37.99Z" id="f9iW5jTR3I"></path><path d="M31.5 44.31L29.64 41.51L27.53 41.04L26.36 42.3L27.53 44.48L28.72 46.2L34.77 54.95L37.97 44.48L35.09 45.38L31.5 44.31Z" id="b6upbAsJG"></path><path d="M37.62 76.02L34.77 75.23L30.21 71.29L28.84 66.48L23.16 73.44L20.49 74.36L25.05 83.86L32.14 88.92L37.62 86.14L42.85 83.49L39.28 81.85L37.62 76.02Z" id="b2fpRq3Sv3"></path><path d="M77.34 12.13L83.69 10.22L86.17 10.81L87.13 14.93L87.13 22.37L83.74 28.39L77.84 32.06L71.98 27L71.39 18.82L77.34 12.13Z" id="b2RIAtNPNN"></path><path d="M58.32 41.61L61.3 37.47L65.66 39.03L66.58 41.51L64.72 44.31L61.12 45.38L58.32 44.48L58.32 41.61Z" id="aT9cpg02C"></path><path d="M64.87 40.24C64.89 40.37 64.89 40.49 64.89 40.64C64.89 42.28 63.65 43.59 62.12 43.59C60.58 43.59 59.34 42.28 59.34 40.64C59.34 40.62 59.34 40.59 59.34 40.57C59.76 41.68 60.83 42.45 62.07 42.45C63.43 42.45 64.57 41.51 64.87 40.24Z" id="a21xsOJISL"></path><path d="M59.34 40.57C59.39 38.98 60.6 37.69 62.12 37.69C63.53 37.69 64.69 38.81 64.87 40.24C64.57 41.51 63.43 42.45 62.07 42.45C60.83 42.45 59.76 41.66 59.34 40.57Z" id="a3cPCHNonO"></path><path d="M64.72 40.29C64.72 40.29 64.17 38.81 62.02 39.13C62.02 39.13 63.11 40.07 63.28 40.74C63.57 40.65 64.58 40.34 64.72 40.29Z" id="e1nGjhh0c"></path><path d="M49.62 22.79L48.11 23.01L48.11 37.47L49.62 22.79Z" id="at9hAGXuB"></path><path d="M50.86 56.48L48.11 56.48L48.11 56.48L45.36 56.48L41.17 58.49L39.83 61.79L40.5 64.74L43.97 68.63L48.11 69.87L48.11 69.87L48.11 69.87L48.11 69.87L48.11 69.87L52.25 68.63L55.72 64.74L56.39 61.79L55.05 58.49L50.86 56.48Z" id="a4i52bOCrN"></path><path d="M51.41 64.52L53.29 64.52L54.68 62.04L52 60.13L48.11 59.34L48.11 59.34L48.11 59.34L48.11 59.34L48.11 59.34L44.21 60.13L41.54 62.04L42.93 64.52L44.81 64.52L46.27 64L45.01 65.66L41.71 66.11L43.97 68.63L48.11 69.87L48.11 69.87L48.11 69.87L48.11 69.87L48.11 69.87L52.25 68.63L54.5 66.11L51.21 65.66L49.94 64L51.41 64.52Z" id="i4t6tPPTH4"></path><path d="M57.48 73.44L48.11 71.36L48.11 71.36L48.11 71.36L48.11 71.36L48.11 71.36L38.74 73.44L35.31 73.44L32.66 69.87L32.66 72.45L34.77 75.23L38.74 76.32L43.97 73.89L48.11 75.11L48.11 75.11L48.11 75.11L48.11 75.11L48.11 75.11L52.25 73.89L57.48 76.32L61.45 75.23L63.55 72.45L63.55 69.87L60.9 73.44L57.48 73.44Z" id="olYRN3aSl"></path><path d="M52.25 73.89L48.11 75.11L43.97 73.89L38.74 76.32L43.97 79.15L48.11 79.97L48.11 79.97L48.11 79.97L48.11 79.97L48.11 79.97L52.25 79.15L57.48 76.32L52.25 73.89Z" id="b12oWEKWQ3"></path><path d="M54.5 66.11L52.25 68.63L48.11 69.87L43.97 68.63L41.71 66.11L38.74 73.44L48.11 71.36L57.48 73.44L54.5 66.11Z" id="cfndHACbu"></path><path d="M52.25 79.15L48.11 79.97L43.97 79.15L38.74 76.32L37.62 76.02L39.28 81.85L44.81 84.38L48.11 85.27L48.11 85.27L48.11 85.27L48.11 85.27L48.11 85.27L51.41 84.38L56.93 81.85L58.6 76.02L57.48 76.32L52.25 79.15Z" id="dnxg9vfpt"></path><path d="M66.98 17.29L77.04 9.35L83.02 6.18L87.21 7.29L89.27 10.37L89.27 17.88L87.13 19.42L87.13 14.93L86.17 10.81L83.69 10.22L77.34 12.13L71.39 18.82L71.98 27L77.84 32.06L81.68 44.48L74.49 47.31L68.69 41.04L66.58 41.51L68.22 36.85L66.11 34.64L65.14 33.62L61.25 32.96L59.61 26.26L55.82 25.96L52.62 22.79L49.94 26.71L48.11 38.98L48.11 18.82L61.3 16.99L66.98 17.29Z" id="aD88Sdh2Z"></path><path d="M83.51 59.19L79.25 49.24L74.49 47.31L81.68 44.48L63.55 19.42L71.98 27L77.84 32.06L84.41 38.56L85.67 53.04L86.39 62.46L82.72 68.41L83.51 59.19Z" id="d1OWyI2qO"></path><path d="M61.89 15.82L56.39 14.86L48.11 15.82L39.83 14.86L34.32 15.82L29.24 17.29L34.92 16.99L48.11 18.82L48.11 18.82L48.11 18.82L48.11 18.82L48.11 18.82L61.3 16.99L66.98 17.29L61.89 15.82Z" id="g7krlzRFmb"></path><path d="M59.61 26.26L61.25 32.96L65.14 33.62L66.43 34.99L66.01 32.36L59.61 26.26Z" id="aa0OvWJht"></path><path d="M66.01 71.29L69.85 57.6L67.77 50.53L68.69 44.48L61.45 54.95L56.39 52.67L50.36 53.04L50.86 56.48L55.05 58.49L56.39 61.79L55.72 64.74L54.5 66.11L57.48 73.44L60.9 73.44L63.55 69.87L63.55 72.45L61.45 75.23L66.01 71.29Z" id="e37XsRJdG"></path><path d="M59.61 26.26L55.82 25.96L52.62 22.79L53.22 20.24L48.11 18.82L48.11 18.82L48.11 18.82L48.11 18.82L48.11 18.82L43 20.24L43.59 22.79L40.4 25.96L36.6 26.26L48.11 38.98L48.11 38.98L48.11 38.98L48.11 38.98L48.11 38.98L59.61 26.26Z" id="dFCZpF5Zh"></path><path d="M71.39 18.82L66.58 20.46L63.55 19.42L71.98 27L71.39 18.82Z" id="c5b44bHFTW"></path><path d="M71.98 27L71.39 18.82L74.71 15.18L72.7 19.86L71.98 27Z" id="a1765KAu1l"></path><path d="M87.65 32.06L89.27 22.22L89.27 17.88L87.13 19.42L87.13 22.37L83.74 28.39L77.84 32.06L84.41 38.56L87.65 32.06Z" id="f4OVpsJNEz"></path><path d="M66.58 37.99L60.53 35.21L61.3 37.47L65.66 39.03L66.58 41.51L66.58 37.99Z" id="a614KIS2Nm"></path><path d="M56.39 29.83L48.11 38.98L54.63 42.08L56.39 29.83Z" id="aLEiEpLkk"></path><path d="M53.36 83.49L51.41 84.38L48.11 85.27L44.81 84.38L42.85 83.49L32.14 88.92L34.77 90.78L48.11 93.58L48.11 93.58L48.11 93.58L48.11 93.58L48.11 93.58L61.45 90.78L64.08 88.92L53.36 83.49Z" id="b2QNPNW7k"></path><path d="M21.73 47.31L16.97 49.24L12.7 59.19L13.49 68.41L19.25 73.3L19.25 67.02L21.18 61.39L25.1 54.08L24.83 43.91L23.66 45.2L21.73 47.31Z" id="aSkVxs89B"></path><path d="M74.49 47.31L72.55 45.2L71.39 43.91L71.12 54.08L75.03 61.39L76.99 67.02L76.99 73.3L82.72 68.41L83.51 59.19L79.25 49.24L74.49 47.31Z" id="a294TaGxsi"></path><path d="M66.58 41.51L64.72 44.31L61.12 45.38L58.25 44.48L61.45 54.95L67.5 46.2L68.69 44.48L69.85 42.3L68.69 41.04L66.58 41.51Z" id="g3uPh2au6t"></path><path d="M69.85 42.3L68.69 44.48L67.77 50.53L69.85 57.6L67.37 66.48L73.05 73.44L75.73 74.36L80.98 69.87L71.39 43.91L69.85 42.3Z" id="bIigJk5Vt"></path><path d="M67.37 66.48L66.01 71.29L61.45 75.23L58.6 76.02L56.93 81.85L53.36 83.49L58.6 86.14L64.08 88.92L71.17 83.86L75.73 74.36L73.05 73.44L67.37 66.48Z" id="c2d0bEnv7j"></path><path d="M26.36 42.3L27.53 44.48L28.45 50.53L26.36 57.6L28.84 66.48L23.16 73.44L20.49 74.36L15.23 69.87L24.83 43.91L26.36 42.3Z" id="b1UfGS1QQo"></path><path d="M37.89 41.61L34.92 37.47L30.55 39.03L29.64 41.51L31.5 44.31L35.09 45.38L37.89 44.48L37.89 41.61Z" id="a1bVgZvOyp"></path><path d="M31.35 40.24C31.32 40.37 31.32 40.49 31.32 40.64C31.32 42.28 32.56 43.59 34.1 43.59C35.64 43.59 36.88 42.28 36.88 40.64C36.88 40.62 36.88 40.59 36.88 40.57C36.45 41.68 35.39 42.45 34.15 42.45C32.78 42.45 31.64 41.51 31.35 40.24Z" id="aceNLd8Pu"></path><path d="M36.88 40.57C36.83 38.98 35.61 37.69 34.1 37.69C32.69 37.69 31.52 38.81 31.35 40.24C31.64 41.51 32.78 42.45 34.15 42.45C35.39 42.45 36.45 41.66 36.88 40.57Z" id="b91r3mkXO"></path><path d="M31.5 40.29C31.5 40.29 32.04 38.81 34.2 39.13C34.2 39.13 33.11 40.07 32.93 40.74C32.65 40.65 31.64 40.34 31.5 40.29Z" id="a3SPQhpsRY"></path><path d="M48.11 38.98L45.36 56.48L48.11 56.48L48.11 56.48L50.86 56.48L48.11 38.98L48.11 38.98Z" id="dSgNHoq8"></path><path d="M77.84 76.59C77.95 76.59 78.84 76.59 78.95 76.59C78.95 76.72 78.95 76.82 78.95 76.94C78.93 76.94 78.8 76.94 78.58 76.94C78.58 77.62 78.58 78 78.58 78.08C78.46 78.08 78.33 78.08 78.21 78.08C78.21 78 78.21 77.62 78.21 76.94L77.84 76.94C77.84 76.79 77.84 76.68 77.84 76.59Z" id="bx5AkjVp"></path><path d="M80.61 76.62C80.61 77.51 80.61 78.01 80.61 78.11C80.49 78.11 80.37 78.11 80.22 78.11C80.22 78.06 80.22 77.84 80.22 77.44L79.89 77.76L79.84 77.76L79.52 77.44C79.52 77.84 79.52 78.06 79.52 78.11C79.4 78.11 79.27 78.11 79.13 78.11C79.13 78.01 79.13 77.51 79.13 76.62L79.27 76.62L79.84 77.26L80.49 76.62L80.61 76.62Z" id="bnMuZU6MR"></path><path d="M80.94 75.62L81.46 76.39L81.65 77.34L81.46 78.28L80.94 79.05L80.17 79.58L79.22 79.77L78.28 79.58L77.51 79.05L76.99 78.28L76.79 77.34L76.99 76.39L77.51 75.62L78.28 75.1L79.22 74.91L80.17 75.1L80.94 75.62ZM77.71 75.83L77.26 76.51L77.09 77.34L77.26 78.16L77.72 78.84L78.4 79.3L79.22 79.47L80.06 79.3L80.74 78.84L81.19 78.16L81.36 77.34L81.19 76.51L80.74 75.83L80.06 75.37L79.22 75.2L78.39 75.37L77.71 75.83Z" id="asAHRcx9B"></path></defs><g><g><g><use xlink:href="#d1YAIn6dB5" opacity="1" fill="#703b1e" fill-opacity="1"></use><g><use xlink:href="#d1YAIn6dB5" opacity="1" fill-opacity="0" stroke="#000000" stroke-width="1" stroke-opacity="0"></use></g></g><g><use xlink:href="#bZSXcTbWx" opacity="1" fill="#703b1e" fill-opacity="1"></use><g><use xlink:href="#bZSXcTbWx" opacity="1" fill-opacity="0" stroke="#000000" stroke-width="1" stroke-opacity="0"></use></g></g><g><use xlink:href="#a1ThCpg7Mb" opacity="1" fill="#703b1e" fill-opacity="1"></use><g><use xlink:href="#a1ThCpg7Mb" opacity="1" fill-opacity="0" stroke="#000000" stroke-width="1" stroke-opacity="0"></use></g></g><g><use xlink:href="#c3beFcu8Wu" opacity="1" fill="#703b1e" fill-opacity="1"></use><g><use xlink:href="#c3beFcu8Wu" opacity="1" fill-opacity="0" stroke="#000000" stroke-width="1" stroke-opacity="0"></use></g></g><g><use xlink:href="#aIgkoqg5P" opacity="1" fill="#2a150a" fill-opacity="1"></use><g><use xlink:href="#aIgkoqg5P" opacity="1" fill-opacity="0" stroke="#000000" stroke-width="1" stroke-opacity="0"></use></g></g><g><use xlink:href="#a1gWvWYyk" opacity="1" fill="#2a150a" fill-opacity="1"></use><g><use xlink:href="#a1gWvWYyk" opacity="1" fill-opacity="0" stroke="#000000" stroke-width="1" stroke-opacity="0"></use></g></g><g><use xlink:href="#d2GrO6JPoF" opacity="1" fill="#2a150a" fill-opacity="1"></use><g><use xlink:href="#d2GrO6JPoF" opacity="1" fill-opacity="0" stroke="#000000" stroke-width="1" stroke-opacity="0"></use></g></g><g><use xlink:href="#czDrPfdZ5" opacity="1" fill="#2a150a" fill-opacity="1"></use><g><use xlink:href="#czDrPfdZ5" opacity="1" fill-opacity="0" stroke="#000000" stroke-width="1" stroke-opacity="0"></use></g></g><g><use xlink:href="#aZx9NyKbL" opacity="1" fill="#cc8e58" fill-opacity="1"></use><g><use xlink:href="#aZx9NyKbL" opacity="1" fill-opacity="0" stroke="#000000" stroke-width="1" stroke-opacity="0"></use></g></g><g><use xlink:href="#b5XWrHezbA" opacity="1" fill="#cc8e58" fill-opacity="1"></use><g><use xlink:href="#b5XWrHezbA" opacity="1" fill-opacity="0" stroke="#000000" stroke-width="1" stroke-opacity="0"></use></g></g><g><use xlink:href="#f2kWF7C" opacity="1" fill="#2d2113" fill-opacity="1"></use><g><use xlink:href="#f2kWF7C" opacity="1" fill-opacity="0" stroke="#000000" stroke-width="1" stroke-opacity="0"></use></g></g><g><use xlink:href="#b60StPI7Y" opacity="1" fill="#2c1800" fill-opacity="1"></use><g><use xlink:href="#b60StPI7Y" opacity="1" fill-opacity="0" stroke="#000000" stroke-width="1" stroke-opacity="0"></use></g></g><g><use xlink:href="#g3cJNYquk" opacity="1" fill="#a8633a" fill-opacity="1"></use><g><use xlink:href="#g3cJNYquk" opacity="1" fill-opacity="0" stroke="#000000" stroke-width="1" stroke-opacity="0"></use></g></g><g><use xlink:href="#c5BOZNXGRZ" opacity="1" fill="#cc8e58" fill-opacity="1"></use><g><use xlink:href="#c5BOZNXGRZ" opacity="1" fill-opacity="0" stroke="#000000" stroke-width="1" stroke-opacity="0"></use></g></g><g><use xlink:href="#j1nshUcNa5" opacity="1" fill="#a8633a" fill-opacity="1"></use><g><use xlink:href="#j1nshUcNa5" opacity="1" fill-opacity="0" stroke="#000000" stroke-width="1" stroke-opacity="0"></use></g></g><g><use xlink:href="#aE3JT2WGU" opacity="1" fill="#ebe8db" fill-opacity="1"></use><g><use xlink:href="#aE3JT2WGU" opacity="1" fill-opacity="0" stroke="#000000" stroke-width="1" stroke-opacity="0"></use></g></g><g><use xlink:href="#c2MZvRrdG" opacity="1" fill="#5d2900" fill-opacity="1"></use><g><use xlink:href="#c2MZvRrdG" opacity="1" fill-opacity="0" stroke="#000000" stroke-width="1" stroke-opacity="0"></use></g></g><g><use xlink:href="#dAKKIb84E" opacity="1" fill="#5d2900" fill-opacity="1"></use><g><use xlink:href="#dAKKIb84E" opacity="1" fill-opacity="0" stroke="#000000" stroke-width="1" stroke-opacity="0"></use></g></g><g><use xlink:href="#c2XDaJiXZH" opacity="1" fill="#a8633a" fill-opacity="1"></use><g><use xlink:href="#c2XDaJiXZH" opacity="1" fill-opacity="0" stroke="#000000" stroke-width="1" stroke-opacity="0"></use></g></g><g><use xlink:href="#f9iW5jTR3I" opacity="1" fill="#a8633a" fill-opacity="1"></use><g><use xlink:href="#f9iW5jTR3I" opacity="1" fill-opacity="0" stroke="#000000" stroke-width="1" stroke-opacity="0"></use></g></g><g><use xlink:href="#b6upbAsJG" opacity="1" fill="#d6b795" fill-opacity="1"></use><g><use xlink:href="#b6upbAsJG" opacity="1" fill-opacity="0" stroke="#000000" stroke-width="1" stroke-opacity="0"></use></g></g><g><use xlink:href="#b2fpRq3Sv3" opacity="1" fill="#dbd5c3" fill-opacity="1"></use><g><use xlink:href="#b2fpRq3Sv3" opacity="1" fill-opacity="0" stroke="#000000" stroke-width="1" stroke-opacity="0"></use></g></g><g><use xlink:href="#b2RIAtNPNN" opacity="1" fill="#2d2113" fill-opacity="1"></use><g><use xlink:href="#b2RIAtNPNN" opacity="1" fill-opacity="0" stroke="#000000" stroke-width="1" stroke-opacity="0"></use></g></g><g><use xlink:href="#aT9cpg02C" opacity="1" fill="#2c1800" fill-opacity="1"></use><g><use xlink:href="#aT9cpg02C" opacity="1" fill-opacity="0" stroke="#000000" stroke-width="1" stroke-opacity="0"></use></g></g><g><use xlink:href="#a21xsOJISL" opacity="1" fill="#4d2f00" fill-opacity="1"></use><g><use xlink:href="#a21xsOJISL" opacity="1" fill-opacity="0" stroke="#000000" stroke-width="1" stroke-opacity="0"></use></g></g><g><use xlink:href="#a3cPCHNonO" opacity="1" fill="#2c1800" fill-opacity="1"></use><g><use xlink:href="#a3cPCHNonO" opacity="1" fill-opacity="0" stroke="#000000" stroke-width="1" stroke-opacity="0"></use></g></g><g><use xlink:href="#e1nGjhh0c" opacity="1" fill="#ecd9cb" fill-opacity="1"></use><g><use xlink:href="#e1nGjhh0c" opacity="1" fill-opacity="0" stroke="#000000" stroke-width="1" stroke-opacity="0"></use></g></g><g><use xlink:href="#at9hAGXuB" opacity="1" fill="#2c1800" fill-opacity="1"></use><g><use xlink:href="#at9hAGXuB" opacity="1" fill-opacity="0" stroke="#000000" stroke-width="1" stroke-opacity="0"></use></g></g><g><use xlink:href="#a4i52bOCrN" opacity="1" fill="#262626" fill-opacity="1"></use><g><use xlink:href="#a4i52bOCrN" opacity="1" fill-opacity="0" stroke="#000000" stroke-width="1" stroke-opacity="0"></use></g></g><g><use xlink:href="#i4t6tPPTH4" opacity="1" fill="#000000" fill-opacity="1"></use><g><use xlink:href="#i4t6tPPTH4" opacity="1" fill-opacity="0" stroke="#000000" stroke-width="1" stroke-opacity="0"></use></g></g><g><use xlink:href="#olYRN3aSl" opacity="1" fill="#000000" fill-opacity="1"></use><g><use xlink:href="#olYRN3aSl" opacity="1" fill-opacity="0" stroke="#000000" stroke-width="1" stroke-opacity="0"></use></g></g><g><use xlink:href="#b12oWEKWQ3" opacity="1" fill="#918a85" fill-opacity="1"></use><g><use xlink:href="#b12oWEKWQ3" opacity="1" fill-opacity="0" stroke="#000000" stroke-width="1" stroke-opacity="0"></use></g></g><g><use xlink:href="#cfndHACbu" opacity="1" fill="#5c524a" fill-opacity="1"></use><g><use xlink:href="#cfndHACbu" opacity="1" fill-opacity="0" stroke="#000000" stroke-width="1" stroke-opacity="0"></use></g></g><g><use xlink:href="#dnxg9vfpt" opacity="1" fill="#ebe8db" fill-opacity="1"></use><g><use xlink:href="#dnxg9vfpt" opacity="1" fill-opacity="0" stroke="#000000" stroke-width="1" stroke-opacity="0"></use></g></g><g><use xlink:href="#aD88Sdh2Z" opacity="1" fill="#a8633a" fill-opacity="1"></use><g><use xlink:href="#aD88Sdh2Z" opacity="1" fill-opacity="0" stroke="#000000" stroke-width="1" stroke-opacity="0"></use></g></g><g><use xlink:href="#d1OWyI2qO" opacity="1" fill="#cc8e58" fill-opacity="1"></use><g><use xlink:href="#d1OWyI2qO" opacity="1" fill-opacity="0" stroke="#000000" stroke-width="1" stroke-opacity="0"></use></g></g><g><use xlink:href="#g7krlzRFmb" opacity="1" fill="#a8633a" fill-opacity="1"></use><g><use xlink:href="#g7krlzRFmb" opacity="1" fill-opacity="0" stroke="#000000" stroke-width="1" stroke-opacity="0"></use></g></g><g><use xlink:href="#aa0OvWJht" opacity="1" fill="#a8633a" fill-opacity="1"></use><g><use xlink:href="#aa0OvWJht" opacity="1" fill-opacity="0" stroke="#000000" stroke-width="1" stroke-opacity="0"></use></g></g><g><use xlink:href="#e37XsRJdG" opacity="1" fill="#ebe8db" fill-opacity="1"></use><g><use xlink:href="#e37XsRJdG" opacity="1" fill-opacity="0" stroke="#000000" stroke-width="1" stroke-opacity="0"></use></g></g><g><use xlink:href="#dFCZpF5Zh" opacity="1" fill="#a8633a" fill-opacity="1"></use><g><use xlink:href="#dFCZpF5Zh" opacity="1" fill-opacity="0" stroke="#000000" stroke-width="1" stroke-opacity="0"></use></g></g><g><use xlink:href="#c5b44bHFTW" opacity="1" fill="#5d2900" fill-opacity="1"></use><g><use xlink:href="#c5b44bHFTW" opacity="1" fill-opacity="0" stroke="#000000" stroke-width="1" stroke-opacity="0"></use></g></g><g><use xlink:href="#a1765KAu1l" opacity="1" fill="#5d2900" fill-opacity="1"></use><g><use xlink:href="#a1765KAu1l" opacity="1" fill-opacity="0" stroke="#000000" stroke-width="1" stroke-opacity="0"></use></g></g><g><use xlink:href="#f4OVpsJNEz" opacity="1" fill="#a8633a" fill-opacity="1"></use><g><use xlink:href="#f4OVpsJNEz" opacity="1" fill-opacity="0" stroke="#000000" stroke-width="1" stroke-opacity="0"></use></g></g><g><use xlink:href="#a614KIS2Nm" opacity="1" fill="#a8633a" fill-opacity="1"></use><g><use xlink:href="#a614KIS2Nm" opacity="1" fill-opacity="0" stroke="#000000" stroke-width="1" stroke-opacity="0"></use></g></g><g><use xlink:href="#aLEiEpLkk" opacity="1" fill="#cc8e58" fill-opacity="1"></use><g><use xlink:href="#aLEiEpLkk" opacity="1" fill-opacity="0" stroke="#000000" stroke-width="1" stroke-opacity="0"></use></g></g><g><use xlink:href="#b2QNPNW7k" opacity="1" fill="#807664" fill-opacity="1"></use><g><use xlink:href="#b2QNPNW7k" opacity="1" fill-opacity="0" stroke="#000000" stroke-width="1" stroke-opacity="0"></use></g></g><g><use xlink:href="#aSkVxs89B" opacity="1" fill="#dbd5c3" fill-opacity="1"></use><g><use xlink:href="#aSkVxs89B" opacity="1" fill-opacity="0" stroke="#000000" stroke-width="1" stroke-opacity="0"></use></g></g><g><use xlink:href="#a294TaGxsi" opacity="1" fill="#dbd5c3" fill-opacity="1"></use><g><use xlink:href="#a294TaGxsi" opacity="1" fill-opacity="0" stroke="#000000" stroke-width="1" stroke-opacity="0"></use></g></g><g><use xlink:href="#g3uPh2au6t" opacity="1" fill="#d6b795" fill-opacity="1"></use><g><use xlink:href="#g3uPh2au6t" opacity="1" fill-opacity="0" stroke="#000000" stroke-width="1" stroke-opacity="0"></use></g></g><g><use xlink:href="#bIigJk5Vt" opacity="1" fill="#cfc7af" fill-opacity="1"></use><g><use xlink:href="#bIigJk5Vt" opacity="1" fill-opacity="0" stroke="#000000" stroke-width="1" stroke-opacity="0"></use></g></g><g><use xlink:href="#c2d0bEnv7j" opacity="1" fill="#dbd5c3" fill-opacity="1"></use><g><use xlink:href="#c2d0bEnv7j" opacity="1" fill-opacity="0" stroke="#000000" stroke-width="1" stroke-opacity="0"></use></g></g><g><use xlink:href="#b1UfGS1QQo" opacity="1" fill="#cfc7af" fill-opacity="1"></use><g><use xlink:href="#b1UfGS1QQo" opacity="1" fill-opacity="0" stroke="#000000" stroke-width="1" stroke-opacity="0"></use></g></g><g><use xlink:href="#a1bVgZvOyp" opacity="1" fill="#2c1800" fill-opacity="1"></use><g><use xlink:href="#a1bVgZvOyp" opacity="1" fill-opacity="0" stroke="#000000" stroke-width="1" stroke-opacity="0"></use></g></g><g><use xlink:href="#aceNLd8Pu" opacity="1" fill="#4d2f00" fill-opacity="1"></use><g><use xlink:href="#aceNLd8Pu" opacity="1" fill-opacity="0" stroke="#000000" stroke-width="1" stroke-opacity="0"></use></g></g><g><use xlink:href="#b91r3mkXO" opacity="1" fill="#2c1800" fill-opacity="1"></use><g><use xlink:href="#b91r3mkXO" opacity="1" fill-opacity="0" stroke="#000000" stroke-width="1" stroke-opacity="0"></use></g></g><g><use xlink:href="#a3SPQhpsRY" opacity="1" fill="#ecd9cb" fill-opacity="1"></use><g><use xlink:href="#a3SPQhpsRY" opacity="1" fill-opacity="0" stroke="#000000" stroke-width="1" stroke-opacity="0"></use></g></g><g><use xlink:href="#dSgNHoq8" opacity="1" fill="#d9aa8b" fill-opacity="1"></use><g><use xlink:href="#dSgNHoq8" opacity="1" fill-opacity="0" stroke="#000000" stroke-width="1" stroke-opacity="0"></use></g></g><g><use xlink:href="#bx5AkjVp" opacity="1" fill="#cc8e58" fill-opacity="1"></use><g><use xlink:href="#bx5AkjVp" opacity="1" fill-opacity="0" stroke="#000000" stroke-width="1" stroke-opacity="0"></use></g></g><g><use xlink:href="#bnMuZU6MR" opacity="1" fill="#cc8e58" fill-opacity="1"></use><g><use xlink:href="#bnMuZU6MR" opacity="1" fill-opacity="0" stroke="#000000" stroke-width="1" stroke-opacity="0"></use></g></g><g><use xlink:href="#asAHRcx9B" opacity="1" fill="#cc8e58" fill-opacity="1"></use><g><use xlink:href="#asAHRcx9B" opacity="1" fill-opacity="0" stroke="#000000" stroke-width="1" stroke-opacity="0"></use></g></g></g></g></svg>