
<svg width="25px" height="15px" viewBox="0 0 25 15" version="1.1" xmlns="http://www.w3.org/2000/svg" xmlns:xlink="http://www.w3.org/1999/xlink">
    <g id="Page-1" stroke="none" stroke-width="1" fill="none" fill-rule="evenodd">
        <g id="Desktop-HD" transform="translate(-268.000000, -259.000000)" fill="#FFFFFF">
            <path d="M279.331848,273.796875 L277.488633,273.796875 L277.488633,267.325721 L270.478684,267.325721 L270.478684,273.796875 L268.64502,273.796875 L268.64502,259.796875 L270.478684,259.796875 L270.478684,265.816106 L277.488633,265.816106 L277.488633,259.796875 L279.331848,259.796875 L279.331848,273.796875 Z M282.588513,273.796875 L282.588513,259.796875 L286.513702,259.796875 C287.723418,259.796875 288.793045,260.066103 289.722616,260.604567 C290.652187,261.143032 291.370047,261.90905 291.876217,262.902644 C292.382388,263.896239 292.638653,265.037253 292.64502,266.325721 L292.64502,267.219952 C292.64502,268.540471 292.391938,269.697511 291.885768,270.691106 C291.379597,271.6847 290.656962,272.447513 289.717841,272.979567 C288.77872,273.511621 287.685217,273.784054 286.4373,273.796875 L282.588513,273.796875 Z M284.422178,261.316106 L284.422178,272.28726 L286.351347,272.28726 C287.764804,272.28726 288.864673,271.844956 289.650988,270.960337 C290.437304,270.075717 290.830455,268.816114 290.830455,267.18149 L290.830455,266.364183 C290.830455,264.774431 290.459588,263.538867 289.717841,262.657452 C288.976094,261.776037 287.923976,261.328926 286.561454,261.316106 L284.422178,261.316106 Z" id="HD"></path>
        </g>
    </g>
</svg>