<svg width="24" height="24" viewBox="0 0 950 100"  version="1.1" xmlns="http://www.w3.org/2000/svg" xmlns:xlink="http://www.w3.org/1999/xlink">
    <g id="Page-1" stroke="none" stroke-width="1" fill="none" fill-rule="evenodd">
        <g id="Desktop-HD" transform="translate(-268.000000, -259.000000)" fill="#FFFFFF">
            <path d="M678.435059,793 L607.756348,793 L607.756348,546.540039 L338.95752,546.540039 L338.95752,793 L268.64502,793 L268.64502,259.796875 L338.95752,259.796875 L338.95752,489.044922 L607.756348,489.044922 L607.756348,259.796875 L678.435059,259.796875 L678.435059,793 Z M803.312988,793 L803.312988,259.796875 L953.825684,259.796875 C1000.21263,259.796875 1041.22785,270.050679 1076.87256,290.558594 C1112.51727,311.066509 1140.04385,340.241022 1159.45312,378.083008 C1178.8624,415.924994 1188.68896,459.381591 1188.93311,508.454102 L1188.93311,542.511719 C1188.93311,592.804939 1179.22861,636.871881 1159.81934,674.713867 C1140.41006,712.555853 1112.70038,741.608297 1076.68945,761.87207 C1040.67853,782.135844 998.747798,792.511716 950.895996,793 L803.312988,793 Z M873.625488,317.658203 L873.625488,735.504883 L947.600098,735.504883 C1001.79959,735.504883 1043.97446,718.659348 1074.12598,684.967773 C1104.27749,651.276199 1119.35303,603.303046 1119.35303,541.046875 L1119.35303,509.918945 C1119.35303,449.371768 1105.13198,402.314133 1076.68945,368.744629 C1048.24693,335.175125 1007.90309,318.146487 955.656738,317.658203 L873.625488,317.658203 Z" id="HD"></path>
        </g>
    </g>
</svg>