<?xml version="1.0" encoding="UTF-8" standalone="no"?>
<!DOCTYPE svg PUBLIC "-//W3C//DTD SVG 1.1//EN" "http://www.w3.org/Graphics/SVG/1.1/DTD/svg11.dtd">
<svg version="1.1" xmlns="http://www.w3.org/2000/svg" xmlns:xlink="http://www.w3.org/1999/xlink" preserveAspectRatio="xMidYMid meet" viewBox="0 0 640 640" width="640" height="640"><defs><path d="M92 56C92 58.21 86.63 60 80 60C73.37 60 68 58.21 68 56C68 53.79 73.37 52 80 52C86.63 52 92 53.79 92 56Z" id="ciWmGt9Ny"></path><path d="M76 68C76 70.21 70.63 72 64 72C57.37 72 52 70.21 52 68C52 65.79 57.37 64 64 64C70.63 64 76 65.79 76 68Z" id="b5OzhDJgf"></path><path d="M32 24L46 24L46 38L32 38L32 24Z" id="a7tE2Th8z"></path><path d="M12 60L14 60L14 64L12 64L12 60Z" id="a4enR5uUqv"></path><path d="M31.73 7.02L32.08 7.06L32.42 7.11L32.76 7.17L33.1 7.25L33.43 7.33L33.76 7.43L34.09 7.55L34.41 7.67L34.73 7.81L35.04 7.96L35.35 8.12L35.65 8.29L35.94 8.48L36.23 8.67L36.51 8.88L36.78 9.1L37.04 9.33L37.3 9.58L37.55 9.83L37.78 10.09L38.01 10.37L38.23 10.65L38.44 10.95L38.64 11.26L38.82 11.57L39 11.9L39.04 11.82L39.09 11.73L39.13 11.65L39.18 11.57L39.23 11.48L39.27 11.4L39.32 11.32L39.37 11.24L39.42 11.16L39.48 11.08L39.53 11L39.58 10.92L39.63 10.84L39.69 10.77L39.74 10.69L39.8 10.62L39.86 10.54L39.91 10.46L39.97 10.39L40.03 10.32L40.09 10.24L40.15 10.17L40.21 10.1L40.28 10.03L40.34 9.96L40.4 9.89L40.47 9.82L40.53 9.75L40.6 9.68L40.67 9.62L40.73 9.55L40.8 9.48L40.87 9.42L40.94 9.35L41.01 9.29L41.08 9.23L41.15 9.17L41.23 9.1L41.3 9.04L41.37 8.98L41.67 8.76L41.97 8.55L42.27 8.35L42.58 8.16L42.9 7.99L43.22 7.83L43.55 7.69L43.87 7.56L44.21 7.44L44.54 7.34L44.88 7.25L45.22 7.18L45.56 7.11L45.91 7.07L46.25 7.03L46.6 7.01L46.94 7L47.29 7L47.63 7.02L47.98 7.05L48.32 7.1L48.66 7.15L49 7.22L49.34 7.3L49.67 7.4L50 7.51L50.32 7.63L50.64 7.76L50.96 7.91L51.27 8.07L51.58 8.24L51.88 8.43L52.17 8.63L52.46 8.84L52.74 9.06L53.01 9.29L53.27 9.54L53.53 9.8L53.78 10.07L54.02 10.36L54.24 10.65L54.45 10.95L54.65 11.26L54.84 11.57L55.01 11.88L55.17 12.2L55.31 12.53L55.44 12.86L55.56 13.19L55.66 13.53L55.75 13.87L55.82 14.21L55.89 14.55L55.93 14.89L55.97 15.24L55.99 15.58L56 15.93L56 16.27L55.98 16.62L55.95 16.96L55.9 17.3L55.85 17.65L55.78 17.98L55.7 18.32L55.6 18.65L55.49 18.98L55.37 19.31L55.24 19.63L55.09 19.94L54.93 20.26L54.76 20.56L54.57 20.86L54.37 21.15L54.16 21.44L53.94 21.72L53.71 21.99L53.46 22.26L53.2 22.51L52.93 22.76L52.64 23L71 23L71 39L66 39L66 63.06L66.03 63.06L66.06 63.06L66.12 63.07L66.15 63.07L66.21 63.07L66.24 63.07L66.3 63.08L66.33 63.08L66.39 63.08L66.42 63.09L66.48 63.09L66.51 63.09L66.57 63.1L66.6 63.1L66.62 63.1L66.65 63.1L66.68 63.1L66.71 63.11L66.74 63.11L66.8 63.11L66.83 63.12L66.89 63.12L66.92 63.12L66.95 63.12L66.98 63.13L67.01 63.13L67.03 63.13L67.06 63.13L67.12 63.14L67.15 63.14L67.18 63.15L67.19 63.11L67.21 63.08L67.22 63.05L67.23 63.02L67.25 62.98L67.26 62.95L67.28 62.92L67.29 62.89L67.31 62.86L67.32 62.83L67.34 62.8L67.36 62.76L67.37 62.73L67.39 62.7L67.41 62.67L67.43 62.64L67.45 62.61L67.46 62.58L67.48 62.56L67.5 62.53L67.52 62.5L67.54 62.47L67.56 62.44L67.58 62.41L67.6 62.38L67.63 62.36L67.65 62.33L67.67 62.3L67.69 62.28L67.71 62.25L67.74 62.22L67.76 62.2L67.78 62.17L67.81 62.14L67.83 62.12L67.85 62.09L67.88 62.07L67.9 62.04L67.93 62.02L67.95 61.99L67.93 61.98L67.92 61.97L67.91 61.96L67.9 61.95L67.89 61.94L67.88 61.93L67.87 61.92L67.86 61.92L67.85 61.91L67.84 61.9L67.83 61.89L67.82 61.88L67.81 61.87L67.8 61.86L67.79 61.85L67.78 61.84L67.77 61.83L67.76 61.82L67.75 61.81L67.74 61.8L67.73 61.79L67.72 61.78L67.72 61.77L67.71 61.77L67.7 61.76L67.69 61.75L67.68 61.74L67.67 61.73L67.66 61.72L67.65 61.71L67.64 61.7L67.63 61.69L67.62 61.67L67.62 61.66L67.61 61.65L67.6 61.64L67.59 61.63L67.57 61.61L67.51 61.53L67.45 61.44L67.39 61.36L67.34 61.27L67.29 61.18L67.24 61.09L67.2 60.99L67.16 60.9L67.13 60.8L67.1 60.71L67.07 60.61L67.05 60.51L67.03 60.42L67.02 60.32L67.01 60.22L67 60.12L67 60.02L67 59.92L67.01 59.82L67.01 59.72L67.03 59.63L67.04 59.53L67.06 59.43L67.09 59.34L67.11 59.24L67.14 59.15L67.18 59.05L67.22 58.96L67.26 58.87L67.3 58.78L67.35 58.69L67.4 58.61L67.46 58.52L67.52 58.44L67.58 58.36L67.65 58.28L67.72 58.21L67.8 58.13L67.87 58.06L67.95 57.99L67.91 57.96L67.87 57.92L67.83 57.88L67.79 57.84L67.75 57.8L67.71 57.75L67.67 57.71L67.63 57.67L67.6 57.62L67.56 57.58L67.53 57.53L67.5 57.49L67.46 57.44L67.43 57.39L67.4 57.34L67.37 57.3L67.35 57.25L67.32 57.2L67.29 57.15L67.27 57.1L67.25 57.05L67.22 56.99L67.2 56.94L67.18 56.89L67.16 56.84L67.14 56.78L67.12 56.73L67.11 56.67L67.09 56.62L67.08 56.56L67.07 56.51L67.05 56.45L67.04 56.4L67.03 56.34L67.02 56.29L67.02 56.23L67.01 56.17L67.01 56.11L67 56.06L67 56L67.01 55.76L67.05 55.52L67.11 55.29L67.19 55.06L67.29 54.84L67.42 54.63L67.57 54.42L67.73 54.22L67.92 54.02L68.12 53.83L68.35 53.65L68.59 53.47L68.85 53.3L69.12 53.13L69.41 52.98L69.72 52.82L70.04 52.67L70.37 52.53L70.72 52.4L71.08 52.27L71.45 52.15L71.83 52.03L72.23 51.92L72.63 51.81L73.05 51.72L73.47 51.62L73.9 51.54L74.34 51.46L74.79 51.39L75.24 51.32L75.7 51.26L76.17 51.2L76.64 51.16L77.11 51.12L77.59 51.08L78.07 51.05L78.55 51.03L79.03 51.01L79.52 51L80 51L80.48 51L80.97 51.01L81.45 51.03L81.93 51.05L82.41 51.08L82.89 51.12L83.36 51.16L83.83 51.2L84.3 51.26L84.76 51.32L85.21 51.39L85.66 51.46L86.1 51.54L86.53 51.62L86.95 51.72L87.37 51.81L87.77 51.92L88.17 52.03L88.55 52.15L88.92 52.27L89.28 52.4L89.63 52.53L89.96 52.67L90.28 52.82L90.59 52.98L90.88 53.13L91.15 53.3L91.41 53.47L91.65 53.65L91.88 53.83L92.08 54.02L92.27 54.22L92.43 54.42L92.58 54.63L92.71 54.84L92.81 55.06L92.89 55.29L92.95 55.52L92.99 55.76L93 56L93 56.06L92.99 56.11L92.99 56.17L92.98 56.23L92.98 56.29L92.97 56.34L92.96 56.4L92.95 56.45L92.93 56.51L92.92 56.56L92.91 56.62L92.89 56.67L92.88 56.73L92.86 56.78L92.84 56.84L92.82 56.89L92.8 56.94L92.78 56.99L92.75 57.05L92.73 57.1L92.71 57.15L92.68 57.2L92.65 57.25L92.63 57.3L92.6 57.34L92.57 57.39L92.54 57.44L92.5 57.49L92.47 57.53L92.44 57.58L92.4 57.62L92.37 57.67L92.33 57.71L92.29 57.75L92.25 57.8L92.21 57.84L92.17 57.88L92.13 57.92L92.09 57.96L92.05 57.99L92.07 58.01L92.08 58.02L92.09 58.03L92.1 58.04L92.11 58.05L92.12 58.05L92.13 58.06L92.14 58.07L92.15 58.08L92.16 58.09L92.17 58.1L92.18 58.11L92.19 58.12L92.2 58.13L92.21 58.14L92.22 58.15L92.23 58.16L92.24 58.17L92.25 58.17L92.26 58.18L92.27 58.19L92.28 58.2L92.28 58.21L92.29 58.22L92.3 58.23L92.31 58.24L92.32 58.25L92.33 58.26L92.34 58.27L92.35 58.28L92.36 58.29L92.37 58.3L92.38 58.31L92.38 58.32L92.39 58.33L92.4 58.34L92.41 58.35L92.43 58.38L92.49 58.46L92.55 58.54L92.61 58.63L92.66 58.72L92.71 58.81L92.76 58.9L92.8 59L92.84 59.09L92.87 59.19L92.9 59.28L92.93 59.38L92.95 59.48L92.97 59.57L92.98 59.67L92.99 59.77L93 59.87L93 59.97L93 60.07L92.99 60.17L92.99 60.26L92.97 60.36L92.96 60.46L92.94 60.56L92.91 60.65L92.89 60.75L92.86 60.84L92.82 60.93L92.78 61.03L92.74 61.12L92.7 61.21L92.65 61.29L92.6 61.38L92.54 61.46L92.48 61.55L92.42 61.63L92.35 61.71L92.28 61.78L92.2 61.85L92.13 61.93L92.05 61.99L92.07 62.01L92.08 62.02L92.09 62.03L92.1 62.04L92.11 62.05L92.12 62.05L92.13 62.06L92.14 62.07L92.15 62.08L92.16 62.09L92.17 62.1L92.18 62.11L92.19 62.12L92.2 62.13L92.21 62.14L92.22 62.15L92.23 62.16L92.24 62.17L92.25 62.17L92.26 62.18L92.27 62.19L92.28 62.2L92.28 62.21L92.29 62.22L92.3 62.23L92.31 62.24L92.32 62.25L92.33 62.26L92.34 62.27L92.35 62.28L92.36 62.29L92.37 62.3L92.38 62.31L92.38 62.32L92.39 62.33L92.4 62.34L92.41 62.35L92.43 62.38L92.49 62.46L92.55 62.54L92.61 62.63L92.66 62.72L92.71 62.81L92.76 62.9L92.8 63L92.84 63.09L92.87 63.19L92.9 63.28L92.93 63.38L92.95 63.48L92.97 63.57L92.98 63.67L92.99 63.77L93 63.87L93 63.97L93 64.07L92.99 64.17L92.99 64.26L92.97 64.36L92.96 64.46L92.94 64.56L92.91 64.65L92.89 64.75L92.86 64.84L92.82 64.93L92.78 65.03L92.74 65.12L92.7 65.21L92.65 65.29L92.6 65.38L92.54 65.46L92.48 65.55L92.42 65.63L92.35 65.71L92.28 65.78L92.2 65.85L92.13 65.93L92.05 65.99L92.07 66.01L92.08 66.02L92.09 66.03L92.1 66.04L92.11 66.05L92.12 66.05L92.13 66.06L92.14 66.07L92.15 66.08L92.16 66.09L92.17 66.1L92.18 66.11L92.19 66.12L92.2 66.13L92.21 66.14L92.22 66.15L92.23 66.16L92.24 66.17L92.25 66.17L92.26 66.18L92.27 66.19L92.28 66.2L92.28 66.21L92.29 66.22L92.3 66.23L92.31 66.24L92.32 66.25L92.33 66.26L92.34 66.27L92.35 66.28L92.36 66.29L92.37 66.3L92.38 66.31L92.38 66.32L92.39 66.33L92.4 66.34L92.41 66.35L92.43 66.38L92.49 66.46L92.55 66.54L92.61 66.63L92.66 66.72L92.71 66.81L92.76 66.9L92.8 67L92.84 67.09L92.87 67.19L92.9 67.28L92.93 67.38L92.95 67.48L92.97 67.57L92.98 67.67L92.99 67.77L93 67.87L93 67.97L93 68.07L92.99 68.17L92.99 68.26L92.97 68.36L92.96 68.46L92.94 68.56L92.91 68.65L92.89 68.75L92.86 68.84L92.82 68.93L92.78 69.03L92.74 69.12L92.7 69.21L92.65 69.29L92.6 69.38L92.54 69.46L92.48 69.55L92.42 69.63L92.35 69.71L92.28 69.78L92.2 69.85L92.13 69.93L92.05 69.99L92.07 70.01L92.08 70.02L92.09 70.03L92.1 70.04L92.11 70.05L92.12 70.05L92.13 70.06L92.14 70.07L92.15 70.08L92.16 70.09L92.17 70.1L92.18 70.11L92.19 70.12L92.2 70.13L92.21 70.14L92.22 70.15L92.23 70.16L92.24 70.17L92.25 70.17L92.26 70.18L92.27 70.19L92.28 70.2L92.28 70.21L92.29 70.22L92.3 70.23L92.31 70.24L92.32 70.25L92.33 70.26L92.34 70.27L92.35 70.28L92.36 70.29L92.37 70.3L92.38 70.31L92.38 70.32L92.39 70.33L92.4 70.34L92.41 70.35L92.43 70.38L92.49 70.46L92.55 70.54L92.61 70.63L92.66 70.72L92.71 70.81L92.76 70.9L92.8 71L92.84 71.09L92.87 71.19L92.9 71.28L92.93 71.38L92.95 71.48L92.97 71.57L92.98 71.67L92.99 71.77L93 71.87L93 71.97L93 72.07L92.99 72.17L92.99 72.26L92.97 72.36L92.96 72.46L92.94 72.56L92.91 72.65L92.89 72.75L92.86 72.84L92.82 72.93L92.78 73.03L92.74 73.12L92.7 73.21L92.65 73.29L92.6 73.38L92.54 73.46L92.48 73.55L92.42 73.63L92.35 73.71L92.28 73.78L92.2 73.85L92.13 73.93L92.05 73.99L92.07 74.01L92.08 74.02L92.09 74.03L92.1 74.04L92.11 74.05L92.12 74.05L92.13 74.06L92.14 74.07L92.15 74.08L92.16 74.09L92.17 74.1L92.18 74.11L92.19 74.12L92.2 74.13L92.21 74.14L92.22 74.15L92.23 74.16L92.24 74.17L92.25 74.17L92.26 74.18L92.27 74.19L92.28 74.2L92.28 74.21L92.29 74.22L92.3 74.23L92.31 74.24L92.32 74.25L92.33 74.26L92.34 74.27L92.35 74.28L92.36 74.29L92.37 74.3L92.38 74.31L92.38 74.32L92.39 74.33L92.4 74.34L92.41 74.35L92.43 74.38L92.49 74.46L92.55 74.54L92.61 74.63L92.66 74.72L92.71 74.81L92.76 74.9L92.8 75L92.84 75.09L92.87 75.19L92.9 75.28L92.93 75.38L92.95 75.48L92.97 75.57L92.98 75.67L92.99 75.77L93 75.87L93 75.97L93 76.07L92.99 76.17L92.99 76.26L92.97 76.36L92.96 76.46L92.94 76.56L92.91 76.65L92.89 76.75L92.86 76.84L92.82 76.93L92.78 77.03L92.74 77.12L92.7 77.21L92.65 77.29L92.6 77.38L92.54 77.46L92.48 77.55L92.42 77.63L92.35 77.71L92.28 77.78L92.2 77.85L92.13 77.93L92.05 77.99L92.07 78.01L92.08 78.02L92.09 78.03L92.1 78.04L92.11 78.05L92.12 78.05L92.13 78.06L92.14 78.07L92.15 78.08L92.16 78.09L92.17 78.1L92.18 78.11L92.19 78.12L92.2 78.13L92.21 78.14L92.22 78.15L92.23 78.16L92.24 78.17L92.25 78.17L92.26 78.18L92.27 78.19L92.28 78.2L92.28 78.21L92.29 78.22L92.3 78.23L92.31 78.24L92.32 78.25L92.33 78.26L92.34 78.27L92.35 78.28L92.36 78.29L92.37 78.3L92.38 78.31L92.38 78.32L92.39 78.33L92.4 78.34L92.41 78.35L92.43 78.38L92.49 78.46L92.55 78.54L92.61 78.63L92.66 78.72L92.71 78.81L92.76 78.9L92.8 79L92.84 79.09L92.87 79.19L92.9 79.28L92.93 79.38L92.95 79.48L92.97 79.57L92.98 79.67L92.99 79.77L93 79.87L93 79.97L93 80.07L92.99 80.17L92.99 80.26L92.97 80.36L92.96 80.46L92.94 80.56L92.91 80.65L92.89 80.75L92.86 80.84L92.82 80.93L92.78 81.03L92.74 81.12L92.7 81.21L92.65 81.29L92.6 81.38L92.54 81.46L92.48 81.55L92.42 81.63L92.35 81.71L92.28 81.78L92.2 81.85L92.13 81.93L92.05 81.99L92.09 82.03L92.13 82.07L92.17 82.11L92.21 82.15L92.25 82.19L92.29 82.24L92.33 82.28L92.37 82.32L92.4 82.37L92.44 82.41L92.47 82.46L92.51 82.5L92.54 82.55L92.57 82.6L92.6 82.65L92.63 82.7L92.66 82.75L92.68 82.8L92.71 82.85L92.73 82.9L92.76 82.95L92.78 83L92.8 83.05L92.82 83.11L92.84 83.16L92.86 83.21L92.88 83.27L92.89 83.32L92.91 83.38L92.92 83.43L92.94 83.49L92.95 83.54L92.96 83.6L92.97 83.66L92.98 83.71L92.98 83.77L92.99 83.83L92.99 83.88L93 83.94L93 84L92.99 84.24L92.95 84.48L92.89 84.71L92.81 84.94L92.71 85.16L92.58 85.37L92.43 85.58L92.27 85.78L92.08 85.98L91.88 86.17L91.65 86.35L91.41 86.53L91.15 86.7L90.88 86.87L90.59 87.02L90.28 87.18L89.96 87.33L89.63 87.47L89.28 87.6L88.92 87.73L88.55 87.85L88.17 87.97L87.77 88.08L87.37 88.19L86.95 88.28L86.53 88.38L86.1 88.46L85.66 88.54L85.21 88.61L84.76 88.68L84.3 88.74L83.83 88.8L83.36 88.84L82.89 88.88L82.41 88.92L81.93 88.95L81.45 88.97L80.97 88.99L80.48 89L80 89L79.92 89L79.84 89L79.76 89L79.68 89L79.6 89L79.52 89L79.44 88.99L79.36 88.99L79.28 88.99L79.2 88.99L79.12 88.99L79.04 88.99L78.96 88.98L78.88 88.98L78.8 88.98L78.72 88.97L78.64 88.97L78.56 88.97L78.48 88.96L78.4 88.96L78.32 88.96L78.24 88.95L78.17 88.95L78.09 88.94L78.01 88.94L77.93 88.93L77.85 88.93L77.77 88.92L77.69 88.92L77.61 88.91L77.53 88.91L77.45 88.9L77.37 88.9L77.3 88.89L77.22 88.88L77.14 88.88L77.06 88.87L76.98 88.86L76.9 88.86L76.83 88.85L76.74 89.05L76.64 89.25L76.51 89.44L76.38 89.63L76.22 89.81L76.05 89.99L75.86 90.16L75.66 90.33L75.45 90.49L75.22 90.65L74.97 90.8L74.71 90.95L74.44 91.09L74.16 91.23L73.87 91.36L73.56 91.49L73.24 91.61L72.92 91.73L72.58 91.84L72.23 91.95L71.87 92.05L71.51 92.15L71.14 92.24L70.76 92.32L70.37 92.41L69.97 92.48L69.57 92.55L69.17 92.62L68.75 92.68L68.34 92.73L67.92 92.79L67.49 92.83L67.06 92.87L66.63 92.9L66.2 92.93L65.76 92.96L65.32 92.98L64.88 92.99L64.44 93L64 93L63.52 93L63.03 92.99L62.55 92.97L62.07 92.95L61.59 92.92L61.11 92.88L60.64 92.84L60.17 92.8L59.7 92.74L59.24 92.68L58.79 92.61L58.34 92.54L57.9 92.46L57.47 92.38L57.05 92.28L56.63 92.19L56.23 92.08L55.83 91.97L55.45 91.85L55.08 91.73L54.72 91.6L54.37 91.47L54.04 91.33L53.72 91.18L53.41 91.02L53.12 90.87L52.85 90.7L52.59 90.53L52.35 90.35L52.12 90.17L51.92 89.98L51.73 89.78L51.57 89.58L51.42 89.37L51.29 89.16L51.19 88.94L51.11 88.71L51.05 88.48L51.01 88.24L51 88L51 87.94L51.01 87.88L51.01 87.83L51.02 87.77L51.02 87.71L51.03 87.66L51.04 87.6L51.05 87.54L51.06 87.49L51.08 87.43L51.09 87.38L51.11 87.32L51.12 87.27L51.14 87.21L51.16 87.16L51.18 87.11L51.2 87.05L51.22 87L51.24 86.95L51.27 86.9L51.29 86.85L51.32 86.8L51.34 86.75L51.37 86.7L51.4 86.65L51.43 86.6L51.46 86.55L51.49 86.5L51.53 86.46L51.56 86.41L51.6 86.37L51.63 86.32L51.67 86.28L51.71 86.24L51.75 86.19L51.79 86.15L51.83 86.11L51.87 86.07L51.91 86.03L51.95 85.99L51.93 85.98L51.92 85.97L51.91 85.96L51.9 85.95L51.89 85.94L51.88 85.93L51.87 85.92L51.86 85.92L51.85 85.91L51.84 85.9L51.83 85.89L51.82 85.88L51.81 85.87L51.8 85.86L51.79 85.85L51.78 85.84L51.77 85.83L51.76 85.82L51.75 85.81L51.74 85.8L51.73 85.79L51.72 85.78L51.72 85.77L51.71 85.77L51.7 85.76L51.69 85.75L51.68 85.74L51.67 85.73L51.66 85.72L51.65 85.71L51.64 85.7L51.63 85.69L51.62 85.67L51.62 85.66L51.61 85.65L51.6 85.64L51.59 85.63L51.57 85.61L51.51 85.53L51.45 85.44L51.39 85.36L51.34 85.27L51.29 85.18L51.24 85.09L51.2 84.99L51.16 84.9L51.13 84.8L51.1 84.71L51.07 84.61L51.05 84.51L51.03 84.42L51.02 84.32L51.01 84.22L51 84.12L51 84.02L51 83.92L51.01 83.82L51.01 83.72L51.03 83.63L51.04 83.53L51.06 83.43L51.09 83.34L51.11 83.24L51.14 83.15L51.18 83.05L51.22 82.96L51.26 82.87L51.3 82.78L51.35 82.69L51.4 82.61L51.46 82.52L51.52 82.44L51.58 82.36L51.65 82.28L51.72 82.21L51.8 82.13L51.87 82.06L51.95 81.99L51.93 81.98L51.92 81.97L51.91 81.96L51.9 81.95L51.89 81.94L51.88 81.93L51.87 81.92L51.86 81.92L51.85 81.91L51.84 81.9L51.83 81.89L51.82 81.88L51.81 81.87L51.8 81.86L51.79 81.85L51.78 81.84L51.77 81.83L51.76 81.82L51.75 81.81L51.74 81.8L51.73 81.79L51.72 81.78L51.72 81.77L51.71 81.77L51.7 81.76L51.69 81.75L51.68 81.74L51.67 81.73L51.66 81.72L51.65 81.71L51.64 81.7L51.63 81.69L51.62 81.67L51.62 81.66L51.61 81.65L51.6 81.64L51.59 81.63L51.57 81.61L51.51 81.53L51.45 81.44L51.39 81.36L51.34 81.27L51.29 81.18L51.24 81.09L51.2 80.99L51.16 80.9L51.13 80.8L51.1 80.71L51.07 80.61L51.05 80.51L51.03 80.42L51.02 80.32L51.01 80.22L51 80.12L51 80.02L51 79.92L51.01 79.82L51.01 79.72L51.03 79.63L51.04 79.53L51.06 79.43L51.09 79.34L51.11 79.24L51.14 79.15L51.18 79.05L51.22 78.96L51.26 78.87L51.3 78.78L51.35 78.69L51.4 78.61L51.46 78.52L51.52 78.44L51.58 78.36L51.65 78.28L51.72 78.21L51.8 78.13L51.87 78.06L51.95 77.99L51.93 77.97L51.91 77.95L51.89 77.93L51.87 77.91L51.84 77.89L51.82 77.86L51.8 77.84L51.78 77.82L51.76 77.79L51.74 77.77L51.72 77.75L51.7 77.72L51.68 77.7L51.66 77.68L51.64 77.65L51.62 77.63L51.6 77.6L51.58 77.58L51.56 77.56L51.55 77.53L51.53 77.51L51.51 77.48L51.49 77.45L51.48 77.43L51.46 77.4L51.44 77.38L51.42 77.35L51.41 77.33L51.39 77.3L51.38 77.27L51.36 77.25L51.34 77.22L51.33 77.19L51.31 77.17L51.3 77.14L51.29 77.11L51.27 77.08L51.26 77.06L51.24 77.03L51.23 77L12 77L12 68L14 68L14 75L51.23 75L51.24 74.97L51.25 74.94L51.27 74.92L51.28 74.89L51.3 74.86L51.31 74.83L51.33 74.8L51.34 74.78L51.36 74.75L51.37 74.72L51.39 74.7L51.4 74.67L51.42 74.64L51.44 74.62L51.45 74.59L51.47 74.57L51.49 74.54L51.51 74.51L51.52 74.49L51.54 74.46L51.56 74.44L51.58 74.41L51.6 74.39L51.62 74.36L51.64 74.34L51.66 74.31L51.68 74.29L51.7 74.27L51.72 74.24L51.74 74.22L51.76 74.2L51.78 74.17L51.8 74.15L51.82 74.13L51.84 74.1L51.86 74.08L51.89 74.06L51.91 74.04L51.93 74.02L51.95 73.99L51.93 73.98L51.92 73.97L51.91 73.96L51.9 73.95L51.89 73.94L51.88 73.93L51.87 73.92L51.86 73.92L51.85 73.91L51.84 73.9L51.83 73.89L51.82 73.88L51.81 73.87L51.8 73.86L51.79 73.85L51.78 73.84L51.77 73.83L51.76 73.82L51.75 73.81L51.74 73.8L51.73 73.79L51.72 73.78L51.72 73.77L51.71 73.77L51.7 73.76L51.69 73.75L51.68 73.74L51.67 73.73L51.66 73.72L51.65 73.71L51.64 73.7L51.63 73.69L51.62 73.67L51.62 73.66L51.61 73.65L51.6 73.64L51.59 73.63L51.57 73.61L51.51 73.53L51.45 73.44L51.39 73.36L51.34 73.27L51.29 73.18L51.24 73.09L51.2 72.99L51.16 72.9L51.13 72.8L51.1 72.71L51.07 72.61L51.05 72.51L51.03 72.42L51.02 72.32L51.01 72.22L51 72.12L51 72.02L51 71.92L51.01 71.82L51.01 71.72L51.03 71.63L51.04 71.53L51.06 71.43L51.09 71.34L51.11 71.24L51.14 71.15L51.18 71.05L51.22 70.96L51.26 70.87L51.3 70.78L51.35 70.69L51.4 70.61L51.46 70.52L51.52 70.44L51.58 70.36L51.65 70.28L51.72 70.21L51.8 70.13L51.87 70.06L51.95 69.99L51.91 69.96L51.87 69.92L51.83 69.88L51.79 69.84L51.75 69.8L51.71 69.75L51.67 69.71L51.63 69.67L51.6 69.62L51.56 69.58L51.53 69.53L51.5 69.49L51.46 69.44L51.43 69.39L51.4 69.34L51.37 69.3L51.35 69.25L51.32 69.2L51.29 69.15L51.27 69.1L51.25 69.05L51.22 68.99L51.2 68.94L51.18 68.89L51.16 68.84L51.14 68.78L51.12 68.73L51.11 68.67L51.09 68.62L51.08 68.56L51.07 68.51L51.05 68.45L51.04 68.4L51.03 68.34L51.02 68.29L51.02 68.23L51.01 68.17L51.01 68.11L51 68.06L51 68L51.01 67.76L51.05 67.52L51.11 67.29L51.19 67.06L51.29 66.84L51.42 66.63L51.57 66.42L51.73 66.22L51.92 66.02L52.12 65.83L52.35 65.65L52.59 65.47L52.85 65.3L53.12 65.13L53.41 64.98L53.72 64.82L54.04 64.67L54.37 64.53L54.72 64.4L55.08 64.27L55.45 64.15L55.83 64.03L56.23 63.92L56.63 63.81L57.05 63.72L57.47 63.62L57.9 63.54L58.34 63.46L58.79 63.39L59.24 63.32L59.7 63.26L60.17 63.2L60.64 63.16L61.11 63.12L61.59 63.08L62.07 63.05L62.55 63.03L63.03 63.01L63.52 63L64 63L64 39L14 39L14 56L12 56L12 39L7 39L7 23L25.36 23L25.28 22.94L25.21 22.88L25.14 22.82L25.06 22.76L24.99 22.69L24.92 22.63L24.85 22.56L24.78 22.5L24.72 22.43L24.65 22.37L24.58 22.3L24.51 22.23L24.45 22.16L24.38 22.09L24.32 22.02L24.26 21.95L24.19 21.88L24.13 21.81L24.07 21.74L24.01 21.66L23.95 21.59L23.89 21.52L23.84 21.44L23.78 21.37L23.72 21.29L23.67 21.21L23.61 21.13L23.56 21.06L23.51 20.98L23.45 20.9L23.4 20.82L23.35 20.74L23.3 20.66L23.25 20.58L23.21 20.49L23.16 20.41L23.11 20.33L23.07 20.25L23.02 20.16L22.98 20.08L22.82 19.74L22.67 19.41L22.54 19.07L22.42 18.72L22.32 18.38L22.23 18.03L22.15 17.69L22.09 17.34L22.05 16.99L22.02 16.64L22 16.29L21.99 15.94L22 15.59L22.02 15.24L22.06 14.9L22.11 14.56L22.17 14.22L22.25 13.88L22.33 13.55L22.43 13.21L22.55 12.89L22.67 12.57L22.81 12.25L22.96 11.94L23.12 11.63L23.29 11.33L23.48 11.04L23.68 10.75L23.88 10.47L24.1 10.2L24.33 9.93L24.58 9.68L24.83 9.43L25.09 9.19L25.37 8.96L25.65 8.75L25.95 8.54L26.26 8.34L26.57 8.15L26.9 7.98L27.23 7.82L27.57 7.67L27.91 7.54L28.25 7.42L28.6 7.32L28.94 7.23L29.29 7.15L29.64 7.09L29.99 7.05L30.34 7.02L30.69 7L31.04 6.99L31.39 7L31.73 7.02ZM72.46 87.88L71.4 88.17L70.27 88.42L69.09 88.63L67.85 88.79L66.59 88.91L65.3 88.98L64 89L62.7 88.98L61.41 88.91L60.15 88.79L58.91 88.63L57.73 88.42L56.6 88.17L55.54 87.88L54.56 87.54L53.68 87.15L53.54 87.25L53.42 87.36L53.31 87.46L53.22 87.55L53.14 87.65L53.08 87.74L53.04 87.83L53.01 87.92L53 88L53.14 88.37L53.57 88.79L54.27 89.23L55.24 89.67L56.48 90.08L57.99 90.45L59.74 90.74L61.75 90.93L64 91L66.25 90.93L68.26 90.74L70.01 90.45L71.52 90.08L72.76 89.67L73.73 89.23L74.43 88.79L74.86 88.37L75 88L74.99 87.92L74.96 87.83L74.92 87.74L74.86 87.65L74.78 87.55L74.69 87.46L74.58 87.36L74.46 87.25L74.32 87.15L73.44 87.54L72.46 87.88ZM87.4 84.17L85.69 84.53L83.85 84.79L81.95 84.95L80 85L79.46 85L78.93 84.98L78.4 84.96L77.87 84.93L77.35 84.89L76.83 84.84L76.73 85.06L76.62 85.26L76.5 85.46L76.36 85.65L76.21 85.83L76.05 85.99L76.17 86.12L76.29 86.25L76.4 86.39L76.5 86.53L76.6 86.68L76.69 86.83L77.2 86.88L77.73 86.92L78.27 86.95L78.83 86.98L79.41 86.99L80 87L83.29 86.85L86.01 86.45L88.17 85.88L89.73 85.23L90.68 84.58L91 84L90.98 83.87L90.92 83.74L90.82 83.6L90.69 83.46L90.52 83.3L90.32 83.15L88.96 83.71L87.4 84.17ZM72.46 83.88L71.4 84.17L70.27 84.42L69.09 84.63L67.85 84.79L66.59 84.91L65.3 84.98L64 85L62.7 84.98L61.41 84.91L60.15 84.79L58.91 84.63L57.73 84.42L56.6 84.17L55.54 83.88L54.56 83.54L53.68 83.15L53.54 83.25L53.42 83.36L53.31 83.46L53.22 83.55L53.14 83.65L53.08 83.74L53.04 83.83L53.01 83.92L53 84L53.14 84.37L53.57 84.79L54.27 85.23L55.24 85.67L56.48 86.08L57.99 86.45L59.74 86.74L61.75 86.93L64 87L66.25 86.93L68.26 86.74L70.01 86.45L71.52 86.08L72.76 85.67L73.73 85.23L74.43 84.79L74.86 84.37L75 84L74.99 83.92L74.96 83.83L74.92 83.74L74.86 83.65L74.78 83.55L74.69 83.46L74.58 83.36L74.46 83.25L74.32 83.15L73.44 83.54L72.46 83.88ZM72.46 79.88L71.4 80.17L70.27 80.42L69.09 80.63L67.85 80.79L66.59 80.91L65.3 80.98L64 81L62.7 80.98L61.41 80.91L60.15 80.79L58.91 80.63L57.73 80.42L56.6 80.17L55.54 79.88L54.56 79.54L53.68 79.15L53.54 79.25L53.42 79.36L53.31 79.46L53.22 79.55L53.14 79.65L53.08 79.74L53.04 79.83L53.01 79.92L53 80L53.14 80.37L53.57 80.79L54.27 81.23L55.24 81.67L56.48 82.08L57.99 82.45L59.74 82.74L61.75 82.93L64 83L66.25 82.93L68.26 82.74L70.01 82.45L71.52 82.08L72.76 81.67L73.73 81.23L74.43 80.79L74.86 80.37L75 80L74.99 79.92L74.96 79.83L74.92 79.74L74.86 79.65L74.78 79.55L74.69 79.46L74.58 79.36L74.46 79.25L74.32 79.15L73.44 79.54L72.46 79.88ZM87.4 80.17L85.69 80.53L83.85 80.79L81.95 80.95L80 81L79.46 81L78.93 80.98L78.4 80.96L77.87 80.93L77.35 80.89L76.83 80.84L76.73 81.06L76.62 81.26L76.5 81.46L76.36 81.65L76.21 81.83L76.05 81.99L76.17 82.12L76.29 82.25L76.4 82.39L76.5 82.53L76.6 82.68L76.69 82.83L77.2 82.88L77.73 82.92L78.27 82.95L78.83 82.98L79.41 82.99L80 83L83.29 82.85L86.01 82.45L88.17 81.88L89.73 81.23L90.68 80.58L91 80L90.98 79.87L90.92 79.74L90.82 79.6L90.69 79.46L90.52 79.3L90.32 79.15L88.96 79.71L87.4 80.17ZM87.4 76.17L85.69 76.53L83.85 76.79L81.95 76.95L80 77L79.46 77L78.93 76.98L78.4 76.96L77.87 76.93L77.35 76.89L76.83 76.84L76.73 77.06L76.62 77.26L76.5 77.46L76.36 77.65L76.21 77.83L76.05 77.99L76.17 78.12L76.29 78.25L76.4 78.39L76.5 78.53L76.6 78.68L76.69 78.83L77.2 78.88L77.73 78.92L78.27 78.95L78.83 78.98L79.41 78.99L80 79L83.29 78.85L86.01 78.45L88.17 77.88L89.73 77.23L90.68 76.58L91 76L90.98 75.87L90.92 75.74L90.82 75.6L90.69 75.46L90.52 75.3L90.32 75.15L88.96 75.71L87.4 76.17ZM72.46 75.88L71.4 76.17L70.27 76.42L69.09 76.63L67.85 76.79L66.59 76.91L65.3 76.98L64 77L62.7 76.98L61.41 76.91L60.15 76.79L58.91 76.63L57.73 76.42L56.6 76.17L55.54 75.88L54.56 75.54L53.68 75.15L53.54 75.25L53.42 75.36L53.31 75.46L53.22 75.55L53.14 75.65L53.08 75.74L53.04 75.83L53.01 75.92L53 76L53.14 76.37L53.57 76.79L54.27 77.23L55.24 77.67L56.48 78.08L57.99 78.45L59.74 78.74L61.75 78.93L64 79L66.25 78.93L68.26 78.74L70.01 78.45L71.52 78.08L72.76 77.67L73.73 77.23L74.43 76.79L74.86 76.37L75 76L74.99 75.92L74.96 75.83L74.92 75.74L74.86 75.65L74.78 75.55L74.69 75.46L74.58 75.36L74.46 75.25L74.32 75.15L73.44 75.54L72.46 75.88ZM51.02 76.26L51.03 76.39L51.06 76.51L51.03 76.39L51.02 76.26L51 76.13L51 76L51 76.13L51.02 76.26ZM72.46 71.88L71.4 72.17L70.27 72.42L69.09 72.63L67.85 72.79L66.59 72.91L65.3 72.98L64 73L62.7 72.98L61.41 72.91L60.15 72.79L58.91 72.63L57.73 72.42L56.6 72.17L55.54 71.88L54.56 71.54L53.68 71.15L53.54 71.25L53.42 71.36L53.31 71.46L53.22 71.55L53.14 71.65L53.08 71.74L53.04 71.83L53.01 71.92L53 72L53.14 72.37L53.57 72.79L54.27 73.23L55.24 73.67L56.48 74.08L57.99 74.45L59.74 74.74L61.75 74.93L64 75L66.25 74.93L68.26 74.74L70.01 74.45L71.52 74.08L72.76 73.67L73.73 73.23L74.43 72.79L74.86 72.37L75 72L74.99 71.92L74.96 71.83L74.92 71.74L74.86 71.65L74.78 71.55L74.69 71.46L74.58 71.36L74.46 71.25L74.32 71.15L73.44 71.54L72.46 71.88ZM87.4 72.17L85.69 72.53L83.85 72.79L81.95 72.95L80 73L79.46 73L78.93 72.98L78.4 72.96L77.87 72.93L77.35 72.89L76.83 72.84L76.73 73.06L76.62 73.26L76.5 73.46L76.36 73.65L76.21 73.83L76.05 73.99L76.17 74.12L76.29 74.25L76.4 74.39L76.5 74.53L76.6 74.68L76.69 74.83L77.2 74.88L77.73 74.92L78.27 74.95L78.83 74.98L79.41 74.99L80 75L83.29 74.85L86.01 74.45L88.17 73.88L89.73 73.23L90.68 72.58L91 72L90.98 71.87L90.92 71.74L90.82 71.6L90.69 71.46L90.52 71.3L90.32 71.15L88.96 71.71L87.4 72.17ZM87.4 68.17L85.69 68.53L83.85 68.79L81.95 68.95L80 69L79.46 69L78.93 68.98L78.4 68.96L77.87 68.93L77.35 68.89L76.83 68.84L76.73 69.06L76.62 69.26L76.5 69.46L76.36 69.65L76.21 69.83L76.05 69.99L76.17 70.12L76.29 70.25L76.4 70.39L76.5 70.53L76.6 70.68L76.69 70.83L77.2 70.88L77.73 70.92L78.27 70.95L78.83 70.98L79.41 70.99L80 71L83.29 70.85L86.01 70.45L88.17 69.88L89.73 69.23L90.68 68.58L91 68L90.98 67.87L90.92 67.74L90.82 67.6L90.69 67.46L90.52 67.3L90.32 67.15L88.96 67.71L87.4 68.17ZM59.74 65.26L57.99 65.55L56.48 65.92L55.24 66.33L54.27 66.77L53.57 67.21L53.14 67.63L53 68L53.14 68.37L53.57 68.79L54.27 69.23L55.24 69.67L56.48 70.08L57.99 70.45L59.74 70.74L61.75 70.93L64 71L66.25 70.93L68.26 70.74L70.01 70.45L71.52 70.08L72.76 69.67L73.73 69.23L74.43 68.79L74.86 68.37L75 68L74.86 67.63L74.43 67.21L73.73 66.77L72.76 66.33L71.52 65.92L70.01 65.55L68.26 65.26L66.25 65.07L64 65L61.75 65.07L59.74 65.26ZM86.44 64.39L84.91 64.66L83.31 64.85L81.67 64.96L80 65L78.92 64.99L77.83 64.94L76.76 64.85L75.68 64.73L74.61 64.57L73.54 64.37L72.49 64.13L73.33 64.42L74.1 64.75L74.81 65.1L75.42 65.48L75.95 65.9L76.38 66.35L76.7 66.83L77.14 66.87L77.59 66.91L78.05 66.94L78.52 66.97L79 66.98L79.49 67L80 67L82.85 66.89L85.29 66.58L87.32 66.14L88.91 65.61L90.06 65.04L90.76 64.49L91 64L90.99 63.89L90.94 63.78L90.87 63.66L90.77 63.54L90.64 63.41L90.5 63.28L90.32 63.15L89.17 63.64L87.86 64.05L86.44 64.39ZM69.52 63.28L69.44 63.35L69.37 63.42L69.91 63.51L70.44 63.61L70.97 63.73L71.5 63.85L71.04 63.7L70.58 63.53L70.12 63.35L69.68 63.15L69.6 63.21L69.52 63.28ZM88.46 59.88L87.4 60.17L86.27 60.42L85.09 60.63L83.85 60.79L82.59 60.91L81.3 60.98L80 61L78.7 60.98L77.41 60.91L76.15 60.79L74.91 60.63L73.73 60.42L72.6 60.17L71.54 59.88L70.56 59.54L69.68 59.15L69.54 59.25L69.42 59.36L69.31 59.46L69.22 59.55L69.14 59.65L69.08 59.74L69.04 59.83L69.01 59.92L69 60L69.14 60.37L69.57 60.79L70.27 61.23L71.24 61.67L72.48 62.08L73.99 62.45L75.74 62.74L77.75 62.93L80 63L82.25 62.93L84.26 62.74L86.01 62.45L87.52 62.08L88.76 61.67L89.73 61.23L90.43 60.79L90.86 60.37L91 60L90.99 59.92L90.96 59.83L90.92 59.74L90.86 59.65L90.78 59.55L90.69 59.46L90.58 59.36L90.46 59.25L90.32 59.15L89.44 59.54L88.46 59.88ZM75.74 53.26L73.99 53.55L72.48 53.92L71.24 54.33L70.27 54.77L69.57 55.21L69.14 55.63L69 56L69.14 56.37L69.57 56.79L70.27 57.23L71.24 57.67L72.48 58.08L73.99 58.45L75.74 58.74L77.75 58.93L80 59L82.25 58.93L84.26 58.74L86.01 58.45L87.52 58.08L88.76 57.67L89.73 57.23L90.43 56.79L90.86 56.37L91 56L90.86 55.63L90.43 55.21L89.73 54.77L88.76 54.33L87.52 53.92L86.01 53.55L84.26 53.26L82.25 53.07L80 53L77.75 53.07L75.74 53.26ZM47 37L69 37L69 25L47 25L47 37ZM33 37L45 37L45 25L33 25L33 37ZM9 37L31 37L31 25L9 25L9 37ZM28.56 9.44L27.47 9.96L26.49 10.65L25.65 11.49L24.96 12.47L24.44 13.56L24.11 14.74L24 16L24.11 17.26L24.44 18.44L24.96 19.53L25.65 20.51L26.49 21.35L27.47 22.04L28.56 22.56L29.74 22.89L31 23L38 23L38 16L37.89 14.74L37.56 13.56L37.04 12.47L36.35 11.49L35.51 10.65L34.53 9.96L33.44 9.44L32.26 9.11L31 9L29.74 9.11L28.56 9.44ZM44.56 9.44L43.47 9.96L42.49 10.65L41.65 11.49L40.96 12.47L40.44 13.56L40.11 14.74L40 16L40 23L47 23L48.26 22.89L49.44 22.56L50.53 22.04L51.51 21.35L52.35 20.51L53.04 19.53L53.56 18.44L53.89 17.26L54 16L53.89 14.74L53.56 13.56L53.04 12.47L52.35 11.49L51.51 10.65L50.53 9.96L49.44 9.44L48.26 9.11L47 9L45.74 9.11L44.56 9.44Z" id="bbCbvFzxW"></path><path d="M0 0L100 0L100 100L0 100L0 0Z" id="d8S8kiPTx0"></path></defs><g><g><g><use xlink:href="#ciWmGt9Ny" opacity="1" fill="#d6d6d6" fill-opacity="1"></use><g><use xlink:href="#ciWmGt9Ny" opacity="1" fill-opacity="0" stroke="#000000" stroke-width="1" stroke-opacity="0"></use></g></g><g><use xlink:href="#b5OzhDJgf" opacity="1" fill="#d6d6d6" fill-opacity="1"></use><g><use xlink:href="#b5OzhDJgf" opacity="1" fill-opacity="0" stroke="#000000" stroke-width="1" stroke-opacity="0"></use></g></g><g><use xlink:href="#a7tE2Th8z" opacity="1" fill="#d6d6d6" fill-opacity="1"></use><g><use xlink:href="#a7tE2Th8z" opacity="1" fill-opacity="0" stroke="#000000" stroke-width="1" stroke-opacity="0"></use></g></g><g><use xlink:href="#a4enR5uUqv" opacity="1" fill="#666666" fill-opacity="1"></use><g><use xlink:href="#a4enR5uUqv" opacity="1" fill-opacity="0" stroke="#000000" stroke-width="1" stroke-opacity="0"></use></g></g><g><use xlink:href="#bbCbvFzxW" opacity="1" fill="#666666" fill-opacity="1"></use><g><use xlink:href="#bbCbvFzxW" opacity="1" fill-opacity="0" stroke="#000000" stroke-width="1" stroke-opacity="0"></use></g></g><g><use xlink:href="#d8S8kiPTx0" opacity="1" fill="#000000" fill-opacity="0"></use><g><use xlink:href="#d8S8kiPTx0" opacity="1" fill-opacity="0" stroke="#000000" stroke-width="1" stroke-opacity="0"></use></g></g></g></g></svg>