<?xml version="1.0" encoding="UTF-8" standalone="no"?>
<!DOCTYPE svg PUBLIC "-//W3C//DTD SVG 1.1//EN" "http://www.w3.org/Graphics/SVG/1.1/DTD/svg11.dtd">
<svg version="1.1" xmlns="http://www.w3.org/2000/svg" xmlns:xlink="http://www.w3.org/1999/xlink" preserveAspectRatio="xMidYMid meet" viewBox="0 0 50 60" width="50" height="60"><defs><path d="M46.2 3.7L42.58 5.63L36.45 10.46L36.45 10.46L33.36 9.56L30.01 8.98L24.98 9.56L19.95 8.98L16.6 9.56L13.51 10.46L13.51 10.46L7.38 5.63L3.76 3.7L1.21 4.37L-0.04 6.25L-0.04 10.82L-0.04 13.45L0.85 16.45L0.94 19.44L2.91 23.38L3.04 27.53L2.15 32.19L1.7 37.92L3.94 41.54L7.43 44.51L8.19 45.16L10.96 50.93L15.27 54L15.27 54L16.87 55.13L24.98 56.83L24.98 56.83L24.98 56.83L24.98 56.83L24.98 56.83L33.09 55.13L34.69 54L39 50.93L41.77 45.16L42.53 44.51L46.02 41.54L48.26 37.92L47.81 32.19L46.92 27.53L47.05 23.38L49.02 19.44L49.11 16.45L50 13.45L50 10.82L50 6.25L48.75 4.37L46.2 3.7Z" id="d1Ju2YEg8U"></path><path d="M32.96 19.98L31.98 15.91L24.98 23.65L19.95 18.09L19.95 18.09L17.98 15.91L17 19.98L14.63 20.39L12.75 22.35L13.75 25.18L14.31 23.67L16.97 22.73L18.78 25.25L18.82 26.99L18.82 26.99L16.87 33.36L15.91 38.36L20.97 33.06L23.61 32.19L24.98 23.66L26.35 32.19L28.99 33.06L34.05 38.36L33.09 33.36L31.14 26.99L31.14 26.99L31.18 25.25L32.99 22.73L35.65 23.67L36.21 25.18L37.21 22.35L35.33 20.39L32.96 19.98Z" id="a1torAQWl6"></path><path d="M7.2 7.33L3.36 6.16L1.84 6.52L1.26 9.03L1.26 13.54L3.31 17.21L6.9 19.44L10.47 16.36L10.83 11.4L7.2 7.33Z" id="bk7soU4Gz"></path><path d="M24.06 13.8L24.98 13.95L24.98 22.73L24.06 13.8Z" id="a216S26Hko"></path><path d="" id="c8lp1f0FSC"></path><path d="M13.51 10.46L7.38 5.63L3.76 3.7L1.21 4.37L-0.04 6.25L-0.04 10.82L1.26 11.75L1.26 9.03L1.84 6.52L3.36 6.16L7.2 7.33L10.83 11.4L10.47 16.36L6.9 19.44L4.57 26.99L8.95 28.7L12.47 24.9L13.75 25.18L12.75 22.35L14.04 21L14.63 20.39L17 19.98L17.98 15.91L20.29 15.73L22.24 13.8L23.86 16.18L24.98 23.65L24.98 11.4L16.97 10.28L13.51 10.46Z" id="cUxbsLqtF"></path><path d="M3.45 35.93L6.04 29.89L8.95 28.7L4.57 26.99L15.59 11.75L10.47 16.36L6.9 19.44L2.91 23.38L2.15 32.19L1.7 37.92L3.94 41.54L3.45 35.93Z" id="caelZUPkl"></path><path d="M17.98 15.91L17 19.98L14.63 20.39L13.84 21.22L14.09 19.63L17.98 15.91Z" id="b3ImUae8df"></path><path d="M14.09 43.28L11.76 34.96L13.03 30.67L12.47 26.99L16.87 33.36L19.95 31.97L23.61 32.19L23.31 34.29L20.76 35.5L19.95 37.51L20.35 39.3L21.09 40.13L19.28 44.6L17.2 44.6L15.59 42.43L15.59 44L16.87 45.67L14.09 43.28Z" id="aC5YcRqtz"></path><path d="M10.83 11.4L13.75 12.38L15.59 11.75L10.47 16.36L10.83 11.4Z" id="c1zn1MoqO4"></path><path d="M10.47 16.36L10.83 11.4L8.82 9.18L10.02 12.02L10.47 16.36Z" id="a2h3MxUGba"></path><path d="M0.94 19.44L-0.04 13.45L-0.04 10.82L1.26 11.75L1.26 13.54L3.31 17.21L6.9 19.44L2.91 23.38L0.94 19.44Z" id="gnaJk7JxB"></path><path d="M13.75 23.03L17.43 21.35L16.97 22.73L14.31 23.67L13.75 25.18L13.75 23.03Z" id="aE1ZSFzwX"></path><path d="M14.88 26.89L13.75 25.18L12.47 24.9L11.76 25.66L12.47 26.99L13.19 28.03L16.87 33.36L18.82 26.99L17.07 27.53L14.88 26.89Z" id="a1dUYdxAbl"></path><path d="M18.6 46.16L16.87 45.67L14.09 43.28L13.27 40.36L9.82 44.6L8.19 45.16L10.96 50.93L15.27 54L18.6 52.31L21.79 50.7L19.62 49.7L18.6 46.16Z" id="d6MaHxSp31"></path><path d="M42.76 7.33L46.6 6.16L48.12 6.52L48.7 9.03L48.7 13.54L46.65 17.21L43.06 19.44L39.49 16.36L39.13 11.4L42.76 7.33Z" id="eAGNe6MsX"></path><path d="M31.18 25.25L32.99 22.73L35.65 23.67L36.21 25.18L35.08 26.89L32.89 27.53L31.18 26.99L31.18 25.25Z" id="jk1MPh125"></path><path d="M35.18 24.41C35.19 24.49 35.2 24.57 35.2 24.65C35.2 25.64 34.44 26.45 33.51 26.45C32.58 26.45 31.82 25.64 31.82 24.65C31.82 24.64 31.82 24.62 31.82 24.61C32.07 25.28 32.72 25.76 33.47 25.76C34.3 25.76 35 25.19 35.18 24.41Z" id="c6eetBHdu3"></path><path d="M31.82 24.61C31.84 23.64 32.59 22.86 33.51 22.86C34.37 22.86 35.07 23.54 35.18 24.41C35 25.19 34.3 25.76 33.47 25.76C32.72 25.76 32.07 25.28 31.82 24.61Z" id="a1FYQW1pxl"></path><path d="M35.08 24.44C35.08 24.44 34.74 23.54 33.43 23.74C33.43 23.74 34.1 24.31 34.2 24.71C34.38 24.66 34.99 24.47 35.08 24.44Z" id="e3giJ3KiRg"></path><path d="M25.9 13.8L24.98 13.95L24.98 22.73L25.9 13.8Z" id="felRnrhzl"></path><path d="M26.65 34.29L24.98 34.29L24.98 34.29L23.31 34.29L20.76 35.5L19.95 37.51L20.35 39.3L22.47 41.67L24.98 42.43L24.98 42.43L24.98 42.43L24.98 42.43L24.98 42.43L27.5 41.67L29.61 39.3L30.01 37.51L29.2 35.5L26.65 34.29Z" id="a2hni8gLne"></path><path d="M26.98 39.17L28.13 39.17L28.98 37.67L27.35 36.51L24.98 36.02L24.98 36.02L24.98 36.02L24.98 36.02L24.98 36.02L22.61 36.51L20.98 37.67L21.83 39.17L22.98 39.17L23.86 38.85L23.11 39.86L21.09 40.13L22.47 41.67L24.98 42.43L24.98 42.43L24.98 42.43L24.98 42.43L24.98 42.43L27.5 41.67L28.87 40.13L26.86 39.86L26.1 38.85L26.98 39.17Z" id="b2gTHM8PJ"></path><path d="M30.68 44.6L24.98 43.33L24.98 43.33L24.98 43.33L24.98 43.33L24.98 43.33L19.28 44.6L17.2 44.6L15.59 42.43L15.59 44L16.87 45.67L19.28 46.34L22.47 44.87L24.98 45.61L24.98 45.61L24.98 45.61L24.98 45.61L24.98 45.61L27.5 44.87L30.68 46.34L33.09 45.67L34.37 44L34.37 42.43L32.76 44.6L30.68 44.6Z" id="b3MITnRlNn"></path><path d="M27.5 44.87L24.98 45.61L22.47 44.87L19.28 46.34L22.47 48.07L24.98 48.56L24.98 48.56L24.98 48.56L24.98 48.56L24.98 48.56L27.5 48.07L30.68 46.34L27.5 44.87Z" id="c1deFnjiDE"></path><path d="M28.87 40.13L27.5 41.67L24.98 42.43L22.47 41.67L21.09 40.13L19.28 44.6L24.98 43.33L30.68 44.6L28.87 40.13Z" id="a7CyWcRub"></path><path d="M27.5 48.07L24.98 48.56L22.47 48.07L19.28 46.34L18.6 46.16L19.62 49.7L22.98 51.24L24.98 51.78L24.98 51.78L24.98 51.78L24.98 51.78L24.98 51.78L26.98 51.24L30.34 49.7L31.36 46.16L30.68 46.34L27.5 48.07Z" id="b2yQYKc2P6"></path><path d="" id="cudb5XUl8"></path><path d="M36.45 10.46L42.58 5.63L46.2 3.7L48.75 4.37L50 6.25L50 10.82L48.7 11.75L48.7 9.03L48.12 6.52L46.6 6.16L42.76 7.33L39.13 11.4L39.49 16.36L43.06 19.44L45.39 26.99L41.01 28.7L37.49 24.9L36.21 25.18L37.21 22.35L35.92 21L35.33 20.39L32.96 19.98L31.98 15.91L29.67 15.73L27.72 13.8L26.1 16.18L24.98 23.65L24.98 11.4L32.99 10.28L36.45 10.46Z" id="b2EpAhNguS"></path><path d="M46.51 35.93L43.92 29.89L41.01 28.7L45.39 26.99L34.37 11.75L39.49 16.36L43.06 19.44L47.05 23.38L47.81 32.19L48.26 37.92L46.02 41.54L46.51 35.93Z" id="a4BciwdRI"></path><path d="M33.36 9.56L30.01 8.98L24.98 9.56L19.95 8.98L16.6 9.56L13.51 10.46L16.97 10.28L24.98 11.4L24.98 11.4L24.98 11.4L24.98 11.4L24.98 11.4L32.99 10.28L36.45 10.46L33.36 9.56Z" id="b8q2ikLTWG"></path><path d="M31.98 15.91L32.96 19.98L35.33 20.39L36.12 21.22L35.87 19.63L31.98 15.91Z" id="b2Z64X1EmA"></path><path d="M35.87 43.28L38.2 34.96L36.93 30.67L37.49 26.99L33.09 33.36L30.01 31.97L26.35 32.19L26.65 34.29L29.2 35.5L30.01 37.51L29.61 39.3L28.87 40.13L30.68 44.6L32.76 44.6L34.37 42.43L34.37 44L33.09 45.67L35.87 43.28Z" id="assiIbYwv"></path><path d="M31.98 15.91L29.67 15.73L27.72 13.8L28.08 12.25L24.98 11.4L24.98 11.4L24.98 11.4L24.98 11.4L24.98 11.4L21.88 12.25L22.24 13.8L20.29 15.73L17.98 15.91L24.98 23.65L24.98 23.65L24.98 23.65L24.98 23.65L24.98 23.65L31.98 15.91Z" id="dGsfxIZCQ"></path><path d="M39.13 11.4L36.21 12.38L34.37 11.75L39.49 16.36L39.13 11.4Z" id="d6MKWmWq7m"></path><path d="M39.49 16.36L39.13 11.4L41.14 9.18L39.94 12.02L39.49 16.36Z" id="bHiRkOH3o"></path><path d="M49.02 19.44L50 13.45L50 10.82L48.7 11.75L48.7 13.54L46.65 17.21L43.06 19.44L47.05 23.38L49.02 19.44Z" id="ajA9uQ2ie"></path><path d="M36.21 23.03L32.53 21.35L32.99 22.73L35.65 23.67L36.21 25.18L36.21 23.03Z" id="b2u4ojdyQx"></path><path d="M30.01 18.09L24.98 23.65L28.95 25.53L30.01 18.09Z" id="c1ga1aPvMV"></path><path d="M28.17 50.7L26.98 51.24L24.98 51.78L22.98 51.24L21.79 50.7L15.27 54L16.87 55.13L24.98 56.83L24.98 56.83L24.98 56.83L24.98 56.83L24.98 56.83L33.09 55.13L34.69 54L28.17 50.7Z" id="akq92Kw5"></path><path d="M8.95 28.7L6.04 29.89L3.45 35.93L3.94 41.54L7.43 44.51L7.43 40.69L8.61 37.27L10.99 32.83L10.83 26.65L10.12 27.43L8.95 28.7Z" id="e2yTIPlq98"></path><path d="M41.01 28.7L39.84 27.43L39.13 26.65L38.97 32.83L41.35 37.27L42.53 40.69L42.53 44.51L46.02 41.54L46.51 35.93L43.92 29.89L41.01 28.7Z" id="a2zeRjYPG"></path><path d="M36.21 25.18L35.08 26.89L32.89 27.53L31.14 26.99L33.09 33.36L36.77 28.03L37.49 26.99L38.2 25.66L37.49 24.9L36.21 25.18Z" id="aO1zPOBxy"></path><path d="M38.2 25.66L37.49 26.99L36.93 30.67L38.2 34.96L36.69 40.36L40.14 44.6L41.77 45.16L44.97 42.43L39.13 26.65L38.2 25.66Z" id="dya7AcZ8M"></path><path d="M36.69 40.36L35.87 43.28L33.09 45.67L31.36 46.16L30.34 49.7L28.17 50.7L31.36 52.31L34.69 54L39 50.93L41.77 45.16L40.14 44.6L36.69 40.36Z" id="e18qRnPaBF"></path><path d="" id="b2xHs7nKWc"></path><path d="M11.76 25.66L12.47 26.99L13.03 30.67L11.76 34.96L13.27 40.36L9.82 44.6L8.19 45.16L4.99 42.43L10.83 26.65L11.76 25.66Z" id="dwiR0Ym67"></path><path d="M18.78 25.25L16.97 22.73L14.31 23.67L13.75 25.18L14.88 26.89L17.07 27.53L18.78 26.99L18.78 25.25Z" id="keKqdA3eD"></path><path d="M14.78 24.41C14.77 24.49 14.76 24.57 14.76 24.65C14.76 25.64 15.52 26.45 16.45 26.45C17.38 26.45 18.14 25.64 18.14 24.65C18.14 24.64 18.14 24.62 18.14 24.61C17.89 25.28 17.24 25.76 16.49 25.76C15.66 25.76 14.97 25.19 14.78 24.41Z" id="f1ajFF36Tb"></path><path d="M18.14 24.61C18.12 23.64 17.37 22.86 16.45 22.86C15.6 22.86 14.89 23.54 14.78 24.41C14.97 25.19 15.66 25.76 16.49 25.76C17.24 25.76 17.89 25.28 18.14 24.61Z" id="c2soA5z9dl"></path><path d="M14.88 24.44C14.88 24.44 15.22 23.54 16.53 23.74C16.53 23.74 15.86 24.31 15.76 24.71C15.58 24.66 14.97 24.47 14.88 24.44Z" id="a1XKuJa62P"></path><path d="M24.98 23.65L23.31 34.29L24.98 34.29L24.98 34.29L26.65 34.29L24.98 23.65L24.98 23.65Z" id="a2LF2xAvjK"></path><path d="M43.05 46.41C43.12 46.41 43.65 46.41 43.72 46.41C43.72 46.48 43.72 46.55 43.72 46.62C43.71 46.62 43.63 46.62 43.5 46.62C43.5 47.03 43.5 47.27 43.5 47.31C43.42 47.31 43.35 47.31 43.27 47.31C43.27 47.27 43.27 47.03 43.27 46.62L43.05 46.62C43.05 46.53 43.05 46.46 43.05 46.41Z" id="a4p9Z1c0xa"></path><path d="M44.74 46.41C44.74 46.95 44.74 47.26 44.74 47.32C44.66 47.32 44.59 47.32 44.51 47.32C44.51 47.29 44.51 47.16 44.51 46.91L44.31 47.12L44.29 47.12L44.1 46.91C44.1 47.16 44.1 47.29 44.1 47.32C44.02 47.32 43.94 47.32 43.86 47.32C43.86 47.26 43.86 46.95 43.86 46.41L43.95 46.41L44.3 46.8L44.66 46.41L44.74 46.41Z" id="e4dJKvYSV5"></path><path d="M44.94 45.81L45.26 46.28L45.37 46.86L45.26 47.43L44.94 47.9L44.47 48.22L43.9 48.34L43.32 48.22L42.85 47.9L42.54 47.43L42.42 46.86L42.54 46.29L42.85 45.82L43.32 45.5L43.9 45.38L44.47 45.5L44.94 45.81ZM42.98 45.94L42.7 46.35L42.6 46.86L42.7 47.36L42.98 47.78L43.39 48.06L43.9 48.16L44.4 48.06L44.81 47.78L45.09 47.36L45.2 46.86L45.09 46.35L44.82 45.94L44.4 45.66L43.9 45.56L43.39 45.66L42.98 45.94Z" id="denQ7xPq"></path></defs><g><g><g><use xlink:href="#d1Ju2YEg8U" opacity="1" fill="#cc8e58" fill-opacity="1"></use><g><use xlink:href="#d1Ju2YEg8U" opacity="1" fill-opacity="0" stroke="#000000" stroke-width="1" stroke-opacity="0"></use></g></g><g><use xlink:href="#a1torAQWl6" opacity="1" fill="#cc8e58" fill-opacity="1"></use><g><use xlink:href="#a1torAQWl6" opacity="1" fill-opacity="0" stroke="#000000" stroke-width="1" stroke-opacity="0"></use></g></g><g><use xlink:href="#bk7soU4Gz" opacity="1" fill="#2d2113" fill-opacity="1"></use><g><use xlink:href="#bk7soU4Gz" opacity="1" fill-opacity="0" stroke="#000000" stroke-width="1" stroke-opacity="0"></use></g></g><g><use xlink:href="#a216S26Hko" opacity="1" fill="#2c1800" fill-opacity="1"></use><g><use xlink:href="#a216S26Hko" opacity="1" fill-opacity="0" stroke="#000000" stroke-width="1" stroke-opacity="0"></use></g></g><g><use xlink:href="#c8lp1f0FSC" opacity="1" fill="#000000" fill-opacity="1"></use><g><use xlink:href="#c8lp1f0FSC" opacity="1" fill-opacity="0" stroke="#000000" stroke-width="1" stroke-opacity="0"></use></g></g><g><use xlink:href="#cUxbsLqtF" opacity="1" fill="#a8633a" fill-opacity="1"></use><g><use xlink:href="#cUxbsLqtF" opacity="1" fill-opacity="0" stroke="#000000" stroke-width="1" stroke-opacity="0"></use></g></g><g><use xlink:href="#caelZUPkl" opacity="1" fill="#cc8e58" fill-opacity="1"></use><g><use xlink:href="#caelZUPkl" opacity="1" fill-opacity="0" stroke="#000000" stroke-width="1" stroke-opacity="0"></use></g></g><g><use xlink:href="#b3ImUae8df" opacity="1" fill="#a8633a" fill-opacity="1"></use><g><use xlink:href="#b3ImUae8df" opacity="1" fill-opacity="0" stroke="#000000" stroke-width="1" stroke-opacity="0"></use></g></g><g><use xlink:href="#aC5YcRqtz" opacity="1" fill="#ebe8db" fill-opacity="1"></use><g><use xlink:href="#aC5YcRqtz" opacity="1" fill-opacity="0" stroke="#000000" stroke-width="1" stroke-opacity="0"></use></g></g><g><use xlink:href="#c1zn1MoqO4" opacity="1" fill="#5d2900" fill-opacity="1"></use><g><use xlink:href="#c1zn1MoqO4" opacity="1" fill-opacity="0" stroke="#000000" stroke-width="1" stroke-opacity="0"></use></g></g><g><use xlink:href="#a2h3MxUGba" opacity="1" fill="#5d2900" fill-opacity="1"></use><g><use xlink:href="#a2h3MxUGba" opacity="1" fill-opacity="0" stroke="#000000" stroke-width="1" stroke-opacity="0"></use></g></g><g><use xlink:href="#gnaJk7JxB" opacity="1" fill="#a8633a" fill-opacity="1"></use><g><use xlink:href="#gnaJk7JxB" opacity="1" fill-opacity="0" stroke="#000000" stroke-width="1" stroke-opacity="0"></use></g></g><g><use xlink:href="#aE1ZSFzwX" opacity="1" fill="#a8633a" fill-opacity="1"></use><g><use xlink:href="#aE1ZSFzwX" opacity="1" fill-opacity="0" stroke="#000000" stroke-width="1" stroke-opacity="0"></use></g></g><g><use xlink:href="#a1dUYdxAbl" opacity="1" fill="#d6b795" fill-opacity="1"></use><g><use xlink:href="#a1dUYdxAbl" opacity="1" fill-opacity="0" stroke="#000000" stroke-width="1" stroke-opacity="0"></use></g></g><g><use xlink:href="#d6MaHxSp31" opacity="1" fill="#dbd5c3" fill-opacity="1"></use><g><use xlink:href="#d6MaHxSp31" opacity="1" fill-opacity="0" stroke="#000000" stroke-width="1" stroke-opacity="0"></use></g></g><g><use xlink:href="#eAGNe6MsX" opacity="1" fill="#2d2113" fill-opacity="1"></use><g><use xlink:href="#eAGNe6MsX" opacity="1" fill-opacity="0" stroke="#000000" stroke-width="1" stroke-opacity="0"></use></g></g><g><use xlink:href="#jk1MPh125" opacity="1" fill="#2c1800" fill-opacity="1"></use><g><use xlink:href="#jk1MPh125" opacity="1" fill-opacity="0" stroke="#000000" stroke-width="1" stroke-opacity="0"></use></g></g><g><use xlink:href="#c6eetBHdu3" opacity="1" fill="#4d2f00" fill-opacity="1"></use><g><use xlink:href="#c6eetBHdu3" opacity="1" fill-opacity="0" stroke="#000000" stroke-width="1" stroke-opacity="0"></use></g></g><g><use xlink:href="#a1FYQW1pxl" opacity="1" fill="#2c1800" fill-opacity="1"></use><g><use xlink:href="#a1FYQW1pxl" opacity="1" fill-opacity="0" stroke="#000000" stroke-width="1" stroke-opacity="0"></use></g></g><g><use xlink:href="#e3giJ3KiRg" opacity="1" fill="#ecd9cb" fill-opacity="1"></use><g><use xlink:href="#e3giJ3KiRg" opacity="1" fill-opacity="0" stroke="#000000" stroke-width="1" stroke-opacity="0"></use></g></g><g><use xlink:href="#felRnrhzl" opacity="1" fill="#2c1800" fill-opacity="1"></use><g><use xlink:href="#felRnrhzl" opacity="1" fill-opacity="0" stroke="#000000" stroke-width="1" stroke-opacity="0"></use></g></g><g><use xlink:href="#a2hni8gLne" opacity="1" fill="#262626" fill-opacity="1"></use><g><use xlink:href="#a2hni8gLne" opacity="1" fill-opacity="0" stroke="#000000" stroke-width="1" stroke-opacity="0"></use></g></g><g><use xlink:href="#b2gTHM8PJ" opacity="1" fill="#000000" fill-opacity="1"></use><g><use xlink:href="#b2gTHM8PJ" opacity="1" fill-opacity="0" stroke="#000000" stroke-width="1" stroke-opacity="0"></use></g></g><g><use xlink:href="#b3MITnRlNn" opacity="1" fill="#000000" fill-opacity="1"></use><g><use xlink:href="#b3MITnRlNn" opacity="1" fill-opacity="0" stroke="#000000" stroke-width="1" stroke-opacity="0"></use></g></g><g><use xlink:href="#c1deFnjiDE" opacity="1" fill="#918a85" fill-opacity="1"></use><g><use xlink:href="#c1deFnjiDE" opacity="1" fill-opacity="0" stroke="#000000" stroke-width="1" stroke-opacity="0"></use></g></g><g><use xlink:href="#a7CyWcRub" opacity="1" fill="#5c524a" fill-opacity="1"></use><g><use xlink:href="#a7CyWcRub" opacity="1" fill-opacity="0" stroke="#000000" stroke-width="1" stroke-opacity="0"></use></g></g><g><use xlink:href="#b2yQYKc2P6" opacity="1" fill="#ebe8db" fill-opacity="1"></use><g><use xlink:href="#b2yQYKc2P6" opacity="1" fill-opacity="0" stroke="#000000" stroke-width="1" stroke-opacity="0"></use></g></g><g><use xlink:href="#cudb5XUl8" opacity="1" fill="#000000" fill-opacity="1"></use><g><use xlink:href="#cudb5XUl8" opacity="1" fill-opacity="0" stroke="#000000" stroke-width="1" stroke-opacity="0"></use></g></g><g><use xlink:href="#b2EpAhNguS" opacity="1" fill="#a8633a" fill-opacity="1"></use><g><use xlink:href="#b2EpAhNguS" opacity="1" fill-opacity="0" stroke="#000000" stroke-width="1" stroke-opacity="0"></use></g></g><g><use xlink:href="#a4BciwdRI" opacity="1" fill="#cc8e58" fill-opacity="1"></use><g><use xlink:href="#a4BciwdRI" opacity="1" fill-opacity="0" stroke="#000000" stroke-width="1" stroke-opacity="0"></use></g></g><g><use xlink:href="#b8q2ikLTWG" opacity="1" fill="#a8633a" fill-opacity="1"></use><g><use xlink:href="#b8q2ikLTWG" opacity="1" fill-opacity="0" stroke="#000000" stroke-width="1" stroke-opacity="0"></use></g></g><g><use xlink:href="#b2Z64X1EmA" opacity="1" fill="#a8633a" fill-opacity="1"></use><g><use xlink:href="#b2Z64X1EmA" opacity="1" fill-opacity="0" stroke="#000000" stroke-width="1" stroke-opacity="0"></use></g></g><g><use xlink:href="#assiIbYwv" opacity="1" fill="#ebe8db" fill-opacity="1"></use><g><use xlink:href="#assiIbYwv" opacity="1" fill-opacity="0" stroke="#000000" stroke-width="1" stroke-opacity="0"></use></g></g><g><use xlink:href="#dGsfxIZCQ" opacity="1" fill="#a8633a" fill-opacity="1"></use><g><use xlink:href="#dGsfxIZCQ" opacity="1" fill-opacity="0" stroke="#000000" stroke-width="1" stroke-opacity="0"></use></g></g><g><use xlink:href="#d6MKWmWq7m" opacity="1" fill="#5d2900" fill-opacity="1"></use><g><use xlink:href="#d6MKWmWq7m" opacity="1" fill-opacity="0" stroke="#000000" stroke-width="1" stroke-opacity="0"></use></g></g><g><use xlink:href="#bHiRkOH3o" opacity="1" fill="#5d2900" fill-opacity="1"></use><g><use xlink:href="#bHiRkOH3o" opacity="1" fill-opacity="0" stroke="#000000" stroke-width="1" stroke-opacity="0"></use></g></g><g><use xlink:href="#ajA9uQ2ie" opacity="1" fill="#a8633a" fill-opacity="1"></use><g><use xlink:href="#ajA9uQ2ie" opacity="1" fill-opacity="0" stroke="#000000" stroke-width="1" stroke-opacity="0"></use></g></g><g><use xlink:href="#b2u4ojdyQx" opacity="1" fill="#a8633a" fill-opacity="1"></use><g><use xlink:href="#b2u4ojdyQx" opacity="1" fill-opacity="0" stroke="#000000" stroke-width="1" stroke-opacity="0"></use></g></g><g><use xlink:href="#c1ga1aPvMV" opacity="1" fill="#cc8e58" fill-opacity="1"></use><g><use xlink:href="#c1ga1aPvMV" opacity="1" fill-opacity="0" stroke="#000000" stroke-width="1" stroke-opacity="0"></use></g></g><g><use xlink:href="#akq92Kw5" opacity="1" fill="#807664" fill-opacity="1"></use><g><use xlink:href="#akq92Kw5" opacity="1" fill-opacity="0" stroke="#000000" stroke-width="1" stroke-opacity="0"></use></g></g><g><use xlink:href="#e2yTIPlq98" opacity="1" fill="#dbd5c3" fill-opacity="1"></use><g><use xlink:href="#e2yTIPlq98" opacity="1" fill-opacity="0" stroke="#000000" stroke-width="1" stroke-opacity="0"></use></g></g><g><use xlink:href="#a2zeRjYPG" opacity="1" fill="#dbd5c3" fill-opacity="1"></use><g><use xlink:href="#a2zeRjYPG" opacity="1" fill-opacity="0" stroke="#000000" stroke-width="1" stroke-opacity="0"></use></g></g><g><use xlink:href="#aO1zPOBxy" opacity="1" fill="#d6b795" fill-opacity="1"></use><g><use xlink:href="#aO1zPOBxy" opacity="1" fill-opacity="0" stroke="#000000" stroke-width="1" stroke-opacity="0"></use></g></g><g><use xlink:href="#dya7AcZ8M" opacity="1" fill="#cfc7af" fill-opacity="1"></use><g><use xlink:href="#dya7AcZ8M" opacity="1" fill-opacity="0" stroke="#000000" stroke-width="1" stroke-opacity="0"></use></g></g><g><use xlink:href="#e18qRnPaBF" opacity="1" fill="#dbd5c3" fill-opacity="1"></use><g><use xlink:href="#e18qRnPaBF" opacity="1" fill-opacity="0" stroke="#000000" stroke-width="1" stroke-opacity="0"></use></g></g><g><use xlink:href="#b2xHs7nKWc" opacity="1" fill="#a8633a" fill-opacity="1"></use><g><use xlink:href="#b2xHs7nKWc" opacity="1" fill-opacity="0" stroke="#000000" stroke-width="1" stroke-opacity="0"></use></g></g><g><use xlink:href="#dwiR0Ym67" opacity="1" fill="#cfc7af" fill-opacity="1"></use><g><use xlink:href="#dwiR0Ym67" opacity="1" fill-opacity="0" stroke="#000000" stroke-width="1" stroke-opacity="0"></use></g></g><g><use xlink:href="#keKqdA3eD" opacity="1" fill="#2c1800" fill-opacity="1"></use><g><use xlink:href="#keKqdA3eD" opacity="1" fill-opacity="0" stroke="#000000" stroke-width="1" stroke-opacity="0"></use></g></g><g><use xlink:href="#f1ajFF36Tb" opacity="1" fill="#4d2f00" fill-opacity="1"></use><g><use xlink:href="#f1ajFF36Tb" opacity="1" fill-opacity="0" stroke="#000000" stroke-width="1" stroke-opacity="0"></use></g></g><g><use xlink:href="#c2soA5z9dl" opacity="1" fill="#2c1800" fill-opacity="1"></use><g><use xlink:href="#c2soA5z9dl" opacity="1" fill-opacity="0" stroke="#000000" stroke-width="1" stroke-opacity="0"></use></g></g><g><use xlink:href="#a1XKuJa62P" opacity="1" fill="#ecd9cb" fill-opacity="1"></use><g><use xlink:href="#a1XKuJa62P" opacity="1" fill-opacity="0" stroke="#000000" stroke-width="1" stroke-opacity="0"></use></g></g><g><use xlink:href="#a2LF2xAvjK" opacity="1" fill="#d9aa8b" fill-opacity="1"></use><g><use xlink:href="#a2LF2xAvjK" opacity="1" fill-opacity="0" stroke="#000000" stroke-width="1" stroke-opacity="0"></use></g></g><g><use xlink:href="#a4p9Z1c0xa" opacity="1" fill="#cc8e58" fill-opacity="1"></use><g><use xlink:href="#a4p9Z1c0xa" opacity="1" fill-opacity="0" stroke="#000000" stroke-width="1" stroke-opacity="0"></use></g></g><g><use xlink:href="#e4dJKvYSV5" opacity="1" fill="#cc8e58" fill-opacity="1"></use><g><use xlink:href="#e4dJKvYSV5" opacity="1" fill-opacity="0" stroke="#000000" stroke-width="1" stroke-opacity="0"></use></g></g><g><use xlink:href="#denQ7xPq" opacity="1" fill="#cc8e58" fill-opacity="1"></use><g><use xlink:href="#denQ7xPq" opacity="1" fill-opacity="0" stroke="#000000" stroke-width="1" stroke-opacity="0"></use></g></g></g></g></svg>