<?xml version="1.0" encoding="UTF-8" standalone="no"?>
<!DOCTYPE svg PUBLIC "-//W3C//DTD SVG 1.1//EN" "http://www.w3.org/Graphics/SVG/1.1/DTD/svg11.dtd">
<svg version="1.1" xmlns="http://www.w3.org/2000/svg" xmlns:xlink="http://www.w3.org/1999/xlink" preserveAspectRatio="xMidYMid meet" viewBox="0 0 640 640" width="640" height="640"><defs><path d="M52.62 26.14L53.89 26.31L55.15 26.55L56.38 26.86L57.59 27.22L58.76 27.65L59.91 28.14L61.03 28.68L62.11 29.28L63.16 29.93L64.17 30.63L65.15 31.38L66.08 32.18L66.97 33.03L67.82 33.92L68.62 34.85L69.37 35.83L70.07 36.84L70.72 37.89L71.32 38.97L71.86 40.09L72.35 41.24L72.78 42.41L73.14 43.62L73.45 44.85L73.69 46.11L73.86 47.38L73.96 48.68L74 50L73.96 51.32L73.86 52.62L73.69 53.89L73.45 55.15L73.14 56.38L72.78 57.59L72.35 58.76L71.86 59.91L71.32 61.03L70.72 62.11L70.07 63.16L69.37 64.17L68.62 65.15L67.82 66.08L66.97 66.97L66.08 67.82L65.15 68.62L64.17 69.37L63.16 70.07L62.11 70.72L61.03 71.32L59.91 71.86L58.76 72.35L57.59 72.78L56.38 73.14L55.15 73.45L53.89 73.69L52.62 73.86L51.32 73.96L50 74L48.68 73.96L47.38 73.86L46.11 73.69L44.85 73.45L43.62 73.14L42.41 72.78L41.24 72.35L40.09 71.86L38.97 71.32L37.89 70.72L36.84 70.07L35.83 69.37L34.85 68.62L33.92 67.82L33.03 66.97L32.18 66.08L31.38 65.15L30.63 64.17L29.93 63.16L29.28 62.11L28.68 61.03L28.14 59.91L27.65 58.76L27.22 57.59L26.86 56.38L26.55 55.15L26.31 53.89L26.14 52.62L26.04 51.32L26 50L26.04 48.68L26.14 47.38L26.31 46.11L26.55 44.85L26.86 43.62L27.22 42.41L27.65 41.24L28.14 40.09L28.68 38.97L29.28 37.89L29.93 36.84L30.63 35.83L31.38 34.85L32.18 33.92L33.03 33.03L33.92 32.18L34.85 31.38L35.83 30.63L36.84 29.93L37.89 29.28L38.97 28.68L40.09 28.14L41.24 27.65L42.41 27.22L43.62 26.86L44.85 26.55L46.11 26.31L47.38 26.14L48.68 26.04L50 26L51.32 26.04L52.62 26.14ZM47.34 32.2L46.05 32.43L44.8 32.76L43.59 33.18L42.41 33.67L41.28 34.25L40.2 34.9L39.17 35.62L38.19 36.42L37.27 37.27L36.42 38.19L35.62 39.17L34.9 40.2L34.25 41.28L33.67 42.41L33.18 43.59L32.76 44.8L32.43 46.05L32.2 47.34L32.05 48.66L32 50L32.05 51.34L32.2 52.66L32.43 53.95L32.76 55.2L33.18 56.41L33.67 57.59L34.25 58.72L34.9 59.8L35.62 60.83L36.42 61.81L37.27 62.73L38.19 63.58L39.17 64.38L40.2 65.1L41.28 65.75L42.41 66.33L43.59 66.82L44.8 67.24L46.05 67.57L47.34 67.8L48.66 67.95L50 68L51.34 67.95L52.66 67.8L53.95 67.57L55.2 67.24L56.41 66.82L57.59 66.33L58.72 65.75L59.8 65.1L60.83 64.38L61.81 63.58L62.73 62.73L63.58 61.81L64.38 60.83L65.1 59.8L65.75 58.72L66.33 57.59L66.82 56.41L67.24 55.2L67.57 53.95L67.8 52.66L67.95 51.34L68 50L67.95 48.66L67.8 47.34L67.57 46.05L67.24 44.8L66.82 43.59L66.33 42.41L65.75 41.28L65.1 40.2L64.38 39.17L63.58 38.19L62.73 37.27L61.81 36.42L60.83 35.62L59.8 34.9L58.72 34.25L57.59 33.67L56.41 33.18L55.2 32.76L53.95 32.43L52.66 32.2L51.34 32.05L50 32L48.66 32.05L47.34 32.2Z" id="gSDaad1FP"></path><path d="M52.69 31.19L53.99 31.42L55.26 31.74L56.49 32.14L57.69 32.63L58.84 33.19L59.95 33.82L61.01 34.52L62.02 35.29L62.97 36.13L63.87 37.03L64.71 37.98L65.48 38.99L66.18 40.05L66.81 41.16L67.37 42.31L67.86 43.51L68.26 44.74L68.58 46.01L68.81 47.31L68.95 48.64L69 50L68.95 51.36L68.81 52.69L68.58 53.99L68.26 55.26L67.86 56.49L67.38 57.69L66.82 58.85L66.19 59.95L65.48 61.02L64.71 62.02L63.88 62.98L62.98 63.88L62.02 64.71L61.02 65.48L59.95 66.19L58.85 66.82L57.69 67.38L56.49 67.86L55.26 68.26L53.99 68.58L52.69 68.81L51.36 68.95L50 69L48.64 68.95L47.31 68.81L46.01 68.58L44.74 68.26L43.51 67.86L42.31 67.38L41.15 66.82L40.05 66.19L38.98 65.48L37.98 64.71L37.02 63.88L36.12 62.98L35.29 62.02L34.52 61.02L33.81 59.95L33.18 58.85L32.62 57.69L32.14 56.49L31.74 55.26L31.42 53.99L31.19 52.69L31.05 51.36L31 50L31.05 48.64L31.19 47.31L31.42 46.01L31.74 44.74L32.14 43.51L32.62 42.31L33.18 41.15L33.81 40.05L34.52 38.98L35.29 37.98L36.12 37.02L37.02 36.12L37.98 35.29L38.98 34.52L40.05 33.81L41.15 33.18L42.31 32.62L43.51 32.14L44.74 31.74L46.01 31.42L47.31 31.19L48.64 31.05L50 31L51.36 31.05L52.69 31.19ZM47.37 33.2L46.1 33.45L44.87 33.79L43.67 34.22L42.52 34.73L41.42 35.32L40.37 35.99L39.37 36.73L38.43 37.55L37.55 38.43L36.73 39.37L35.99 40.37L35.32 41.42L34.73 42.52L34.22 43.67L33.79 44.87L33.45 46.1L33.2 47.37L33.05 48.67L33 50L33.05 51.33L33.2 52.63L33.45 53.9L33.79 55.13L34.22 56.33L34.73 57.48L35.32 58.58L35.99 59.63L36.73 60.63L37.55 61.57L38.43 62.45L39.37 63.27L40.37 64.01L41.42 64.68L42.52 65.27L43.67 65.78L44.87 66.21L46.1 66.55L47.37 66.8L48.67 66.95L50 67L51.33 66.95L52.63 66.8L53.9 66.55L55.13 66.21L56.32 65.78L57.47 65.27L58.58 64.67L59.63 64L60.63 63.26L61.57 62.45L62.45 61.57L63.26 60.63L64 59.63L64.67 58.58L65.27 57.47L65.78 56.32L66.21 55.13L66.55 53.9L66.8 52.63L66.95 51.33L67 50L66.95 48.67L66.8 47.37L66.55 46.1L66.21 44.87L65.78 43.67L65.27 42.52L64.68 41.42L64.01 40.37L63.27 39.37L62.45 38.43L61.57 37.55L60.63 36.73L59.63 35.99L58.58 35.32L57.48 34.73L56.33 34.22L55.13 33.79L53.9 33.45L52.63 33.2L51.33 33.05L50 33L48.67 33.05L47.37 33.2Z" id="badrbkIXE"></path><path d="M83 56L85 56L85 60L83 60L83 56Z" id="hatgk5Cp0"></path><path d="M83 44L85 44L85 52L83 52L83 44Z" id="aBlum8dvK"></path><path d="M15 48L17 48L17 56L15 56L15 48Z" id="dY1wt9jA3"></path><path d="M15 40L17 40L17 44L15 44L15 40Z" id="eoH0qtpnO"></path><path d="M41.97 26.33L42.8 26.06L43.64 25.82L44.49 25.61L45.33 25.44L46.18 25.29L47.03 25.17L47.87 25.08L48.72 25.03L49.57 25L50.41 25L51.26 25.02L52.1 25.08L52.93 25.16L53.77 25.28L54.59 25.42L55.41 25.58L56.23 25.78L57.03 26L57.83 26.25L58.62 26.52L59.4 26.82L60.17 27.15L60.93 27.5L61.68 27.88L62.42 28.28L63.14 28.71L63.85 29.17L64.54 29.64L65.22 30.15L65.89 30.67L66.53 31.22L67.16 31.8L67.78 32.4L68.37 33.02L68.95 33.66L69.5 34.33L70.03 35.02L70.55 35.73L71.04 36.46L71.58 37.34L72.08 38.23L72.53 39.14L72.95 40.05L73.33 40.97L73.67 41.91L73.98 42.85L74.24 43.8L74.46 44.75L74.65 45.71L74.79 46.67L74.9 47.63L74.97 48.6L75.01 49.56L75.01 50.52L74.97 51.49L74.89 52.44L74.78 53.4L74.63 54.34L74.44 55.29L74.22 56.22L73.96 57.14L73.67 58.06L73.34 58.96L72.98 59.85L72.58 60.73L72.15 61.59L71.69 62.44L71.19 63.27L70.66 64.09L70.09 64.88L69.49 65.66L68.86 66.41L68.2 67.14L67.5 67.85L66.77 68.53L66.01 69.19L65.22 69.82L64.39 70.43L63.54 71L68 71L68 73L61.16 73L76 90.46L90.84 73L83 73L83 64L85 64L85 71L95.16 71L76 93.54L58.86 73.37L58.03 73.67L57.2 73.94L56.36 74.18L55.51 74.39L54.67 74.56L53.82 74.71L52.97 74.83L52.13 74.92L51.28 74.97L50.43 75L49.59 75L48.74 74.98L47.9 74.92L47.07 74.84L46.23 74.72L45.41 74.58L44.59 74.42L43.77 74.22L42.97 74L42.17 73.75L41.38 73.48L40.6 73.18L39.83 72.85L39.07 72.5L38.32 72.12L37.58 71.72L36.86 71.29L36.15 70.83L35.46 70.36L34.78 69.85L34.11 69.33L33.47 68.78L32.84 68.2L32.22 67.6L31.63 66.98L31.05 66.34L30.5 65.67L29.97 64.98L29.45 64.27L28.96 63.54L28.42 62.66L27.92 61.77L27.47 60.86L27.05 59.95L26.67 59.03L26.33 58.09L26.02 57.15L25.76 56.2L25.54 55.25L25.35 54.29L25.21 53.33L25.1 52.37L25.03 51.4L24.99 50.44L24.99 49.48L25.03 48.51L25.11 47.56L25.22 46.6L25.37 45.66L25.56 44.71L25.78 43.78L26.04 42.86L26.33 41.94L26.66 41.04L27.02 40.15L27.42 39.27L27.85 38.41L28.31 37.56L28.81 36.73L29.34 35.91L29.91 35.12L30.51 34.34L31.14 33.59L31.8 32.86L32.5 32.15L33.23 31.47L33.99 30.81L34.78 30.18L35.61 29.57L36.46 29L32 29L32 27L38.84 27L24 9.54L9.16 27L17 27L17 36L15 36L15 29L4.84 29L24 6.46L41.14 26.63L41.97 26.33ZM47.32 27.15L46.01 27.34L44.73 27.61L43.47 27.94L42.24 28.34L41.05 28.81L39.89 29.34L38.76 29.93L37.67 30.58L36.62 31.29L35.61 32.05L34.65 32.87L33.74 33.74L32.87 34.65L32.05 35.61L31.29 36.62L30.58 37.67L29.93 38.76L29.34 39.89L28.81 41.05L28.34 42.24L27.94 43.47L27.61 44.73L27.34 46.01L27.15 47.32L27.04 48.65L27 50L27.04 51.35L27.16 52.68L27.35 53.99L27.61 55.27L27.95 56.53L28.35 57.75L28.81 58.95L29.35 60.11L29.94 61.24L30.59 62.32L31.3 63.37L32.06 64.38L32.88 65.34L33.74 66.26L34.66 67.12L35.62 67.94L36.63 68.7L37.68 69.41L38.76 70.06L39.89 70.65L41.05 71.19L42.25 71.65L43.47 72.05L44.73 72.39L46.01 72.65L47.32 72.84L48.65 72.96L50 73L51.35 72.96L52.68 72.85L53.99 72.66L55.27 72.39L56.53 72.06L57.76 71.66L58.95 71.19L60.11 70.66L61.24 70.07L62.33 69.42L63.38 68.71L64.39 67.95L65.35 67.13L66.26 66.26L67.13 65.35L67.95 64.39L68.71 63.38L69.42 62.33L70.07 61.24L70.66 60.11L71.19 58.95L71.66 57.76L72.06 56.53L72.39 55.27L72.66 53.99L72.85 52.68L72.96 51.35L73 50L72.96 48.65L72.85 47.32L72.66 46.01L72.39 44.73L72.06 43.47L71.66 42.24L71.19 41.05L70.66 39.89L70.07 38.76L69.42 37.67L68.71 36.62L67.95 35.61L67.13 34.65L66.26 33.74L65.35 32.87L64.39 32.05L63.38 31.29L62.33 30.58L61.24 29.93L60.11 29.34L58.95 28.81L57.76 28.34L56.53 27.94L55.27 27.61L53.99 27.34L52.68 27.15L51.35 27.04L50 27L48.65 27.04L47.32 27.15Z" id="baUNmGv1Y"></path><path d="M0 0L100 0L100 100L0 100L0 0Z" id="f11FGqKznB"></path></defs><g><g><g><use xlink:href="#gSDaad1FP" opacity="1" fill="#413d4a" fill-opacity="1"></use><g><use xlink:href="#gSDaad1FP" opacity="1" fill-opacity="0" stroke="#000000" stroke-width="1" stroke-opacity="0"></use></g></g><g><use xlink:href="#badrbkIXE" opacity="1" fill="#a09ea5" fill-opacity="1"></use><g><use xlink:href="#badrbkIXE" opacity="1" fill-opacity="0" stroke="#000000" stroke-width="1" stroke-opacity="0"></use></g></g><g><use xlink:href="#hatgk5Cp0" opacity="1" fill="#a09ea5" fill-opacity="1"></use><g><use xlink:href="#hatgk5Cp0" opacity="1" fill-opacity="0" stroke="#000000" stroke-width="1" stroke-opacity="0"></use></g></g><g><use xlink:href="#aBlum8dvK" opacity="1" fill="#a09ea5" fill-opacity="1"></use><g><use xlink:href="#aBlum8dvK" opacity="1" fill-opacity="0" stroke="#000000" stroke-width="1" stroke-opacity="0"></use></g></g><g><use xlink:href="#dY1wt9jA3" opacity="1" fill="#a09ea5" fill-opacity="1"></use><g><use xlink:href="#dY1wt9jA3" opacity="1" fill-opacity="0" stroke="#000000" stroke-width="1" stroke-opacity="0"></use></g></g><g><use xlink:href="#eoH0qtpnO" opacity="1" fill="#a09ea5" fill-opacity="1"></use><g><use xlink:href="#eoH0qtpnO" opacity="1" fill-opacity="0" stroke="#000000" stroke-width="1" stroke-opacity="0"></use></g></g><g><use xlink:href="#baUNmGv1Y" opacity="1" fill="#a09ea5" fill-opacity="1"></use><g><use xlink:href="#baUNmGv1Y" opacity="1" fill-opacity="0" stroke="#000000" stroke-width="1" stroke-opacity="0"></use></g></g><g><use xlink:href="#f11FGqKznB" opacity="1" fill="#000000" fill-opacity="0"></use><g><use xlink:href="#f11FGqKznB" opacity="1" fill-opacity="0" stroke="#000000" stroke-width="1" stroke-opacity="0"></use></g></g></g></g></svg>