<?xml version="1.0" encoding="UTF-8" standalone="no"?>
<!DOCTYPE svg PUBLIC "-//W3C//DTD SVG 1.1//EN" "http://www.w3.org/Graphics/SVG/1.1/DTD/svg11.dtd">
<svg version="1.1" xmlns="http://www.w3.org/2000/svg" xmlns:xlink="http://www.w3.org/1999/xlink" preserveAspectRatio="xMidYMid meet" viewBox="0 0 90 90" width="90" height="90"><defs><path d="M251.98 19L263.29 35.49L274.73 19L288.93 19L270.9 44.53L290 72L275.67 72L263.29 54.61L251.01 72L237 72L255.92 45.05L238.01 19L251.98 19Z" id="bUCoZvVOv"></path><path d="M208.65 72L195.95 72L175 19L188.1 19L202.5 58.99L217.3 19L230 19L208.65 72Z" id="a1WKs1UXD1"></path><path d="M164 19C164 19 164 19 164 19C164 50.8 164 68.47 164 72C164 72 164 72 164 72C156.8 72 152.8 72 152 72C152 72 152 72 152 72C152 40.2 152 22.53 152 19C152 19 152 19 152 19C159.2 19 163.2 19 164 19Z" id="b1861Uf8Yj"></path><path d="M78.26 3.41L72.67 6.36L63.24 13.82L63.24 13.82L58.47 12.43L53.32 11.54L45.56 12.43L37.8 11.54L32.64 12.43L27.88 13.82L27.88 13.82L18.45 6.36L12.85 3.41L8.93 4.44L7 7.34L7 14.35L7 18.42L8.37 23.04L8.51 27.66L11.55 33.73L11.76 40.11L10.37 47.31L9.69 56.12L13.13 61.72L18.5 66.29L19.68 67.29L23.96 76.19L30.6 80.9L30.6 80.9L33.06 82.67L45.56 85.27L45.56 85.27L45.56 85.27L45.56 85.27L45.56 85.27L58.06 82.67L60.52 80.9L67.16 76.19L71.43 67.29L72.62 66.29L77.98 61.72L81.42 56.12L80.75 47.31L79.36 40.11L79.56 33.73L82.61 27.66L82.75 23.04L84.12 18.42L84.12 14.35L84.12 7.34L82.19 4.44L78.26 3.41Z" id="a367XK4VeK"></path><path d="M57.87 28.5L56.34 22.23L45.56 34.14L37.8 25.57L37.8 25.57L34.78 22.23L33.25 28.5L29.6 29.1L26.72 32.15L28.25 36.49L29.11 34.17L33.2 32.73L35.99 36.61L36.06 39.3L36.06 39.3L33.06 49.1L31.58 56.82L39.38 48.64L43.44 47.31L45.56 34.14L47.67 47.31L51.74 48.64L59.54 56.82L58.06 49.1L55.06 39.3L55.06 39.3L55.13 36.61L57.92 32.73L62 34.17L62.86 36.49L64.4 32.15L61.52 29.1L57.87 28.5Z" id="ckz77pqdO"></path><path d="M18.17 8.99L12.23 7.2L9.9 7.73L9 11.61L9 18.56L12.18 24.23L17.71 27.66L23.19 22.9L23.75 15.26L18.17 8.99Z" id="a5qBiS0xpd"></path><path d="M44.14 18.95L45.56 19.19L45.56 32.73L44.14 18.95Z" id="c2r1MdqsiR"></path><path d="M27.88 13.82L18.45 6.36L12.85 3.41L8.93 4.44L7 7.34L7 14.35L9 15.82L9 11.61L9.9 7.73L12.23 7.2L18.17 8.99L23.75 15.26L23.19 22.9L17.71 27.66L14.11 39.3L20.84 41.93L26.28 36.07L28.25 36.49L26.72 32.15L28.69 30.06L29.6 29.1L33.25 28.5L34.78 22.23L38.33 21.95L41.33 18.95L43.84 22.62L45.56 34.14L45.56 15.26L33.2 13.54L27.88 13.82Z" id="g3zz8mD9JA"></path><path d="M12.39 53.05L16.38 43.76L20.84 41.93L14.11 39.3L31.09 15.82L23.19 22.9L17.71 27.66L11.55 33.73L10.37 47.31L9.69 56.12L13.13 61.72L12.39 53.05Z" id="a25TskkPgP"></path><path d="M34.78 22.23L33.25 28.5L29.6 29.1L28.39 30.38L28.79 27.94L34.78 22.23Z" id="g1qFx3SS7N"></path><path d="M28.79 64.39L25.19 51.59L27.14 44.97L26.28 39.3L33.06 49.1L37.8 46.97L43.44 47.31L42.98 50.54L39.05 52.4L37.8 55.51L38.43 58.26L39.57 59.53L36.78 66.43L33.57 66.43L31.09 63.09L31.09 65.5L33.06 68.08L28.79 64.39Z" id="d2j1UprUQ9"></path><path d="M23.75 15.26L28.25 16.77L31.09 15.82L23.19 22.9L23.75 15.26Z" id="b1jtqQO3OC"></path><path d="M23.19 22.9L23.75 15.26L20.63 11.85L22.52 16.21L23.19 22.9Z" id="e1VfAKufvA"></path><path d="M8.51 27.66L7 18.42L7 14.35L9 15.82L9 18.56L12.18 24.23L17.71 27.66L11.55 33.73L8.51 27.66Z" id="csBYuhNOE"></path><path d="M28.25 33.19L33.92 30.59L33.2 32.73L29.11 34.17L28.25 36.49L28.25 33.19Z" id="a11ANEAOaN"></path><path d="M30 39.14L28.25 36.49L26.28 36.07L25.19 37.23L26.28 39.3L27.39 40.9L33.06 49.1L36.06 39.3L33.36 40.11L30 39.14Z" id="b1ivuCHAmG"></path><path d="M35.73 68.82L33.06 68.08L28.79 64.39L27.51 59.88L22.19 66.43L19.68 67.29L23.96 76.19L30.6 80.9L35.73 78.3L40.63 75.82L37.29 74.28L35.73 68.82Z" id="cWT28tmaI"></path><path d="M72.94 8.99L78.89 7.2L81.21 7.73L82.12 11.61L82.12 18.56L78.94 24.23L73.41 27.66L67.93 22.9L67.37 15.26L72.94 8.99Z" id="b3omRCNuF6"></path><path d="M55.13 36.61L57.92 32.73L62 34.17L62.86 36.49L61.12 39.14L57.75 40.11L55.13 39.3L55.13 36.61Z" id="a2MsWxmfhH"></path><path d="M61.26 35.33C61.28 35.45 61.28 35.56 61.28 35.7C61.28 37.23 60.12 38.46 58.68 38.46C57.24 38.46 56.08 37.23 56.08 35.7C56.08 35.68 56.08 35.65 56.08 35.63C56.48 36.65 57.47 37.4 58.64 37.4C59.91 37.4 60.98 36.51 61.26 35.33Z" id="d1we545p"></path><path d="M56.08 35.63C56.13 34.14 57.27 32.94 58.68 32.94C60.01 32.94 61.1 33.98 61.26 35.33C60.98 36.51 59.91 37.4 58.64 37.4C57.47 37.4 56.48 36.65 56.08 35.63Z" id="cgD52TzHi"></path><path d="M61.12 35.35C61.12 35.35 60.61 33.96 58.59 34.26C58.59 34.28 59.61 35.17 59.77 35.77C60.04 35.69 60.99 35.39 61.12 35.35Z" id="a3jyOw8FNI"></path><path d="M46.98 18.95L45.56 19.19L45.56 32.73L46.98 18.95Z" id="f3xXCWKVC3"></path><path d="M48.14 50.54L45.56 50.54L45.56 50.54L42.98 50.54L39.05 52.4L37.8 55.51L38.43 58.26L41.68 61.93L45.56 63.09L45.56 63.09L45.56 63.09L45.56 63.09L45.56 63.09L49.44 61.93L52.69 58.26L53.32 55.51L52.06 52.4L48.14 50.54Z" id="a71PtNp8J"></path><path d="M48.65 58.05L50.41 58.05L51.71 55.75L49.21 53.96L45.56 53.19L45.56 53.19L45.56 53.19L45.56 53.19L45.56 53.19L41.91 53.96L39.4 55.75L40.7 58.05L42.47 58.05L43.84 57.58L42.65 59.11L39.57 59.53L41.68 61.93L45.56 63.09L45.56 63.09L45.56 63.09L45.56 63.09L45.56 63.09L49.44 61.93L51.55 59.53L48.46 59.11L47.28 57.58L48.65 58.05Z" id="c2pPcjKkoN"></path><path d="M54.34 66.43L45.56 64.46L45.56 64.46L45.56 64.46L45.56 64.46L45.56 64.46L36.78 66.43L33.57 66.43L31.09 63.09L31.09 65.5L33.06 68.08L36.78 69.13L41.68 66.85L45.56 67.99L45.56 67.99L45.56 67.99L45.56 67.99L45.56 67.99L49.44 66.85L54.34 69.13L58.06 68.08L60.03 65.5L60.03 63.09L57.54 66.43L54.34 66.43Z" id="l8TVajLVLz"></path><path d="M49.44 66.85L45.56 67.99L41.68 66.85L36.78 69.13L41.68 71.77L45.56 72.54L45.56 72.54L45.56 72.54L45.56 72.54L45.56 72.54L49.44 71.77L54.34 69.13L49.44 66.85Z" id="fdziyDLrv"></path><path d="M51.55 59.53L49.44 61.93L45.56 63.09L41.68 61.93L39.57 59.53L36.78 66.43L45.56 64.46L54.34 66.43L51.55 59.53Z" id="d20vPE1ttX"></path><path d="M49.44 71.77L45.56 72.54L41.68 71.77L36.78 69.13L35.73 68.82L37.29 74.28L42.47 76.67L45.56 77.49L45.56 77.49L45.56 77.49L45.56 77.49L45.56 77.49L48.65 76.67L53.83 74.28L55.38 68.82L54.34 69.13L49.44 71.77Z" id="b5HRSf1aK"></path><path d="M63.24 13.82L72.67 6.36L78.26 3.41L82.19 4.44L84.12 7.34L84.12 14.35L82.12 15.82L82.12 11.61L81.21 7.73L78.89 7.2L72.94 8.99L67.37 15.26L67.93 22.9L73.41 27.66L77.01 39.3L70.27 41.93L64.84 36.07L62.86 36.49L64.4 32.15L62.42 30.06L61.52 29.1L57.87 28.5L56.34 22.23L52.78 21.95L49.79 18.95L47.28 22.62L45.56 34.14L45.56 15.26L57.92 13.54L63.24 13.82Z" id="b1i0TBklAb"></path><path d="M78.73 53.05L74.73 43.76L70.27 41.93L77.01 39.3L60.03 15.82L67.93 22.9L73.41 27.66L79.56 33.73L80.75 47.31L81.42 56.12L77.98 61.72L78.73 53.05Z" id="k43dWkimuN"></path><path d="M58.47 12.43L53.32 11.54L45.56 12.43L37.8 11.54L32.64 12.43L27.88 13.82L33.2 13.54L45.56 15.26L45.56 15.26L45.56 15.26L45.56 15.26L45.56 15.26L57.92 13.54L63.24 13.82L58.47 12.43Z" id="d53xnraxQZ"></path><path d="M56.34 22.23L57.87 28.5L61.52 29.1L62.72 30.38L62.33 27.94L56.34 22.23Z" id="bcoPAixvp"></path><path d="M62.33 64.39L65.93 51.59L63.98 44.97L64.84 39.3L58.06 49.1L53.32 46.97L47.67 47.31L48.14 50.54L52.06 52.4L53.32 55.51L52.69 58.26L51.55 59.53L54.34 66.43L57.54 66.43L60.03 63.09L60.03 65.5L58.06 68.08L62.33 64.39Z" id="c10QMsaKbe"></path><path d="M56.34 22.23L52.78 21.95L49.79 18.95L50.34 16.56L45.56 15.26L45.56 15.26L45.56 15.26L45.56 15.26L45.56 15.26L40.77 16.56L41.33 18.95L38.33 21.95L34.78 22.23L45.56 34.14L45.56 34.14L45.56 34.14L45.56 34.14L45.56 34.14L56.34 22.23Z" id="b3mTuMbR0r"></path><path d="M67.37 15.26L62.86 16.77L60.03 15.82L67.93 22.9L67.37 15.26Z" id="c4rfdyNDnw"></path><path d="M67.93 22.9L67.37 15.26L70.48 11.85L68.6 16.21L67.93 22.9Z" id="aR1xhVon"></path><path d="M82.61 27.66L84.12 18.42L84.12 14.35L82.12 15.82L82.12 18.56L78.94 24.23L73.41 27.66L79.56 33.73L82.61 27.66Z" id="apx2mgpgZ"></path><path d="M62.86 33.19L57.2 30.59L57.92 32.73L62 34.17L62.86 36.49L62.86 33.19Z" id="dqye3ROpo"></path><path d="M53.32 25.57L45.56 34.14L51.67 37.02L53.32 25.57Z" id="aD6E7KJtG"></path><path d="M50.48 75.82L48.65 76.67L45.56 77.49L42.47 76.67L40.63 75.82L30.6 80.9L33.06 82.67L45.56 85.27L45.56 85.27L45.56 85.27L45.56 85.27L45.56 85.27L58.06 82.67L60.52 80.9L50.48 75.82Z" id="aP6fe2R4M"></path><path d="M20.84 41.93L16.38 43.76L12.39 53.05L13.13 61.72L18.5 66.29L18.5 60.39L20.33 55.12L24 48.29L23.75 38.77L22.66 39.97L20.84 41.93Z" id="a1c0wLDerN"></path><path d="M70.27 41.93L68.46 39.97L67.37 38.77L67.11 48.29L70.78 55.12L72.62 60.39L72.62 66.29L77.98 61.72L78.73 53.05L74.73 43.76L70.27 41.93Z" id="k2uJgvd4G9"></path><path d="M62.86 36.49L61.12 39.14L57.75 40.11L55.06 39.3L58.06 49.1L63.72 40.9L64.84 39.3L65.93 37.23L64.84 36.07L62.86 36.49Z" id="a5lG57aOkm"></path><path d="M65.93 37.23L64.84 39.3L63.98 44.97L65.93 51.59L63.61 59.88L68.93 66.43L71.43 67.29L76.36 63.09L67.37 38.77L65.93 37.23Z" id="c8QubKgXP"></path><path d="M63.61 59.88L62.33 64.39L58.06 68.08L55.38 68.82L53.83 74.28L50.48 75.82L55.38 78.3L60.52 80.9L67.16 76.19L71.43 67.29L68.93 66.43L63.61 59.88Z" id="g2eS5oNmy"></path><path d="M25.19 37.23L26.28 39.3L27.14 44.97L25.19 51.59L27.51 59.88L22.19 66.43L19.68 67.29L14.76 63.09L23.75 38.77L25.19 37.23Z" id="biGPFOIj0"></path><path d="M35.99 36.61L33.2 32.73L29.11 34.17L28.25 36.49L30 39.14L33.36 40.11L35.99 39.3L35.99 36.61Z" id="cWG4CC9wK"></path><path d="M29.86 35.33C29.83 35.45 29.83 35.56 29.83 35.7C29.83 37.23 30.99 38.46 32.43 38.46C33.87 38.46 35.04 37.23 35.04 35.7C35.04 35.68 35.04 35.65 35.04 35.63C34.64 36.65 33.64 37.4 32.48 37.4C31.2 37.4 30.14 36.51 29.86 35.33Z" id="c130R5lA9X"></path><path d="M35.04 35.63C34.99 34.14 33.85 32.94 32.43 32.94C31.11 32.94 30.02 33.98 29.86 35.33C30.14 36.51 31.2 37.4 32.48 37.4C33.64 37.4 34.64 36.65 35.04 35.63Z" id="i1AxCESm6O"></path><path d="M30 35.35C30 35.35 30.51 33.96 32.53 34.26C32.53 34.28 31.51 35.17 31.34 35.77C31.07 35.69 30.13 35.39 30 35.35Z" id="c15RKeJX"></path><path d="M45.56 34.14L42.98 50.54L45.56 50.54L45.56 50.54L48.14 50.54L45.56 34.14L45.56 34.14Z" id="c1DZ8J9j51"></path><path d="M73.41 69.22C73.51 69.22 74.35 69.22 74.45 69.22C74.45 69.33 74.45 69.43 74.45 69.54C74.43 69.54 74.31 69.54 74.11 69.54C74.11 70.19 74.11 70.54 74.11 70.61C73.99 70.61 73.87 70.61 73.76 70.61C73.76 70.54 73.76 70.19 73.76 69.54L73.41 69.54C73.41 69.4 73.41 69.3 73.41 69.22Z" id="fo927PRx5"></path><path d="M76.01 69.22C76.01 70.05 76.01 70.52 76.01 70.61C75.89 70.61 75.78 70.61 75.64 70.61C75.64 70.57 75.64 70.36 75.64 69.99L75.34 70.29L75.29 70.29L74.99 69.99C74.99 70.36 74.99 70.57 74.99 70.61C74.87 70.61 74.76 70.61 74.62 70.61C74.62 70.52 74.62 70.05 74.62 69.22L74.76 69.22L75.29 69.82L75.89 69.22L76.01 69.22Z" id="bgoZmMORM"></path><path d="M76.32 68.31L76.81 69.03L76.99 69.92L76.81 70.8L76.32 71.52L75.59 72.01L74.71 72.19L73.82 72.01L73.1 71.52L72.61 70.8L72.43 69.92L72.61 69.03L73.1 68.31L73.82 67.82L74.71 67.64L75.59 67.82L76.32 68.31ZM73.29 68.48L72.87 69.12L72.71 69.89L72.87 70.67L73.3 71.31L73.94 71.73L74.71 71.89L75.49 71.73L76.13 71.3L76.55 70.67L76.71 69.89L76.55 69.12L76.13 68.48L75.49 68.05L74.71 67.89L73.93 68.05L73.29 68.48Z" id="a1mZIBVscZ"></path></defs><g><g><g><use xlink:href="#bUCoZvVOv" opacity="1" fill="#ffffff" fill-opacity="1"></use><g><use xlink:href="#bUCoZvVOv" opacity="1" fill-opacity="0" stroke="#000000" stroke-width="1" stroke-opacity="0"></use></g></g><g><use xlink:href="#a1WKs1UXD1" opacity="1" fill="#ffffff" fill-opacity="1"></use><g><use xlink:href="#a1WKs1UXD1" opacity="1" fill-opacity="0" stroke="#000000" stroke-width="1" stroke-opacity="0"></use></g></g><g><use xlink:href="#b1861Uf8Yj" opacity="1" fill="#ffffff" fill-opacity="1"></use><g><use xlink:href="#b1861Uf8Yj" opacity="1" fill-opacity="0" stroke="#000000" stroke-width="1" stroke-opacity="0"></use></g></g><g><use xlink:href="#a367XK4VeK" opacity="1" fill="#cc8e58" fill-opacity="1"></use><g><use xlink:href="#a367XK4VeK" opacity="1" fill-opacity="0" stroke="#000000" stroke-width="1" stroke-opacity="0"></use></g></g><g><use xlink:href="#ckz77pqdO" opacity="1" fill="#cc8e58" fill-opacity="1"></use><g><use xlink:href="#ckz77pqdO" opacity="1" fill-opacity="0" stroke="#000000" stroke-width="1" stroke-opacity="0"></use></g></g><g><use xlink:href="#a5qBiS0xpd" opacity="1" fill="#2d2113" fill-opacity="1"></use><g><use xlink:href="#a5qBiS0xpd" opacity="1" fill-opacity="0" stroke="#000000" stroke-width="1" stroke-opacity="0"></use></g></g><g><use xlink:href="#c2r1MdqsiR" opacity="1" fill="#2c1800" fill-opacity="1"></use><g><use xlink:href="#c2r1MdqsiR" opacity="1" fill-opacity="0" stroke="#000000" stroke-width="1" stroke-opacity="0"></use></g></g><g><use xlink:href="#g3zz8mD9JA" opacity="1" fill="#a8633a" fill-opacity="1"></use><g><use xlink:href="#g3zz8mD9JA" opacity="1" fill-opacity="0" stroke="#000000" stroke-width="1" stroke-opacity="0"></use></g></g><g><use xlink:href="#a25TskkPgP" opacity="1" fill="#cc8e58" fill-opacity="1"></use><g><use xlink:href="#a25TskkPgP" opacity="1" fill-opacity="0" stroke="#000000" stroke-width="1" stroke-opacity="0"></use></g></g><g><use xlink:href="#g1qFx3SS7N" opacity="1" fill="#a8633a" fill-opacity="1"></use><g><use xlink:href="#g1qFx3SS7N" opacity="1" fill-opacity="0" stroke="#000000" stroke-width="1" stroke-opacity="0"></use></g></g><g><use xlink:href="#d2j1UprUQ9" opacity="1" fill="#ebe8db" fill-opacity="1"></use><g><use xlink:href="#d2j1UprUQ9" opacity="1" fill-opacity="0" stroke="#000000" stroke-width="1" stroke-opacity="0"></use></g></g><g><use xlink:href="#b1jtqQO3OC" opacity="1" fill="#5d2900" fill-opacity="1"></use><g><use xlink:href="#b1jtqQO3OC" opacity="1" fill-opacity="0" stroke="#000000" stroke-width="1" stroke-opacity="0"></use></g></g><g><use xlink:href="#e1VfAKufvA" opacity="1" fill="#5d2900" fill-opacity="1"></use><g><use xlink:href="#e1VfAKufvA" opacity="1" fill-opacity="0" stroke="#000000" stroke-width="1" stroke-opacity="0"></use></g></g><g><use xlink:href="#csBYuhNOE" opacity="1" fill="#a8633a" fill-opacity="1"></use><g><use xlink:href="#csBYuhNOE" opacity="1" fill-opacity="0" stroke="#000000" stroke-width="1" stroke-opacity="0"></use></g></g><g><use xlink:href="#a11ANEAOaN" opacity="1" fill="#a8633a" fill-opacity="1"></use><g><use xlink:href="#a11ANEAOaN" opacity="1" fill-opacity="0" stroke="#000000" stroke-width="1" stroke-opacity="0"></use></g></g><g><use xlink:href="#b1ivuCHAmG" opacity="1" fill="#d6b795" fill-opacity="1"></use><g><use xlink:href="#b1ivuCHAmG" opacity="1" fill-opacity="0" stroke="#000000" stroke-width="1" stroke-opacity="0"></use></g></g><g><use xlink:href="#cWT28tmaI" opacity="1" fill="#dbd5c3" fill-opacity="1"></use><g><use xlink:href="#cWT28tmaI" opacity="1" fill-opacity="0" stroke="#000000" stroke-width="1" stroke-opacity="0"></use></g></g><g><use xlink:href="#b3omRCNuF6" opacity="1" fill="#2d2113" fill-opacity="1"></use><g><use xlink:href="#b3omRCNuF6" opacity="1" fill-opacity="0" stroke="#000000" stroke-width="1" stroke-opacity="0"></use></g></g><g><use xlink:href="#a2MsWxmfhH" opacity="1" fill="#2c1800" fill-opacity="1"></use><g><use xlink:href="#a2MsWxmfhH" opacity="1" fill-opacity="0" stroke="#000000" stroke-width="1" stroke-opacity="0"></use></g></g><g><use xlink:href="#d1we545p" opacity="1" fill="#4d2f00" fill-opacity="1"></use><g><use xlink:href="#d1we545p" opacity="1" fill-opacity="0" stroke="#000000" stroke-width="1" stroke-opacity="0"></use></g></g><g><use xlink:href="#cgD52TzHi" opacity="1" fill="#2c1800" fill-opacity="1"></use><g><use xlink:href="#cgD52TzHi" opacity="1" fill-opacity="0" stroke="#000000" stroke-width="1" stroke-opacity="0"></use></g></g><g><use xlink:href="#a3jyOw8FNI" opacity="1" fill="#ecd9cb" fill-opacity="1"></use><g><use xlink:href="#a3jyOw8FNI" opacity="1" fill-opacity="0" stroke="#000000" stroke-width="1" stroke-opacity="0"></use></g></g><g><use xlink:href="#f3xXCWKVC3" opacity="1" fill="#2c1800" fill-opacity="1"></use><g><use xlink:href="#f3xXCWKVC3" opacity="1" fill-opacity="0" stroke="#000000" stroke-width="1" stroke-opacity="0"></use></g></g><g><use xlink:href="#a71PtNp8J" opacity="1" fill="#262626" fill-opacity="1"></use><g><use xlink:href="#a71PtNp8J" opacity="1" fill-opacity="0" stroke="#000000" stroke-width="1" stroke-opacity="0"></use></g></g><g><use xlink:href="#c2pPcjKkoN" opacity="1" fill="#000000" fill-opacity="1"></use><g><use xlink:href="#c2pPcjKkoN" opacity="1" fill-opacity="0" stroke="#000000" stroke-width="1" stroke-opacity="0"></use></g></g><g><use xlink:href="#l8TVajLVLz" opacity="1" fill="#000000" fill-opacity="1"></use><g><use xlink:href="#l8TVajLVLz" opacity="1" fill-opacity="0" stroke="#000000" stroke-width="1" stroke-opacity="0"></use></g></g><g><use xlink:href="#fdziyDLrv" opacity="1" fill="#918a85" fill-opacity="1"></use><g><use xlink:href="#fdziyDLrv" opacity="1" fill-opacity="0" stroke="#000000" stroke-width="1" stroke-opacity="0"></use></g></g><g><use xlink:href="#d20vPE1ttX" opacity="1" fill="#5c524a" fill-opacity="1"></use><g><use xlink:href="#d20vPE1ttX" opacity="1" fill-opacity="0" stroke="#000000" stroke-width="1" stroke-opacity="0"></use></g></g><g><use xlink:href="#b5HRSf1aK" opacity="1" fill="#ebe8db" fill-opacity="1"></use><g><use xlink:href="#b5HRSf1aK" opacity="1" fill-opacity="0" stroke="#000000" stroke-width="1" stroke-opacity="0"></use></g></g><g><use xlink:href="#b1i0TBklAb" opacity="1" fill="#a8633a" fill-opacity="1"></use><g><use xlink:href="#b1i0TBklAb" opacity="1" fill-opacity="0" stroke="#000000" stroke-width="1" stroke-opacity="0"></use></g></g><g><use xlink:href="#k43dWkimuN" opacity="1" fill="#cc8e58" fill-opacity="1"></use><g><use xlink:href="#k43dWkimuN" opacity="1" fill-opacity="0" stroke="#000000" stroke-width="1" stroke-opacity="0"></use></g></g><g><use xlink:href="#d53xnraxQZ" opacity="1" fill="#a8633a" fill-opacity="1"></use><g><use xlink:href="#d53xnraxQZ" opacity="1" fill-opacity="0" stroke="#000000" stroke-width="1" stroke-opacity="0"></use></g></g><g><use xlink:href="#bcoPAixvp" opacity="1" fill="#a8633a" fill-opacity="1"></use><g><use xlink:href="#bcoPAixvp" opacity="1" fill-opacity="0" stroke="#000000" stroke-width="1" stroke-opacity="0"></use></g></g><g><use xlink:href="#c10QMsaKbe" opacity="1" fill="#ebe8db" fill-opacity="1"></use><g><use xlink:href="#c10QMsaKbe" opacity="1" fill-opacity="0" stroke="#000000" stroke-width="1" stroke-opacity="0"></use></g></g><g><use xlink:href="#b3mTuMbR0r" opacity="1" fill="#a8633a" fill-opacity="1"></use><g><use xlink:href="#b3mTuMbR0r" opacity="1" fill-opacity="0" stroke="#000000" stroke-width="1" stroke-opacity="0"></use></g></g><g><use xlink:href="#c4rfdyNDnw" opacity="1" fill="#5d2900" fill-opacity="1"></use><g><use xlink:href="#c4rfdyNDnw" opacity="1" fill-opacity="0" stroke="#000000" stroke-width="1" stroke-opacity="0"></use></g></g><g><use xlink:href="#aR1xhVon" opacity="1" fill="#5d2900" fill-opacity="1"></use><g><use xlink:href="#aR1xhVon" opacity="1" fill-opacity="0" stroke="#000000" stroke-width="1" stroke-opacity="0"></use></g></g><g><use xlink:href="#apx2mgpgZ" opacity="1" fill="#a8633a" fill-opacity="1"></use><g><use xlink:href="#apx2mgpgZ" opacity="1" fill-opacity="0" stroke="#000000" stroke-width="1" stroke-opacity="0"></use></g></g><g><use xlink:href="#dqye3ROpo" opacity="1" fill="#a8633a" fill-opacity="1"></use><g><use xlink:href="#dqye3ROpo" opacity="1" fill-opacity="0" stroke="#000000" stroke-width="1" stroke-opacity="0"></use></g></g><g><use xlink:href="#aD6E7KJtG" opacity="1" fill="#cc8e58" fill-opacity="1"></use><g><use xlink:href="#aD6E7KJtG" opacity="1" fill-opacity="0" stroke="#000000" stroke-width="1" stroke-opacity="0"></use></g></g><g><use xlink:href="#aP6fe2R4M" opacity="1" fill="#807664" fill-opacity="1"></use><g><use xlink:href="#aP6fe2R4M" opacity="1" fill-opacity="0" stroke="#000000" stroke-width="1" stroke-opacity="0"></use></g></g><g><use xlink:href="#a1c0wLDerN" opacity="1" fill="#dbd5c3" fill-opacity="1"></use><g><use xlink:href="#a1c0wLDerN" opacity="1" fill-opacity="0" stroke="#000000" stroke-width="1" stroke-opacity="0"></use></g></g><g><use xlink:href="#k2uJgvd4G9" opacity="1" fill="#dbd5c3" fill-opacity="1"></use><g><use xlink:href="#k2uJgvd4G9" opacity="1" fill-opacity="0" stroke="#000000" stroke-width="1" stroke-opacity="0"></use></g></g><g><use xlink:href="#a5lG57aOkm" opacity="1" fill="#d6b795" fill-opacity="1"></use><g><use xlink:href="#a5lG57aOkm" opacity="1" fill-opacity="0" stroke="#000000" stroke-width="1" stroke-opacity="0"></use></g></g><g><use xlink:href="#c8QubKgXP" opacity="1" fill="#cfc7af" fill-opacity="1"></use><g><use xlink:href="#c8QubKgXP" opacity="1" fill-opacity="0" stroke="#000000" stroke-width="1" stroke-opacity="0"></use></g></g><g><use xlink:href="#g2eS5oNmy" opacity="1" fill="#dbd5c3" fill-opacity="1"></use><g><use xlink:href="#g2eS5oNmy" opacity="1" fill-opacity="0" stroke="#000000" stroke-width="1" stroke-opacity="0"></use></g></g><g><use xlink:href="#biGPFOIj0" opacity="1" fill="#cfc7af" fill-opacity="1"></use><g><use xlink:href="#biGPFOIj0" opacity="1" fill-opacity="0" stroke="#000000" stroke-width="1" stroke-opacity="0"></use></g></g><g><use xlink:href="#cWG4CC9wK" opacity="1" fill="#2c1800" fill-opacity="1"></use><g><use xlink:href="#cWG4CC9wK" opacity="1" fill-opacity="0" stroke="#000000" stroke-width="1" stroke-opacity="0"></use></g></g><g><use xlink:href="#c130R5lA9X" opacity="1" fill="#4d2f00" fill-opacity="1"></use><g><use xlink:href="#c130R5lA9X" opacity="1" fill-opacity="0" stroke="#000000" stroke-width="1" stroke-opacity="0"></use></g></g><g><use xlink:href="#i1AxCESm6O" opacity="1" fill="#2c1800" fill-opacity="1"></use><g><use xlink:href="#i1AxCESm6O" opacity="1" fill-opacity="0" stroke="#000000" stroke-width="1" stroke-opacity="0"></use></g></g><g><use xlink:href="#c15RKeJX" opacity="1" fill="#ecd9cb" fill-opacity="1"></use><g><use xlink:href="#c15RKeJX" opacity="1" fill-opacity="0" stroke="#000000" stroke-width="1" stroke-opacity="0"></use></g></g><g><use xlink:href="#c1DZ8J9j51" opacity="1" fill="#d9aa8b" fill-opacity="1"></use><g><use xlink:href="#c1DZ8J9j51" opacity="1" fill-opacity="0" stroke="#000000" stroke-width="1" stroke-opacity="0"></use></g></g><g><use xlink:href="#fo927PRx5" opacity="1" fill="#cc8e58" fill-opacity="1"></use><g><use xlink:href="#fo927PRx5" opacity="1" fill-opacity="0" stroke="#000000" stroke-width="1" stroke-opacity="0"></use></g></g><g><use xlink:href="#bgoZmMORM" opacity="1" fill="#cc8e58" fill-opacity="1"></use><g><use xlink:href="#bgoZmMORM" opacity="1" fill-opacity="0" stroke="#000000" stroke-width="1" stroke-opacity="0"></use></g></g><g><use xlink:href="#a1mZIBVscZ" opacity="1" fill="#cc8e58" fill-opacity="1"></use><g><use xlink:href="#a1mZIBVscZ" opacity="1" fill-opacity="0" stroke="#000000" stroke-width="1" stroke-opacity="0"></use></g></g></g></g></svg>