<?xml version="1.0" encoding="UTF-8" standalone="no"?>
<!DOCTYPE svg PUBLIC "-//W3C//DTD SVG 1.1//EN" "http://www.w3.org/Graphics/SVG/1.1/DTD/svg11.dtd">
<svg version="1.1" xmlns="http://www.w3.org/2000/svg" xmlns:xlink="http://www.w3.org/1999/xlink" preserveAspectRatio="xMidYMid meet" viewBox="0 0 640 640" width="640" height="640"><defs><path d="M29.23 486.51L30.46 486.8L31.67 487.09L32.86 487.39L34.03 487.69L35.18 488L36.3 488.3L37.4 488.61L38.48 488.92L39.53 489.24L40.57 489.55L41.58 489.87L42.57 490.19L43.53 490.52L44.47 490.85L45.39 491.18L46.29 491.51L47.17 491.84L48.02 492.18L48.85 492.52L49.66 492.87L50.45 493.21L51.21 493.56L51.95 493.91L52.67 494.26L53.36 494.62L54.04 494.98L54.69 495.34L55.32 495.71L55.92 496.07L56.51 496.44L57.07 496.82L57.6 497.19L58.12 497.57L58.61 497.95L59.09 498.33L59.53 498.72L59.96 499.11L60.36 499.5L60.97 500.12L61.57 500.76L62.15 501.4L62.72 502.05L63.26 502.72L63.8 503.39L64.32 504.07L64.82 504.76L65.3 505.47L65.77 506.18L66.23 506.9L66.67 507.63L67.09 508.38L67.5 509.13L67.9 509.89L68.27 510.66L68.64 511.44L68.98 512.23L69.31 513.03L69.63 513.84L69.93 514.66L70.22 515.49L70.48 516.33L70.74 517.18L70.98 518.04L71.2 518.91L71.41 519.79L71.6 520.68L71.78 521.58L71.94 522.49L72.08 523.4L72.21 524.33L72.33 525.27L72.43 526.22L72.51 527.18L72.58 528.14L72.64 529.12L72.68 530.11L72.7 531.1L72.71 532.11L72.7 533.12L72.68 534.11L72.64 535.1L72.58 536.08L72.51 537.04L72.43 538L72.33 538.94L72.21 539.88L72.08 540.81L71.94 541.72L71.78 542.63L71.6 543.52L71.41 544.41L71.2 545.29L70.98 546.15L70.74 547.01L70.48 547.86L70.22 548.69L69.93 549.52L69.63 550.34L69.31 551.14L68.98 551.94L68.64 552.73L68.27 553.51L67.9 554.28L67.5 555.04L67.09 555.78L66.67 556.52L66.23 557.25L65.77 557.97L65.3 558.68L64.82 559.38L64.32 560.07L63.8 560.75L63.26 561.43L62.72 562.09L62.15 562.74L61.57 563.38L60.97 564.02L60.36 564.64L59.68 565.31L58.99 565.96L58.29 566.59L57.58 567.2L56.86 567.8L56.14 568.38L55.4 568.95L54.66 569.5L53.92 570.03L53.16 570.54L52.39 571.04L51.62 571.52L50.84 571.98L50.05 572.43L49.26 572.86L48.45 573.27L47.64 573.67L46.82 574.05L45.99 574.41L45.15 574.76L44.3 575.09L43.45 575.4L42.59 575.69L41.72 575.97L40.84 576.23L39.96 576.48L39.06 576.7L38.16 576.91L37.25 577.11L36.33 577.29L35.4 577.45L34.47 577.59L33.52 577.71L32.57 577.82L31.61 577.92L30.64 577.99L29.67 578.05L28.68 578.09L27.69 578.12L26.69 578.13L2.17 578.13L2.17 486.01L26.69 485.93L27.97 486.22L29.23 486.51ZM20.64 559.66L26.85 559.66L28.44 559.62L29.99 559.52L31.5 559.35L32.98 559.12L34.41 558.82L35.81 558.46L37.16 558.03L38.47 557.54L39.73 557L40.95 556.39L42.12 555.73L43.25 555.01L44.33 554.24L45.36 553.41L46.34 552.53L47.26 551.59L48.14 550.6L48.96 549.57L49.73 548.48L50.44 547.35L51.09 546.17L51.69 544.94L52.23 543.67L52.71 542.36L53.13 541L53.49 539.6L53.78 538.16L54.01 536.68L54.18 535.17L54.28 533.62L54.31 532.03L54.27 530.44L54.16 528.89L53.99 527.37L53.75 525.89L53.44 524.45L53.08 523.05L52.65 521.69L52.16 520.37L51.61 519.1L51 517.87L50.33 516.69L49.61 515.55L48.83 514.46L48 513.42L47.11 512.43L46.18 511.49L45.19 510.6L44.15 509.77L43.06 508.99L41.93 508.27L40.75 507.6L39.52 506.99L38.25 506.44L36.93 505.96L35.58 505.53L34.18 505.16L32.74 504.86L31.26 504.63L29.75 504.46L28.19 504.35L26.61 504.32L20.64 504.32L20.64 559.66Z" id="a4g2quZio"></path><path d="M125.95 485.23L126.89 485.27L127.83 485.33L128.76 485.41L129.69 485.5L130.61 485.61L131.52 485.74L132.42 485.89L133.32 486.05L134.21 486.23L135.1 486.43L135.98 486.65L136.85 486.88L137.71 487.13L138.57 487.4L139.42 487.68L140.26 487.98L141.1 488.3L141.93 488.64L142.75 488.99L143.56 489.36L144.37 489.75L145.18 490.15L145.97 490.58L146.76 491.02L147.54 491.48L148.31 491.95L149.08 492.44L149.84 492.95L150.59 493.48L151.34 494.02L152.08 494.59L152.81 495.16L153.54 495.76L154.26 496.38L154.97 497.01L155.67 497.66L156.37 498.32L157.06 499.01L157.74 499.7L158.4 500.39L159.04 501.1L159.67 501.81L160.28 502.53L160.87 503.25L161.45 503.99L162.01 504.73L162.55 505.47L163.08 506.23L163.59 506.99L164.08 507.75L164.55 508.53L165.01 509.31L165.45 510.1L165.88 510.89L166.28 511.7L166.67 512.51L167.04 513.32L167.4 514.15L167.74 514.98L168.06 515.82L168.36 516.66L168.65 517.52L168.91 518.37L169.17 519.24L169.4 520.11L169.62 520.99L169.82 521.88L170 522.78L170.17 523.68L170.31 524.59L170.44 525.5L170.56 526.43L170.65 527.36L170.73 528.29L170.79 529.24L170.84 530.19L170.86 531.15L170.87 532.11L170.86 533.08L170.84 534.03L170.79 534.98L170.73 535.93L170.66 536.86L170.56 537.79L170.45 538.72L170.32 539.63L170.18 540.54L170.01 541.44L169.83 542.34L169.63 543.22L169.42 544.1L169.19 544.98L168.94 545.84L168.67 546.7L168.38 547.55L168.08 548.4L167.76 549.23L167.43 550.06L167.07 550.88L166.7 551.7L166.32 552.51L165.91 553.31L165.49 554.1L165.05 554.89L164.59 555.67L164.11 556.44L163.62 557.2L163.11 557.96L162.59 558.71L162.04 559.45L161.48 560.19L160.9 560.92L160.3 561.64L159.69 562.35L159.06 563.06L158.41 563.76L157.74 564.45L157.06 565.13L156.37 565.8L155.67 566.46L154.97 567.1L154.26 567.72L153.54 568.32L152.81 568.91L152.08 569.47L151.34 570.03L150.59 570.56L149.84 571.08L149.08 571.58L148.31 572.06L147.54 572.53L146.76 572.98L145.97 573.41L145.18 573.83L144.37 574.23L143.56 574.61L142.75 574.97L141.93 575.32L141.1 575.65L140.26 575.96L139.42 576.26L138.57 576.54L137.71 576.8L136.85 577.04L135.98 577.27L135.1 577.48L134.21 577.68L133.32 577.86L132.42 578.02L131.52 578.16L130.61 578.29L129.69 578.4L128.76 578.49L127.83 578.57L126.89 578.62L125.95 578.67L125 578.69L124.04 578.7L123.07 578.69L122.11 578.67L121.16 578.62L120.22 578.56L119.28 578.49L118.35 578.39L117.43 578.28L116.51 578.15L115.61 578.01L114.7 577.84L113.81 577.67L112.92 577.47L112.04 577.26L111.17 577.02L110.31 576.78L109.45 576.51L108.6 576.23L107.75 575.93L106.91 575.62L106.08 575.29L105.26 574.94L104.45 574.57L103.64 574.19L102.84 573.79L102.04 573.38L101.26 572.94L100.48 572.49L99.71 572.03L98.94 571.54L98.19 571.04L97.44 570.53L96.69 570L95.96 569.45L95.23 568.88L94.51 568.3L93.8 567.7L93.09 567.08L92.39 566.45L91.7 565.8L91.01 565.13L90.34 564.44L89.68 563.74L89.03 563.04L88.41 562.33L87.8 561.61L87.2 560.89L86.63 560.15L86.07 559.41L85.53 558.67L85.01 557.91L84.5 557.15L84.01 556.39L83.54 555.61L83.08 554.83L82.65 554.04L82.23 553.25L81.82 552.45L81.44 551.64L81.07 550.82L80.72 550L80.38 549.17L80.06 548.33L79.76 547.49L79.48 546.64L79.21 545.78L78.97 544.92L78.73 544.05L78.52 543.17L78.32 542.29L78.14 541.4L77.98 540.5L77.83 539.59L77.7 538.68L77.59 537.76L77.5 536.84L77.42 535.91L77.36 534.97L77.32 534.02L77.29 533.07L77.28 532.11L77.29 531.15L77.32 530.2L77.36 529.25L77.42 528.31L77.5 527.38L77.59 526.46L77.7 525.54L77.83 524.63L77.98 523.72L78.14 522.82L78.32 521.93L78.52 521.05L78.73 520.17L78.97 519.3L79.21 518.43L79.48 517.57L79.76 516.72L80.06 515.88L80.38 515.04L80.72 514.21L81.07 513.39L81.44 512.57L81.82 511.76L82.23 510.95L82.65 510.16L83.08 509.37L83.54 508.58L84.01 507.8L84.5 507.03L85.01 506.27L85.53 505.51L86.07 504.76L86.63 504.02L87.2 503.28L87.8 502.55L88.41 501.83L89.03 501.12L89.68 500.41L90.34 499.7L91.01 499.01L91.7 498.33L92.4 497.67L93.11 497.02L93.82 496.4L94.54 495.78L95.26 495.19L95.99 494.61L96.73 494.05L97.48 493.51L98.23 492.99L98.99 492.48L99.76 491.99L100.53 491.51L101.31 491.05L102.1 490.61L102.9 490.19L103.7 489.78L104.51 489.39L105.32 489.02L106.15 488.67L106.98 488.33L107.81 488.01L108.66 487.71L109.51 487.42L110.36 487.15L111.23 486.9L112.1 486.66L112.97 486.45L113.86 486.25L114.75 486.06L115.65 485.9L116.55 485.75L117.46 485.62L118.38 485.51L119.31 485.41L120.24 485.33L121.18 485.27L122.12 485.23L123.08 485.2L124.04 485.19L125 485.2L125.95 485.23ZM122.7 503.87L122.05 503.91L121.39 503.96L120.75 504.02L120.11 504.1L119.48 504.19L118.85 504.3L118.23 504.41L117.61 504.54L117 504.69L116.4 504.84L115.8 505.01L115.21 505.19L114.62 505.39L114.04 505.6L113.47 505.82L112.9 506.05L112.34 506.3L111.79 506.56L111.24 506.84L110.69 507.12L110.16 507.43L109.62 507.74L109.1 508.07L108.58 508.41L108.07 508.76L107.56 509.13L107.06 509.51L106.56 509.91L106.07 510.32L105.59 510.74L105.11 511.17L104.64 511.62L104.17 512.08L103.71 512.56L103.26 513.05L102.83 513.54L102.4 514.03L101.99 514.53L101.6 515.04L101.21 515.55L100.84 516.06L100.49 516.58L100.14 517.11L99.81 517.64L99.5 518.18L99.19 518.72L98.9 519.26L98.63 519.82L98.36 520.37L98.11 520.94L97.88 521.5L97.65 522.08L97.44 522.65L97.25 523.24L97.06 523.83L96.9 524.42L96.74 525.02L96.6 525.62L96.47 526.23L96.35 526.84L96.25 527.46L96.16 528.09L96.09 528.72L96.03 529.35L95.98 529.99L95.95 530.64L95.93 531.29L95.92 531.95L95.93 532.61L95.95 533.27L95.98 533.92L96.03 534.56L96.09 535.2L96.16 535.84L96.25 536.47L96.35 537.09L96.47 537.71L96.6 538.32L96.74 538.93L96.9 539.53L97.06 540.13L97.25 540.72L97.44 541.3L97.65 541.88L97.88 542.45L98.11 543.02L98.36 543.58L98.63 544.14L98.9 544.69L99.19 545.23L99.5 545.77L99.81 546.31L100.14 546.83L100.49 547.36L100.84 547.87L101.21 548.39L101.6 548.89L101.99 549.39L102.4 549.89L102.83 550.38L103.26 550.86L103.71 551.34L104.17 551.81L104.65 552.27L105.12 552.72L105.61 553.16L106.1 553.58L106.59 553.99L107.09 554.38L107.6 554.76L108.11 555.13L108.63 555.48L109.15 555.82L109.68 556.15L110.21 556.46L110.75 556.76L111.3 557.05L111.85 557.32L112.4 557.58L112.96 557.83L113.53 558.06L114.1 558.28L114.68 558.49L115.27 558.68L115.86 558.86L116.45 559.03L117.05 559.18L117.66 559.32L118.27 559.45L118.89 559.56L119.51 559.66L120.14 559.74L120.78 559.82L121.42 559.88L122.06 559.92L122.72 559.96L123.37 559.98L124.04 559.98L124.69 559.98L125.34 559.96L125.99 559.92L126.63 559.88L127.26 559.82L127.89 559.74L128.51 559.66L129.13 559.56L129.74 559.45L130.35 559.32L130.95 559.18L131.54 559.03L132.13 558.86L132.72 558.68L133.3 558.49L133.87 558.28L134.44 558.06L135 557.83L135.56 557.58L136.12 557.32L136.67 557.05L137.21 556.76L137.75 556.46L138.28 556.15L138.81 555.82L139.33 555.48L139.85 555.13L140.36 554.76L140.87 554.38L141.37 553.99L141.87 553.58L142.37 553.16L142.85 552.72L143.34 552.27L143.82 551.81L144.29 551.34L144.74 550.86L145.18 550.38L145.61 549.89L146.02 549.39L146.42 548.89L146.81 548.39L147.18 547.87L147.54 547.36L147.88 546.83L148.21 546.31L148.53 545.77L148.83 545.23L149.12 544.69L149.4 544.14L149.66 543.58L149.91 543.02L150.14 542.45L150.37 541.88L150.57 541.3L150.77 540.72L150.95 540.13L151.11 539.53L151.27 538.93L151.41 538.32L151.53 537.71L151.65 537.09L151.75 536.47L151.83 535.84L151.91 535.2L151.97 534.56L152.01 533.92L152.05 533.27L152.07 532.61L152.07 531.95L152.07 531.29L152.04 530.64L152.01 529.99L151.96 529.35L151.9 528.72L151.83 528.09L151.74 527.46L151.64 526.84L151.52 526.23L151.39 525.62L151.25 525.02L151.1 524.42L150.93 523.83L150.74 523.24L150.55 522.65L150.34 522.08L150.11 521.5L149.88 520.94L149.63 520.37L149.36 519.82L149.09 519.26L148.8 518.72L148.49 518.18L148.18 517.64L147.85 517.11L147.5 516.58L147.15 516.06L146.78 515.55L146.39 515.04L146 514.53L145.59 514.03L145.17 513.54L144.73 513.05L144.28 512.56L143.82 512.08L143.34 511.62L142.87 511.17L142.38 510.74L141.89 510.31L141.4 509.9L140.9 509.51L140.39 509.12L139.88 508.75L139.37 508.4L138.84 508.05L138.32 507.72L137.78 507.41L137.24 507.1L136.7 506.81L136.15 506.54L135.6 506.27L135.04 506.02L134.47 505.79L133.9 505.56L133.32 505.35L132.74 505.16L132.15 504.98L131.56 504.81L130.96 504.65L130.36 504.51L129.75 504.38L129.14 504.26L128.52 504.16L127.89 504.07L127.26 504L126.63 503.94L125.99 503.89L125.34 503.86L124.69 503.84L124.04 503.83L123.37 503.84L122.7 503.87Z" id="f2wk8I7hI0"></path><path d="M255.14 499.01C253.82 500.33 243.22 510.92 241.9 512.25C236.26 506.69 229.72 503.99 222.12 503.99C214.36 503.99 207.82 506.77 202.34 512.25C196.86 517.72 194.08 524.35 194.08 532.11C194.08 539.88 196.86 546.5 202.34 551.97C207.73 557.45 214.36 560.23 222.12 560.23C234.05 560.23 243.37 552.79 247.38 544.13C245.62 544.13 236.85 544.13 221.06 544.13L221.06 526.31C249.5 526.31 265.3 526.31 268.47 526.31C269.77 543.55 264.13 556.06 255.06 565.05C245.91 574.12 234.87 578.7 222.04 578.7C209.04 578.7 198.09 574.12 189.1 565.05C179.86 556.06 175.29 545.02 175.29 532.03C175.29 519.2 179.86 508.16 189.02 498.93C198.09 489.77 209.04 485.11 221.96 485.11C221.96 485.13 221.99 485.21 222.04 485.36C239.09 489.55 250.13 494.1 255.14 499.01Z" id="cgKArkEuW"></path><path d="M332.22 504.16L295.19 504.16L295.19 522.71L322.98 522.71L322.98 541.18L295.19 541.18L295.19 559.82L332.22 559.82L332.22 578.21L276.64 578.21L276.64 485.68L332.22 485.68L332.22 504.16Z" id="h1bIeMmlnl"></path><path d="M350.53 565.13C341.37 555.98 336.8 544.94 336.8 532.11C336.8 519.28 341.37 508.24 350.53 499.01C359.68 489.85 370.72 485.19 383.47 485.19C383.46 485.22 383.39 485.41 383.39 485.44C397.61 485.44 408.89 491.73 416.57 499.09C415.25 500.4 404.65 510.93 403.33 512.25C397.77 506.77 391.15 503.99 383.47 503.99C375.7 503.99 369.08 506.77 363.69 512.25C358.21 517.81 355.43 524.43 355.43 532.11C355.43 539.88 358.21 546.5 363.69 551.97C369.16 557.45 375.7 560.15 383.47 560.15C391.23 560.15 397.85 557.37 403.33 551.89C404.65 553.21 415.25 563.81 416.57 565.13C409.05 572.57 397.85 578.7 383.47 578.7C370.55 578.7 359.6 574.12 350.53 565.13Z" id="a1Hb8AK7nZ"></path><path d="M483.43 578.05L477.22 564.07L445.67 564.07L439.46 578.05L419.43 578.05L461.36 484.05L503.46 578.05L483.43 578.05ZM469.78 547.72L461.36 528.27L452.86 547.72L469.78 547.72Z" id="a4MMOZSDtS"></path><path d="M543.35 550.5C543.35 542.08 532.07 540.94 525.69 538.73C514.49 534.89 504.52 525.65 504.52 513.15C504.52 497.62 517.11 485.11 532.64 485.11C546.78 485.11 558.55 495.66 560.43 509.31C558.59 509.7 543.88 512.84 542.04 513.23C542.04 508.16 537.79 503.91 532.72 503.91C527.57 503.91 523.32 508.16 523.32 513.31C523.32 521.65 533.86 523.85 540.24 525.73C551.85 529.09 562.14 537.91 562.14 550.75C562.14 566.28 548.17 578.86 532.72 578.86C518.5 578.86 505.58 568.4 503.46 554.67C505.3 554.28 520.01 551.14 521.85 550.75C521.85 555.9 527.41 560.06 532.64 560.06C532.63 560.05 532.61 560 532.56 559.9C539.75 557.07 543.35 553.93 543.35 550.5Z" id="bjRJF9Xiv"></path><path d="M588.55 522.79L619.36 522.79L619.36 485.93L637.83 485.93L637.83 578.05L619.36 578.05L619.36 541.1L588.55 541.1L588.55 578.05L570.07 578.05L570.07 485.93L588.55 485.93L588.55 522.79Z" id="a1Yqh94AZ0"></path><path d="M474.83 42.24L448.33 56.32L403.69 91.51L403.69 91.51L381.14 85.02L356.73 80.73L320 85.02L283.27 80.73L258.86 85.02L236.31 91.51L236.31 91.51L191.67 56.32L165.17 42.24L146.58 47.19L137.45 60.83L137.45 94.15L137.45 113.39L143.94 135.28L144.6 157.05L159.01 185.86L160 216.1L153.4 250.08L150.21 291.87L166.48 318.26L192 339.93L197.5 344.66L217.73 386.77L249.18 409.21L249.18 409.21L260.84 417.45L320 429.88L320 429.88L320 429.88L320 429.88L320 429.88L379.16 417.45L390.82 409.21L422.27 386.77L442.5 344.66L448.11 339.93L473.52 318.26L489.79 291.87L486.6 250.08L480 216.1L480.99 185.86L495.4 157.05L496.06 135.28L502.55 113.39L502.55 94.15L502.55 60.83L493.42 47.19L474.83 42.24Z" id="aL4szhmxm"></path><path d="M378.28 161.01L371.03 131.32L320 187.73L283.27 147.15L283.27 147.15L268.97 131.32L261.72 161.01L244.45 163.98L230.82 178.27L238.07 198.95L242.14 187.95L261.5 181.02L274.69 199.39L275.02 212.14L275.02 212.14L260.84 258.55L253.8 295.06L290.75 256.46L309.99 250.08L320 187.84L330.01 250.08L349.25 256.46L386.2 295.06L379.16 258.55L364.98 212.14L364.98 212.14L365.31 199.39L378.5 181.02L397.86 187.95L401.93 198.95L409.18 178.27L395.55 163.98L378.28 161.01Z" id="b2H6RgCCDm"></path><path d="M190.35 68.64L162.2 60.17L151.2 62.81L146.91 81.06L146.91 114.05L161.98 140.78L188.15 157.05L214.1 134.62L216.74 98.33L190.35 68.64Z" id="aeyYqQXKK"></path><path d="M313.29 115.92L320 116.91L320 181.02L313.29 115.92Z" id="e8AtEgkC"></path><path d="M236.31 91.51L191.67 56.32L165.17 42.24L146.58 47.19L137.45 60.83L137.45 94.15L146.91 100.97L146.91 81.06L151.2 62.81L162.2 60.17L190.35 68.64L216.74 98.33L214.1 134.62L188.15 157.05L171.1 212.14L202.99 224.68L228.73 196.86L238.07 198.95L230.82 178.27L240.16 168.49L244.45 163.98L261.72 161.01L268.97 131.32L285.8 130L299.99 115.92L311.86 133.3L320 187.73L320 98.33L261.5 90.19L236.31 91.51Z" id="cXh04xVuD"></path><path d="M162.97 277.36L181.88 233.26L202.99 224.68L171.1 212.14L251.49 100.97L214.1 134.62L188.15 157.05L159.01 185.86L153.4 250.08L150.21 291.87L166.48 318.26L162.97 277.36Z" id="b41rWxJh5m"></path><path d="M268.97 131.32L261.72 161.01L244.45 163.98L238.73 170.03L240.6 158.37L268.97 131.32Z" id="g18DVMrHUN"></path><path d="M240.6 331.02L223.56 270.32L232.8 238.98L228.73 212.14L260.84 258.55L283.27 248.43L309.99 250.08L307.79 265.37L289.21 274.28L283.27 288.9L286.24 301.99L291.63 308.04L278.43 340.59L263.26 340.59L251.49 324.75L251.49 336.19L260.84 348.5L240.6 331.02Z" id="dIqfaFcn2"></path><path d="M216.74 98.33L238.07 105.59L251.49 100.97L214.1 134.62L216.74 98.33Z" id="aa82QKy3O"></path><path d="M214.1 134.62L216.74 98.33L202 82.16L210.91 102.95L214.1 134.62Z" id="bMKTVUWjn"></path><path d="M144.6 157.05L137.45 113.39L137.45 94.15L146.91 100.97L146.91 114.05L161.98 140.78L188.15 157.05L159.01 185.86L144.6 157.05Z" id="b2ACuLPPMC"></path><path d="M238.07 183.33L264.91 171.02L261.5 181.02L242.14 187.95L238.07 198.95L238.07 183.33Z" id="a1eZ0nNFyE"></path><path d="M246.32 211.38L238.07 198.95L228.73 196.86L223.56 202.47L228.73 212.14L234.01 219.73L260.84 258.55L275.02 212.14L262.27 216.1L246.32 211.38Z" id="csggSe1yr"></path><path d="M273.48 352.02L260.84 348.5L240.6 331.02L234.56 309.69L209.37 340.59L197.5 344.66L217.73 386.77L249.18 409.21L273.48 396.89L296.69 385.12L280.85 377.87L273.48 352.02Z" id="b3o9yW9BWu"></path><path d="M449.65 68.64L477.8 60.17L488.8 62.81L493.09 81.06L493.09 114.05L478.02 140.78L451.85 157.05L425.9 134.62L423.26 98.33L449.65 68.64Z" id="jkygqll4y"></path><path d="M365.31 199.39L378.5 181.02L397.86 187.95L401.93 198.95L393.68 211.38L377.73 216.1L365.31 212.14L365.31 199.39Z" id="a1nbuw04Ug"></path><path d="M394.34 193.34C394.45 193.89 394.45 194.44 394.45 195.1C394.45 202.36 388.95 208.19 382.13 208.19C375.31 208.19 369.82 202.36 369.82 195.1C369.82 194.99 369.82 194.88 369.82 194.77C371.68 199.72 376.41 203.13 381.91 203.13C387.96 203.13 393.02 198.95 394.34 193.34Z" id="h6aWIawpn"></path><path d="M369.82 194.77C370.04 187.73 375.42 182.01 382.13 182.01C388.4 182.01 393.57 186.96 394.34 193.34C393.02 198.95 387.96 203.13 381.91 203.13C376.41 203.13 371.68 199.61 369.82 194.77Z" id="a3M2kkxkEc"></path><path d="M393.68 193.56C393.68 193.56 391.26 186.96 381.69 188.39C381.69 188.39 386.53 192.57 387.3 195.54C388.58 195.14 393.04 193.76 393.68 193.56Z" id="aEZWzhvEb"></path><path d="M326.71 115.92L320 116.91L320 181.02L326.71 115.92Z" id="b1drGd69Dj"></path><path d="M332.21 265.37L320 265.37L320 265.37L307.79 265.37L289.21 274.28L283.27 288.9L286.24 301.99L301.64 319.25L320 324.75L320 324.75L320 324.75L320 324.75L320 324.75L338.36 319.25L353.76 301.99L356.73 288.9L350.79 274.28L332.21 265.37Z" id="c3VF8ihMrn"></path><path d="M334.63 301L342.98 301L349.14 290L337.26 281.53L320 278.02L320 278.02L320 278.02L320 278.02L320 278.02L302.74 281.53L290.86 290L297.02 301L305.37 301L311.86 298.69L306.25 306.06L291.63 308.04L301.64 319.25L320 324.75L320 324.75L320 324.75L320 324.75L320 324.75L338.36 319.25L348.37 308.04L333.75 306.06L328.14 298.69L334.63 301Z" id="eLCp43L5k"></path><path d="M361.57 340.59L320 331.35L320 331.35L320 331.35L320 331.35L320 331.35L278.43 340.59L263.26 340.59L251.49 324.75L251.49 336.19L260.84 348.5L278.43 353.34L301.64 342.57L320 347.96L320 347.96L320 347.96L320 347.96L320 347.96L338.36 342.57L361.57 353.34L379.16 348.5L388.51 336.19L388.51 324.75L376.74 340.59L361.57 340.59Z" id="al4onX8V1"></path><path d="M338.36 342.57L320 347.96L301.64 342.57L278.43 353.34L301.64 365.88L320 369.51L320 369.51L320 369.51L320 369.51L320 369.51L338.36 365.88L361.57 353.34L338.36 342.57Z" id="isONwdHue"></path><path d="M348.37 308.04L338.36 319.25L320 324.75L301.64 319.25L291.63 308.04L278.43 340.59L320 331.35L361.57 340.59L348.37 308.04Z" id="a19Mjzkyb"></path><path d="M338.36 365.88L320 369.51L301.64 365.88L278.43 353.34L273.48 352.02L280.85 377.87L305.37 389.08L320 393.04L320 393.04L320 393.04L320 393.04L320 393.04L334.63 389.08L359.15 377.87L366.52 352.02L361.57 353.34L338.36 365.88Z" id="brsCkcp8v"></path><path d="M403.69 91.51L448.33 56.32L474.83 42.24L493.42 47.19L502.55 60.83L502.55 94.15L493.09 100.97L493.09 81.06L488.8 62.81L477.8 60.17L449.65 68.64L423.26 98.33L425.9 134.62L451.85 157.05L468.9 212.14L437.01 224.68L411.27 196.86L401.93 198.95L409.18 178.27L399.84 168.49L395.55 163.98L378.28 161.01L371.03 131.32L354.2 130L340.01 115.92L328.14 133.3L320 187.73L320 98.33L378.5 90.19L403.69 91.51Z" id="a10s5FaF6n"></path><path d="M477.03 277.36L458.12 233.26L437.01 224.68L468.9 212.14L388.51 100.97L425.9 134.62L451.85 157.05L480.99 185.86L486.6 250.08L489.79 291.87L473.52 318.26L477.03 277.36Z" id="f95au74kq"></path><path d="M381.14 85.02L356.73 80.73L320 85.02L283.27 80.73L258.86 85.02L236.31 91.51L261.5 90.19L320 98.33L320 98.33L320 98.33L320 98.33L320 98.33L378.5 90.19L403.69 91.51L381.14 85.02Z" id="c3coQZ9re"></path><path d="M371.03 131.32L378.28 161.01L395.55 163.98L401.27 170.03L399.4 158.37L371.03 131.32Z" id="ca09ePR5e"></path><path d="M399.4 331.02L416.44 270.32L407.2 238.98L411.27 212.14L379.16 258.55L356.73 248.43L330.01 250.08L332.21 265.37L350.79 274.28L356.73 288.9L353.76 301.99L348.37 308.04L361.57 340.59L376.74 340.59L388.51 324.75L388.51 336.19L379.16 348.5L399.4 331.02Z" id="bZ3FbWmYa"></path><path d="M371.03 131.32L354.2 130L340.01 115.92L342.65 104.6L320 98.33L320 98.33L320 98.33L320 98.33L320 98.33L297.35 104.6L299.99 115.92L285.8 130L268.97 131.32L320 187.73L320 187.73L320 187.73L320 187.73L320 187.73L371.03 131.32Z" id="a5bSHggJjC"></path><path d="M423.26 98.33L401.93 105.59L388.51 100.97L425.9 134.62L423.26 98.33Z" id="afqC0G5It"></path><path d="M425.9 134.62L423.26 98.33L438 82.16L429.09 102.95L425.9 134.62Z" id="dJUUd5P7s"></path><path d="M495.4 157.05L502.55 113.39L502.55 94.15L493.09 100.97L493.09 114.05L478.02 140.78L451.85 157.05L480.99 185.86L495.4 157.05Z" id="f1lIlFnLOZ"></path><path d="M401.93 183.33L375.09 171.02L378.5 181.02L397.86 187.95L401.93 198.95L401.93 183.33Z" id="f5eDB8AbNt"></path><path d="M356.73 147.15L320 187.73L348.92 201.48L356.73 147.15Z" id="a6VemPL3wK"></path><path d="M343.31 385.12L334.63 389.08L320 393.04L305.37 389.08L296.69 385.12L249.18 409.21L260.84 417.45L320 429.88L320 429.88L320 429.88L320 429.88L320 429.88L379.16 417.45L390.82 409.21L343.31 385.12Z" id="ekKSw4hQ0"></path><path d="M202.99 224.68L181.88 233.26L162.97 277.36L166.48 318.26L192 339.93L192 312.11L200.57 287.14L217.95 254.7L216.74 209.62L211.57 215.33L202.99 224.68Z" id="b227NuK9Y"></path><path d="M437.01 224.68L428.43 215.33L423.26 209.62L422.05 254.7L439.43 287.14L448.11 312.11L448.11 339.93L473.52 318.26L477.03 277.36L458.12 233.26L437.01 224.68Z" id="a25fmZEGNH"></path><path d="M401.93 198.95L393.68 211.38L377.73 216.1L364.98 212.14L379.16 258.55L405.99 219.73L411.27 212.14L416.44 202.47L411.27 196.86L401.93 198.95Z" id="a1ayjh36kH"></path><path d="M416.44 202.47L411.27 212.14L407.2 238.98L416.44 270.32L405.44 309.69L430.63 340.59L442.5 344.66L465.82 324.75L423.26 209.62L416.44 202.47Z" id="euhRMaL1P"></path><path d="M405.44 309.69L399.4 331.02L379.16 348.5L366.52 352.02L359.15 377.87L343.31 385.12L366.52 396.89L390.82 409.21L422.27 386.77L442.5 344.66L430.63 340.59L405.44 309.69Z" id="f3Vxvh64x1"></path><path d="M223.56 202.47L228.73 212.14L232.8 238.98L223.56 270.32L234.56 309.69L209.37 340.59L197.5 344.66L174.18 324.75L216.74 209.62L223.56 202.47Z" id="aEpcDfe6y"></path><path d="M274.69 199.39L261.5 181.02L242.14 187.95L238.07 198.95L246.32 211.38L262.27 216.1L274.69 212.14L274.69 199.39Z" id="bzw5pN3JX"></path><path d="M245.66 193.34C245.55 193.89 245.55 194.44 245.55 195.1C245.55 202.36 251.05 208.19 257.87 208.19C264.69 208.19 270.18 202.36 270.18 195.1C270.18 194.99 270.18 194.88 270.18 194.77C268.32 199.72 263.59 203.13 258.09 203.13C252.04 203.13 246.98 198.95 245.66 193.34Z" id="c4zcJZULV"></path><path d="M270.18 194.77C269.96 187.73 264.58 182.01 257.87 182.01C251.6 182.01 246.43 186.96 245.66 193.34C246.98 198.95 252.04 203.13 258.09 203.13C263.59 203.13 268.32 199.61 270.18 194.77Z" id="e6SAbsTJc"></path><path d="M246.32 193.56C246.32 193.56 248.74 186.96 258.31 188.39C258.31 188.39 253.47 192.57 252.7 195.54C251.42 195.14 246.96 193.76 246.32 193.56Z" id="c2NCEAZGK3"></path><path d="M320 187.73L307.79 265.37L320 265.37L320 265.37L332.21 265.37L320 187.73L320 187.73Z" id="aamzGKGJ5"></path><path d="M451.85 354.55C452.35 354.55 456.31 354.55 456.8 354.55C456.8 355.1 456.8 355.54 456.8 356.09C456.69 356.09 456.14 356.09 455.15 356.09C455.15 359.13 455.15 360.81 455.15 361.15C454.6 361.15 454.05 361.15 453.5 361.15C453.5 360.81 453.5 359.13 453.5 356.09L451.85 356.09C451.85 355.43 451.85 354.92 451.85 354.55Z" id="aipa1r35r"></path><path d="M464.17 354.66C464.17 358.62 464.17 360.82 464.17 361.26C463.62 361.26 463.07 361.26 462.41 361.26C462.41 361.06 462.41 360.07 462.41 358.29L460.98 359.72L460.76 359.72L459.33 358.29C459.33 360.07 459.33 361.06 459.33 361.26C458.78 361.26 458.23 361.26 457.57 361.26C457.57 360.82 457.57 358.62 457.57 354.66L458.23 354.66L460.76 357.52L463.62 354.66L464.17 354.66Z" id="b2UHHT0fS0"></path><path d="M460.66 347.41L461.9 347.8L463.07 348.34L464.16 349.01L465.16 349.8L466.06 350.7L466.85 351.7L467.52 352.79L468.06 353.96L468.46 355.2L468.7 356.5L468.79 357.85L468.7 359.2L468.46 360.5L468.06 361.74L467.52 362.91L466.85 364L466.06 365L465.16 365.9L464.16 366.69L463.07 367.36L461.9 367.9L460.66 368.3L459.36 368.54L458.01 368.63L456.66 368.54L455.36 368.3L454.12 367.9L452.95 367.36L451.86 366.69L450.86 365.9L449.96 365L449.17 364L448.5 362.91L447.96 361.74L447.56 360.5L447.32 359.2L447.23 357.85L447.32 356.5L447.56 355.2L447.96 353.96L448.5 352.79L449.17 351.7L449.96 350.7L450.86 349.8L451.86 349.01L452.95 348.34L454.12 347.8L455.36 347.41L456.66 347.16L458.01 347.08L459.36 347.16L460.66 347.41ZM455.26 348.8L454 349.28L452.84 349.93L451.78 350.73L450.85 351.67L450.06 352.73L449.42 353.89L448.95 355.14L448.65 356.47L448.55 357.85L448.66 359.24L448.96 360.56L449.44 361.82L450.09 362.98L450.89 364.03L451.83 364.97L452.88 365.77L454.05 366.42L455.3 366.9L456.62 367.21L458.01 367.31L459.42 367.21L460.76 366.9L462.02 366.42L463.18 365.77L464.24 364.97L465.17 364.03L465.96 362.98L466.6 361.82L467.07 360.56L467.37 359.24L467.47 357.85L467.37 356.47L467.07 355.14L466.6 353.89L465.96 352.73L465.17 351.67L464.24 350.73L463.18 349.93L462.02 349.28L460.76 348.8L459.42 348.5L458.01 348.39L456.6 348.5L455.26 348.8Z" id="d1zwkBUA42"></path></defs><g><g><g><use xlink:href="#a4g2quZio" opacity="1" fill="#703b1e" fill-opacity="1"></use><g><use xlink:href="#a4g2quZio" opacity="1" fill-opacity="0" stroke="#000000" stroke-width="1" stroke-opacity="0"></use></g></g><g><use xlink:href="#f2wk8I7hI0" opacity="1" fill="#703b1e" fill-opacity="1"></use><g><use xlink:href="#f2wk8I7hI0" opacity="1" fill-opacity="0" stroke="#000000" stroke-width="1" stroke-opacity="0"></use></g></g><g><use xlink:href="#cgKArkEuW" opacity="1" fill="#703b1e" fill-opacity="1"></use><g><use xlink:href="#cgKArkEuW" opacity="1" fill-opacity="0" stroke="#000000" stroke-width="1" stroke-opacity="0"></use></g></g><g><use xlink:href="#h1bIeMmlnl" opacity="1" fill="#703b1e" fill-opacity="1"></use><g><use xlink:href="#h1bIeMmlnl" opacity="1" fill-opacity="0" stroke="#000000" stroke-width="1" stroke-opacity="0"></use></g></g><g><use xlink:href="#a1Hb8AK7nZ" opacity="1" fill="#2a150a" fill-opacity="1"></use><g><use xlink:href="#a1Hb8AK7nZ" opacity="1" fill-opacity="0" stroke="#000000" stroke-width="1" stroke-opacity="0"></use></g></g><g><use xlink:href="#a4MMOZSDtS" opacity="1" fill="#2a150a" fill-opacity="1"></use><g><use xlink:href="#a4MMOZSDtS" opacity="1" fill-opacity="0" stroke="#000000" stroke-width="1" stroke-opacity="0"></use></g></g><g><use xlink:href="#bjRJF9Xiv" opacity="1" fill="#2a150a" fill-opacity="1"></use><g><use xlink:href="#bjRJF9Xiv" opacity="1" fill-opacity="0" stroke="#000000" stroke-width="1" stroke-opacity="0"></use></g></g><g><use xlink:href="#a1Yqh94AZ0" opacity="1" fill="#2a150a" fill-opacity="1"></use><g><use xlink:href="#a1Yqh94AZ0" opacity="1" fill-opacity="0" stroke="#000000" stroke-width="1" stroke-opacity="0"></use></g></g><g><use xlink:href="#aL4szhmxm" opacity="1" fill="#cc8e58" fill-opacity="1"></use><g><use xlink:href="#aL4szhmxm" opacity="1" fill-opacity="0" stroke="#000000" stroke-width="1" stroke-opacity="0"></use></g></g><g><use xlink:href="#b2H6RgCCDm" opacity="1" fill="#cc8e58" fill-opacity="1"></use><g><use xlink:href="#b2H6RgCCDm" opacity="1" fill-opacity="0" stroke="#000000" stroke-width="1" stroke-opacity="0"></use></g></g><g><use xlink:href="#aeyYqQXKK" opacity="1" fill="#2d2113" fill-opacity="1"></use><g><use xlink:href="#aeyYqQXKK" opacity="1" fill-opacity="0" stroke="#000000" stroke-width="1" stroke-opacity="0"></use></g></g><g><use xlink:href="#e8AtEgkC" opacity="1" fill="#2c1800" fill-opacity="1"></use><g><use xlink:href="#e8AtEgkC" opacity="1" fill-opacity="0" stroke="#000000" stroke-width="1" stroke-opacity="0"></use></g></g><g><use xlink:href="#cXh04xVuD" opacity="1" fill="#a8633a" fill-opacity="1"></use><g><use xlink:href="#cXh04xVuD" opacity="1" fill-opacity="0" stroke="#000000" stroke-width="1" stroke-opacity="0"></use></g></g><g><use xlink:href="#b41rWxJh5m" opacity="1" fill="#cc8e58" fill-opacity="1"></use><g><use xlink:href="#b41rWxJh5m" opacity="1" fill-opacity="0" stroke="#000000" stroke-width="1" stroke-opacity="0"></use></g></g><g><use xlink:href="#g18DVMrHUN" opacity="1" fill="#a8633a" fill-opacity="1"></use><g><use xlink:href="#g18DVMrHUN" opacity="1" fill-opacity="0" stroke="#000000" stroke-width="1" stroke-opacity="0"></use></g></g><g><use xlink:href="#dIqfaFcn2" opacity="1" fill="#ebe8db" fill-opacity="1"></use><g><use xlink:href="#dIqfaFcn2" opacity="1" fill-opacity="0" stroke="#000000" stroke-width="1" stroke-opacity="0"></use></g></g><g><use xlink:href="#aa82QKy3O" opacity="1" fill="#5d2900" fill-opacity="1"></use><g><use xlink:href="#aa82QKy3O" opacity="1" fill-opacity="0" stroke="#000000" stroke-width="1" stroke-opacity="0"></use></g></g><g><use xlink:href="#bMKTVUWjn" opacity="1" fill="#5d2900" fill-opacity="1"></use><g><use xlink:href="#bMKTVUWjn" opacity="1" fill-opacity="0" stroke="#000000" stroke-width="1" stroke-opacity="0"></use></g></g><g><use xlink:href="#b2ACuLPPMC" opacity="1" fill="#a8633a" fill-opacity="1"></use><g><use xlink:href="#b2ACuLPPMC" opacity="1" fill-opacity="0" stroke="#000000" stroke-width="1" stroke-opacity="0"></use></g></g><g><use xlink:href="#a1eZ0nNFyE" opacity="1" fill="#a8633a" fill-opacity="1"></use><g><use xlink:href="#a1eZ0nNFyE" opacity="1" fill-opacity="0" stroke="#000000" stroke-width="1" stroke-opacity="0"></use></g></g><g><use xlink:href="#csggSe1yr" opacity="1" fill="#d6b795" fill-opacity="1"></use><g><use xlink:href="#csggSe1yr" opacity="1" fill-opacity="0" stroke="#000000" stroke-width="1" stroke-opacity="0"></use></g></g><g><use xlink:href="#b3o9yW9BWu" opacity="1" fill="#dbd5c3" fill-opacity="1"></use><g><use xlink:href="#b3o9yW9BWu" opacity="1" fill-opacity="0" stroke="#000000" stroke-width="1" stroke-opacity="0"></use></g></g><g><use xlink:href="#jkygqll4y" opacity="1" fill="#2d2113" fill-opacity="1"></use><g><use xlink:href="#jkygqll4y" opacity="1" fill-opacity="0" stroke="#000000" stroke-width="1" stroke-opacity="0"></use></g></g><g><use xlink:href="#a1nbuw04Ug" opacity="1" fill="#2c1800" fill-opacity="1"></use><g><use xlink:href="#a1nbuw04Ug" opacity="1" fill-opacity="0" stroke="#000000" stroke-width="1" stroke-opacity="0"></use></g></g><g><use xlink:href="#h6aWIawpn" opacity="1" fill="#4d2f00" fill-opacity="1"></use><g><use xlink:href="#h6aWIawpn" opacity="1" fill-opacity="0" stroke="#000000" stroke-width="1" stroke-opacity="0"></use></g></g><g><use xlink:href="#a3M2kkxkEc" opacity="1" fill="#2c1800" fill-opacity="1"></use><g><use xlink:href="#a3M2kkxkEc" opacity="1" fill-opacity="0" stroke="#000000" stroke-width="1" stroke-opacity="0"></use></g></g><g><use xlink:href="#aEZWzhvEb" opacity="1" fill="#ecd9cb" fill-opacity="1"></use><g><use xlink:href="#aEZWzhvEb" opacity="1" fill-opacity="0" stroke="#000000" stroke-width="1" stroke-opacity="0"></use></g></g><g><use xlink:href="#b1drGd69Dj" opacity="1" fill="#2c1800" fill-opacity="1"></use><g><use xlink:href="#b1drGd69Dj" opacity="1" fill-opacity="0" stroke="#000000" stroke-width="1" stroke-opacity="0"></use></g></g><g><use xlink:href="#c3VF8ihMrn" opacity="1" fill="#262626" fill-opacity="1"></use><g><use xlink:href="#c3VF8ihMrn" opacity="1" fill-opacity="0" stroke="#000000" stroke-width="1" stroke-opacity="0"></use></g></g><g><use xlink:href="#eLCp43L5k" opacity="1" fill="#000000" fill-opacity="1"></use><g><use xlink:href="#eLCp43L5k" opacity="1" fill-opacity="0" stroke="#000000" stroke-width="1" stroke-opacity="0"></use></g></g><g><use xlink:href="#al4onX8V1" opacity="1" fill="#000000" fill-opacity="1"></use><g><use xlink:href="#al4onX8V1" opacity="1" fill-opacity="0" stroke="#000000" stroke-width="1" stroke-opacity="0"></use></g></g><g><use xlink:href="#isONwdHue" opacity="1" fill="#918a85" fill-opacity="1"></use><g><use xlink:href="#isONwdHue" opacity="1" fill-opacity="0" stroke="#000000" stroke-width="1" stroke-opacity="0"></use></g></g><g><use xlink:href="#a19Mjzkyb" opacity="1" fill="#5c524a" fill-opacity="1"></use><g><use xlink:href="#a19Mjzkyb" opacity="1" fill-opacity="0" stroke="#000000" stroke-width="1" stroke-opacity="0"></use></g></g><g><use xlink:href="#brsCkcp8v" opacity="1" fill="#ebe8db" fill-opacity="1"></use><g><use xlink:href="#brsCkcp8v" opacity="1" fill-opacity="0" stroke="#000000" stroke-width="1" stroke-opacity="0"></use></g></g><g><use xlink:href="#a10s5FaF6n" opacity="1" fill="#a8633a" fill-opacity="1"></use><g><use xlink:href="#a10s5FaF6n" opacity="1" fill-opacity="0" stroke="#000000" stroke-width="1" stroke-opacity="0"></use></g></g><g><use xlink:href="#f95au74kq" opacity="1" fill="#cc8e58" fill-opacity="1"></use><g><use xlink:href="#f95au74kq" opacity="1" fill-opacity="0" stroke="#000000" stroke-width="1" stroke-opacity="0"></use></g></g><g><use xlink:href="#c3coQZ9re" opacity="1" fill="#a8633a" fill-opacity="1"></use><g><use xlink:href="#c3coQZ9re" opacity="1" fill-opacity="0" stroke="#000000" stroke-width="1" stroke-opacity="0"></use></g></g><g><use xlink:href="#ca09ePR5e" opacity="1" fill="#a8633a" fill-opacity="1"></use><g><use xlink:href="#ca09ePR5e" opacity="1" fill-opacity="0" stroke="#000000" stroke-width="1" stroke-opacity="0"></use></g></g><g><use xlink:href="#bZ3FbWmYa" opacity="1" fill="#ebe8db" fill-opacity="1"></use><g><use xlink:href="#bZ3FbWmYa" opacity="1" fill-opacity="0" stroke="#000000" stroke-width="1" stroke-opacity="0"></use></g></g><g><use xlink:href="#a5bSHggJjC" opacity="1" fill="#a8633a" fill-opacity="1"></use><g><use xlink:href="#a5bSHggJjC" opacity="1" fill-opacity="0" stroke="#000000" stroke-width="1" stroke-opacity="0"></use></g></g><g><use xlink:href="#afqC0G5It" opacity="1" fill="#5d2900" fill-opacity="1"></use><g><use xlink:href="#afqC0G5It" opacity="1" fill-opacity="0" stroke="#000000" stroke-width="1" stroke-opacity="0"></use></g></g><g><use xlink:href="#dJUUd5P7s" opacity="1" fill="#5d2900" fill-opacity="1"></use><g><use xlink:href="#dJUUd5P7s" opacity="1" fill-opacity="0" stroke="#000000" stroke-width="1" stroke-opacity="0"></use></g></g><g><use xlink:href="#f1lIlFnLOZ" opacity="1" fill="#a8633a" fill-opacity="1"></use><g><use xlink:href="#f1lIlFnLOZ" opacity="1" fill-opacity="0" stroke="#000000" stroke-width="1" stroke-opacity="0"></use></g></g><g><use xlink:href="#f5eDB8AbNt" opacity="1" fill="#a8633a" fill-opacity="1"></use><g><use xlink:href="#f5eDB8AbNt" opacity="1" fill-opacity="0" stroke="#000000" stroke-width="1" stroke-opacity="0"></use></g></g><g><use xlink:href="#a6VemPL3wK" opacity="1" fill="#cc8e58" fill-opacity="1"></use><g><use xlink:href="#a6VemPL3wK" opacity="1" fill-opacity="0" stroke="#000000" stroke-width="1" stroke-opacity="0"></use></g></g><g><use xlink:href="#ekKSw4hQ0" opacity="1" fill="#807664" fill-opacity="1"></use><g><use xlink:href="#ekKSw4hQ0" opacity="1" fill-opacity="0" stroke="#000000" stroke-width="1" stroke-opacity="0"></use></g></g><g><use xlink:href="#b227NuK9Y" opacity="1" fill="#dbd5c3" fill-opacity="1"></use><g><use xlink:href="#b227NuK9Y" opacity="1" fill-opacity="0" stroke="#000000" stroke-width="1" stroke-opacity="0"></use></g></g><g><use xlink:href="#a25fmZEGNH" opacity="1" fill="#dbd5c3" fill-opacity="1"></use><g><use xlink:href="#a25fmZEGNH" opacity="1" fill-opacity="0" stroke="#000000" stroke-width="1" stroke-opacity="0"></use></g></g><g><use xlink:href="#a1ayjh36kH" opacity="1" fill="#d6b795" fill-opacity="1"></use><g><use xlink:href="#a1ayjh36kH" opacity="1" fill-opacity="0" stroke="#000000" stroke-width="1" stroke-opacity="0"></use></g></g><g><use xlink:href="#euhRMaL1P" opacity="1" fill="#cfc7af" fill-opacity="1"></use><g><use xlink:href="#euhRMaL1P" opacity="1" fill-opacity="0" stroke="#000000" stroke-width="1" stroke-opacity="0"></use></g></g><g><use xlink:href="#f3Vxvh64x1" opacity="1" fill="#dbd5c3" fill-opacity="1"></use><g><use xlink:href="#f3Vxvh64x1" opacity="1" fill-opacity="0" stroke="#000000" stroke-width="1" stroke-opacity="0"></use></g></g><g><use xlink:href="#aEpcDfe6y" opacity="1" fill="#cfc7af" fill-opacity="1"></use><g><use xlink:href="#aEpcDfe6y" opacity="1" fill-opacity="0" stroke="#000000" stroke-width="1" stroke-opacity="0"></use></g></g><g><use xlink:href="#bzw5pN3JX" opacity="1" fill="#2c1800" fill-opacity="1"></use><g><use xlink:href="#bzw5pN3JX" opacity="1" fill-opacity="0" stroke="#000000" stroke-width="1" stroke-opacity="0"></use></g></g><g><use xlink:href="#c4zcJZULV" opacity="1" fill="#4d2f00" fill-opacity="1"></use><g><use xlink:href="#c4zcJZULV" opacity="1" fill-opacity="0" stroke="#000000" stroke-width="1" stroke-opacity="0"></use></g></g><g><use xlink:href="#e6SAbsTJc" opacity="1" fill="#2c1800" fill-opacity="1"></use><g><use xlink:href="#e6SAbsTJc" opacity="1" fill-opacity="0" stroke="#000000" stroke-width="1" stroke-opacity="0"></use></g></g><g><use xlink:href="#c2NCEAZGK3" opacity="1" fill="#ecd9cb" fill-opacity="1"></use><g><use xlink:href="#c2NCEAZGK3" opacity="1" fill-opacity="0" stroke="#000000" stroke-width="1" stroke-opacity="0"></use></g></g><g><use xlink:href="#aamzGKGJ5" opacity="1" fill="#d9aa8b" fill-opacity="1"></use><g><use xlink:href="#aamzGKGJ5" opacity="1" fill-opacity="0" stroke="#000000" stroke-width="1" stroke-opacity="0"></use></g></g><g><use xlink:href="#aipa1r35r" opacity="1" fill="#cc8e58" fill-opacity="1"></use><g><use xlink:href="#aipa1r35r" opacity="1" fill-opacity="0" stroke="#000000" stroke-width="1" stroke-opacity="0"></use></g></g><g><use xlink:href="#b2UHHT0fS0" opacity="1" fill="#cc8e58" fill-opacity="1"></use><g><use xlink:href="#b2UHHT0fS0" opacity="1" fill-opacity="0" stroke="#000000" stroke-width="1" stroke-opacity="0"></use></g></g><g><use xlink:href="#d1zwkBUA42" opacity="1" fill="#cc8e58" fill-opacity="1"></use><g><use xlink:href="#d1zwkBUA42" opacity="1" fill-opacity="0" stroke="#000000" stroke-width="1" stroke-opacity="0"></use></g></g></g></g></svg>