<?xml version="1.0" encoding="UTF-8" standalone="no"?>
<!DOCTYPE svg PUBLIC "-//W3C//DTD SVG 1.1//EN" "http://www.w3.org/Graphics/SVG/1.1/DTD/svg11.dtd">
<svg version="1.1" xmlns="http://www.w3.org/2000/svg" xmlns:xlink="http://www.w3.org/1999/xlink" preserveAspectRatio="xMidYMid meet" viewBox="0 0 640 640" width="640" height="640"><defs><path d="M352 115.2L352 172.8L288 172.8L288 115.2L352 115.2Z" id="a3xNK7AkC"></path><path d="M352 115.2L352 172.8L288 172.8L288 115.2L352 115.2Z" id="gmXbCXGAn"></path><path d="M128 422.4L128 486.4L89.6 486.4L89.6 422.4L128 422.4Z" id="bcd2qTO4I"></path><path d="M128 422.4L128 486.4L89.6 486.4L89.6 422.4L128 422.4Z" id="e6Ib8xceP"></path><path d="M550.4 422.4L550.4 486.4L512 486.4L512 422.4L550.4 422.4Z" id="arrGC2As2"></path><path d="M550.4 422.4L550.4 486.4L512 486.4L512 422.4L550.4 422.4Z" id="b81jN7u58"></path><path d="M339.2 422.4L339.2 486.4L300.8 486.4L300.8 422.4L339.2 422.4Z" id="aljVgf7ik"></path><path d="M339.2 422.4L339.2 486.4L300.8 486.4L300.8 422.4L339.2 422.4Z" id="evMmXx7r"></path><path d="M441.6 256L441.6 281.6L428.8 281.6L428.8 256L441.6 256Z" id="b4lhENPwDG"></path><path d="M441.6 256L441.6 281.6L428.8 281.6L428.8 256L441.6 256Z" id="dyuaYZtPR"></path><path d="M313.6 467.2C313.6 470.72 316.48 473.6 320 473.6C323.52 473.6 326.4 470.72 326.4 467.2C326.4 463.68 323.52 460.8 320 460.8C316.48 460.8 313.6 463.68 313.6 467.2Z" id="b2twPBKAWH"></path><path d="M313.6 467.2C313.6 470.72 316.48 473.6 320 473.6C323.52 473.6 326.4 470.72 326.4 467.2C326.4 463.68 323.52 460.8 320 460.8C316.48 460.8 313.6 463.68 313.6 467.2Z" id="b3lEp39le8"></path><path d="M524.8 467.2C524.8 470.72 527.68 473.6 531.2 473.6C534.72 473.6 537.6 470.72 537.6 467.2C537.6 463.68 534.72 460.8 531.2 460.8C527.68 460.8 524.8 463.68 524.8 467.2Z" id="a5YNNukG7U"></path><path d="M524.8 467.2C524.8 470.72 527.68 473.6 531.2 473.6C534.72 473.6 537.6 470.72 537.6 467.2C537.6 463.68 534.72 460.8 531.2 460.8C527.68 460.8 524.8 463.68 524.8 467.2Z" id="b2LE8J7vwd"></path><path d="M230.4 371.2L230.4 384L204.8 384L204.8 371.2L230.4 371.2Z" id="f11dvCKh93"></path><path d="M230.4 371.2L230.4 384L204.8 384L204.8 371.2L230.4 371.2Z" id="bsHnxZHzJ"></path><path d="M115.2 384L115.2 416L134.4 416L134.4 435.2L172.8 435.2L172.8 595.2L44.8 595.2L44.8 486.4L57.6 486.4L57.6 582.4L160 582.4L160 448L134.4 448L134.4 492.8L83.2 492.8L83.2 448L57.6 448L57.6 460.8L44.8 460.8L44.8 435.2L83.2 435.2L83.2 416L102.4 416L102.4 371.2L179.2 371.2L179.2 384L115.2 384ZM96 480L121.6 480L121.6 428.8L96 428.8L96 480Z" id="haFCFSzU"></path><path d="M115.2 384L115.2 416L134.4 416L134.4 435.2L172.8 435.2L172.8 595.2L44.8 595.2L44.8 486.4L57.6 486.4L57.6 582.4L160 582.4L160 448L134.4 448L134.4 492.8L83.2 492.8L83.2 448L57.6 448L57.6 460.8L44.8 460.8L44.8 435.2L83.2 435.2L83.2 416L102.4 416L102.4 371.2L179.2 371.2L179.2 384L115.2 384ZM96 480L121.6 480L121.6 428.8L96 428.8L96 480Z" id="a6GcVOdAV"></path><path d="M102.4 467.2C102.4 470.72 105.28 473.6 108.8 473.6C112.32 473.6 115.2 470.72 115.2 467.2C115.2 463.68 112.32 460.8 108.8 460.8C105.28 460.8 102.4 463.68 102.4 467.2Z" id="dMWl5otp3"></path><path d="M102.4 467.2C102.4 470.72 105.28 473.6 108.8 473.6C112.32 473.6 115.2 470.72 115.2 467.2C115.2 463.68 112.32 460.8 108.8 460.8C105.28 460.8 102.4 463.68 102.4 467.2Z" id="h29ukIcarU"></path><path d="M292.8 45.06L294.27 45.25L295.68 45.5L297.15 45.82L298.56 46.21L299.97 46.66L301.38 47.17L302.72 47.68L305.41 48.96L306.75 49.66L308.03 50.37L309.25 51.2L310.53 52.03L311.68 52.93L312.9 53.89L313.98 54.91L316.16 57.09L317.18 58.24L318.14 59.46L319.1 60.74L320 62.02L320.06 61.89L320.13 61.76L320.26 61.63L320.32 61.57L320.45 61.31L320.58 61.18L320.64 61.06L320.83 60.86L320.96 60.61L321.02 60.48L321.15 60.42L321.28 60.16L321.41 60.03L321.47 59.9L321.66 59.71L321.73 59.58L321.86 59.46L321.92 59.39L321.98 59.26L322.11 59.14L322.18 59.07L322.24 58.94L322.37 58.82L322.43 58.69L322.56 58.62L322.62 58.5L322.82 58.3L322.88 58.18L323.2 57.86L323.26 57.73L323.39 57.66L323.46 57.54L324.54 56.38L325.63 55.3L326.78 54.21L329.22 52.29L330.43 51.39L331.71 50.56L332.99 49.79L334.34 49.09L335.68 48.45L337.02 47.81L339.84 46.78L341.25 46.34L342.66 45.95L344.13 45.63L345.54 45.38L347.01 45.12L349.95 44.86L351.42 44.8L352.9 44.8L354.37 44.86L355.84 44.99L357.31 45.18L358.78 45.38L360.19 45.7L361.66 46.02L363.07 46.46L364.54 46.91L365.95 47.42L367.3 48L368.7 48.64L370.05 49.28L371.39 50.05L372.67 50.82L375.23 52.61L376.45 53.57L377.66 54.66L378.82 55.68L379.9 56.83L380.93 57.98L381.95 59.14L382.85 60.35L383.74 61.63L384.58 62.91L385.34 64.19L386.05 65.54L386.75 66.82L387.33 68.22L387.9 69.57L388.42 70.98L388.86 72.38L389.25 73.86L389.57 75.26L389.82 76.74L390.02 78.21L390.21 79.62L390.34 81.09L390.34 84.03L390.27 85.5L390.21 86.98L390.02 88.45L389.5 91.39L389.12 92.8L388.74 94.27L388.29 95.68L387.78 97.09L387.2 98.5L386.56 99.84L385.15 102.53L384.32 103.81L383.49 105.09L382.53 106.37L381.57 107.58L380.54 108.8L467.2 108.8L467.2 179.2L441.6 179.2L441.6 230.4L428.8 230.4L428.8 179.2L211.2 179.2L211.2 326.4L428.8 326.4L428.8 307.2L441.6 307.2L441.6 339.2L326.4 339.2L326.4 371.2L537.6 371.2L537.6 416L556.8 416L556.8 435.2L595.2 435.2L595.2 595.2L467.2 595.2L467.2 537.6L480 537.6L480 582.4L582.4 582.4L582.4 448L556.8 448L556.8 492.8L505.6 492.8L505.6 448L480 448L480 512L467.2 512L467.2 435.2L505.6 435.2L505.6 416L524.8 416L524.8 384L326.4 384L326.4 416L345.6 416L345.6 435.2L384 435.2L384 595.2L256 595.2L256 563.2L268.8 563.2L268.8 582.4L371.2 582.4L371.2 448L345.6 448L345.6 492.8L294.4 492.8L294.4 448L268.8 448L268.8 537.6L256 537.6L256 435.2L294.4 435.2L294.4 416L313.6 416L313.6 384L256 384L256 371.2L313.6 371.2L313.6 339.2L198.4 339.2L198.4 179.2L172.8 179.2L172.8 108.8L259.46 108.8L259.33 108.67L259.26 108.61L259.14 108.48L259.07 108.35L258.94 108.22L258.75 108.03L258.69 107.9L258.56 107.84L258.5 107.71L258.43 107.58L258.3 107.46L258.24 107.33L258.11 107.26L258.05 107.14L257.92 107.01L257.86 106.88L257.66 106.69L257.6 106.56L257.47 106.43L257.41 106.3L257.22 106.11L257.15 105.98L257.02 105.86L256.9 105.6L256.77 105.47L256.7 105.41L256.64 105.28L256.51 105.15L256.45 105.02L256.32 104.77L256.13 104.58L256.06 104.45L255.94 104.32L255.87 104.19L255.04 102.85L254.27 101.5L252.86 98.69L252.29 97.28L251.78 95.87L251.26 94.4L250.88 92.99L250.5 91.52L250.18 90.05L249.98 88.58L249.79 87.1L249.66 85.63L249.6 84.16L249.6 81.15L249.73 79.68L249.86 78.27L250.11 76.8L250.37 75.33L250.69 73.92L251.07 72.45L251.52 71.04L251.97 69.7L252.54 68.29L253.12 66.94L253.76 65.6L254.46 64.32L255.23 63.04L256.06 61.76L256.9 60.54L257.79 59.33L258.75 58.18L259.78 57.02L260.8 55.94L261.95 54.85L263.1 53.89L264.32 52.86L265.54 51.97L266.88 51.07L268.22 50.18L269.57 49.41L270.91 48.7L273.73 47.42L275.2 46.91L276.61 46.4L278.08 46.02L279.55 45.63L282.5 45.12L283.97 44.93L285.44 44.8L286.91 44.74L288.38 44.74L291.33 44.86L292.8 45.06ZM518.4 480L544 480L544 428.8L518.4 428.8L518.4 480ZM307.2 480L332.8 480L332.8 428.8L307.2 428.8L307.2 480ZM358.4 166.4L454.4 166.4L454.4 121.6L358.4 121.6L358.4 166.4ZM185.6 166.4L281.6 166.4L281.6 121.6L185.6 121.6L185.6 166.4ZM294.4 166.4L345.6 166.4L345.6 121.6L294.4 121.6L294.4 166.4ZM272.9 62.53L267.33 68.1L263.68 75.14L262.4 83.2L263.68 91.26L267.33 98.3L272.9 103.87L279.94 107.52L288 108.8L313.6 108.8L313.6 83.2L312.32 75.14L308.67 68.1L303.1 62.53L296.06 58.88L288 57.6L279.94 58.88L272.9 62.53ZM336.9 62.53L331.33 68.1L327.68 75.14L326.4 83.2L326.4 108.8L352 108.8L360.06 107.52L367.1 103.87L372.67 98.3L376.32 91.26L377.6 83.2L376.32 75.14L372.67 68.1L367.1 62.53L360.06 58.88L352 57.6L343.94 58.88L336.9 62.53Z" id="aysCGV2uh"></path><path d="M292.8 45.06L294.27 45.25L295.68 45.5L297.15 45.82L298.56 46.21L299.97 46.66L301.38 47.17L302.72 47.68L305.41 48.96L306.75 49.66L308.03 50.37L309.25 51.2L310.53 52.03L311.68 52.93L312.9 53.89L313.98 54.91L316.16 57.09L317.18 58.24L318.14 59.46L319.1 60.74L320 62.02L320.06 61.89L320.13 61.76L320.26 61.63L320.32 61.57L320.45 61.31L320.58 61.18L320.64 61.06L320.83 60.86L320.96 60.61L321.02 60.48L321.15 60.42L321.28 60.16L321.41 60.03L321.47 59.9L321.66 59.71L321.73 59.58L321.86 59.46L321.92 59.39L321.98 59.26L322.11 59.14L322.18 59.07L322.24 58.94L322.37 58.82L322.43 58.69L322.56 58.62L322.62 58.5L322.82 58.3L322.88 58.18L323.2 57.86L323.26 57.73L323.39 57.66L323.46 57.54L324.54 56.38L325.63 55.3L326.78 54.21L329.22 52.29L330.43 51.39L331.71 50.56L332.99 49.79L334.34 49.09L335.68 48.45L337.02 47.81L339.84 46.78L341.25 46.34L342.66 45.95L344.13 45.63L345.54 45.38L347.01 45.12L349.95 44.86L351.42 44.8L352.9 44.8L354.37 44.86L355.84 44.99L357.31 45.18L358.78 45.38L360.19 45.7L361.66 46.02L363.07 46.46L364.54 46.91L365.95 47.42L367.3 48L368.7 48.64L370.05 49.28L371.39 50.05L372.67 50.82L375.23 52.61L376.45 53.57L377.66 54.66L378.82 55.68L379.9 56.83L380.93 57.98L381.95 59.14L382.85 60.35L383.74 61.63L384.58 62.91L385.34 64.19L386.05 65.54L386.75 66.82L387.33 68.22L387.9 69.57L388.42 70.98L388.86 72.38L389.25 73.86L389.57 75.26L389.82 76.74L390.02 78.21L390.21 79.62L390.34 81.09L390.34 84.03L390.27 85.5L390.21 86.98L390.02 88.45L389.5 91.39L389.12 92.8L388.74 94.27L388.29 95.68L387.78 97.09L387.2 98.5L386.56 99.84L385.15 102.53L384.32 103.81L383.49 105.09L382.53 106.37L381.57 107.58L380.54 108.8L467.2 108.8L467.2 179.2L441.6 179.2L441.6 230.4L428.8 230.4L428.8 179.2L211.2 179.2L211.2 326.4L428.8 326.4L428.8 307.2L441.6 307.2L441.6 339.2L326.4 339.2L326.4 371.2L537.6 371.2L537.6 416L556.8 416L556.8 435.2L595.2 435.2L595.2 595.2L467.2 595.2L467.2 537.6L480 537.6L480 582.4L582.4 582.4L582.4 448L556.8 448L556.8 492.8L505.6 492.8L505.6 448L480 448L480 512L467.2 512L467.2 435.2L505.6 435.2L505.6 416L524.8 416L524.8 384L326.4 384L326.4 416L345.6 416L345.6 435.2L384 435.2L384 595.2L256 595.2L256 563.2L268.8 563.2L268.8 582.4L371.2 582.4L371.2 448L345.6 448L345.6 492.8L294.4 492.8L294.4 448L268.8 448L268.8 537.6L256 537.6L256 435.2L294.4 435.2L294.4 416L313.6 416L313.6 384L256 384L256 371.2L313.6 371.2L313.6 339.2L198.4 339.2L198.4 179.2L172.8 179.2L172.8 108.8L259.46 108.8L259.33 108.67L259.26 108.61L259.14 108.48L259.07 108.35L258.94 108.22L258.75 108.03L258.69 107.9L258.56 107.84L258.5 107.71L258.43 107.58L258.3 107.46L258.24 107.33L258.11 107.26L258.05 107.14L257.92 107.01L257.86 106.88L257.66 106.69L257.6 106.56L257.47 106.43L257.41 106.3L257.22 106.11L257.15 105.98L257.02 105.86L256.9 105.6L256.77 105.47L256.7 105.41L256.64 105.28L256.51 105.15L256.45 105.02L256.32 104.77L256.13 104.58L256.06 104.45L255.94 104.32L255.87 104.19L255.04 102.85L254.27 101.5L252.86 98.69L252.29 97.28L251.78 95.87L251.26 94.4L250.88 92.99L250.5 91.52L250.18 90.05L249.98 88.58L249.79 87.1L249.66 85.63L249.6 84.16L249.6 81.15L249.73 79.68L249.86 78.27L250.11 76.8L250.37 75.33L250.69 73.92L251.07 72.45L251.52 71.04L251.97 69.7L252.54 68.29L253.12 66.94L253.76 65.6L254.46 64.32L255.23 63.04L256.06 61.76L256.9 60.54L257.79 59.33L258.75 58.18L259.78 57.02L260.8 55.94L261.95 54.85L263.1 53.89L264.32 52.86L265.54 51.97L266.88 51.07L268.22 50.18L269.57 49.41L270.91 48.7L273.73 47.42L275.2 46.91L276.61 46.4L278.08 46.02L279.55 45.63L282.5 45.12L283.97 44.93L285.44 44.8L286.91 44.74L288.38 44.74L291.33 44.86L292.8 45.06ZM518.4 480L544 480L544 428.8L518.4 428.8L518.4 480ZM307.2 480L332.8 480L332.8 428.8L307.2 428.8L307.2 480ZM358.4 166.4L454.4 166.4L454.4 121.6L358.4 121.6L358.4 166.4ZM185.6 166.4L281.6 166.4L281.6 121.6L185.6 121.6L185.6 166.4ZM294.4 166.4L345.6 166.4L345.6 121.6L294.4 121.6L294.4 166.4ZM272.9 62.53L267.33 68.1L263.68 75.14L262.4 83.2L263.68 91.26L267.33 98.3L272.9 103.87L279.94 107.52L288 108.8L313.6 108.8L313.6 83.2L312.32 75.14L308.67 68.1L303.1 62.53L296.06 58.88L288 57.6L279.94 58.88L272.9 62.53ZM336.9 62.53L331.33 68.1L327.68 75.14L326.4 83.2L326.4 108.8L352 108.8L360.06 107.52L367.1 103.87L372.67 98.3L376.32 91.26L377.6 83.2L376.32 75.14L372.67 68.1L367.1 62.53L360.06 58.88L352 57.6L343.94 58.88L336.9 62.53Z" id="f17vld6ip5"></path><path d="M640 0L640 640L0 640L0 0L640 0Z" id="gKDaH5kwL"></path><path d="M640 0L640 640L0 640L0 0L640 0Z" id="a9pcxyUf5"></path></defs><g><g><g><use xlink:href="#a3xNK7AkC" opacity="1" fill="#413d4a" fill-opacity="1"></use><g><use xlink:href="#a3xNK7AkC" opacity="1" fill-opacity="0" stroke="#000000" stroke-width="1" stroke-opacity="0"></use></g></g><g><use xlink:href="#gmXbCXGAn" opacity="1" fill="#000000" fill-opacity="0"></use><g><use xlink:href="#gmXbCXGAn" opacity="1" fill-opacity="0" stroke="#000000" stroke-width="1" stroke-opacity="0"></use></g></g><g><use xlink:href="#bcd2qTO4I" opacity="1" fill="#413d4a" fill-opacity="1"></use><g><use xlink:href="#bcd2qTO4I" opacity="1" fill-opacity="0" stroke="#000000" stroke-width="1" stroke-opacity="0"></use></g></g><g><use xlink:href="#e6Ib8xceP" opacity="1" fill="#000000" fill-opacity="0"></use><g><use xlink:href="#e6Ib8xceP" opacity="1" fill-opacity="0" stroke="#000000" stroke-width="1" stroke-opacity="0"></use></g></g><g><use xlink:href="#arrGC2As2" opacity="1" fill="#413d4a" fill-opacity="1"></use><g><use xlink:href="#arrGC2As2" opacity="1" fill-opacity="0" stroke="#000000" stroke-width="1" stroke-opacity="0"></use></g></g><g><use xlink:href="#b81jN7u58" opacity="1" fill="#000000" fill-opacity="0"></use><g><use xlink:href="#b81jN7u58" opacity="1" fill-opacity="0" stroke="#000000" stroke-width="1" stroke-opacity="0"></use></g></g><g><use xlink:href="#aljVgf7ik" opacity="1" fill="#413d4a" fill-opacity="1"></use><g><use xlink:href="#aljVgf7ik" opacity="1" fill-opacity="0" stroke="#000000" stroke-width="1" stroke-opacity="0"></use></g></g><g><use xlink:href="#evMmXx7r" opacity="1" fill="#000000" fill-opacity="0"></use><g><use xlink:href="#evMmXx7r" opacity="1" fill-opacity="0" stroke="#000000" stroke-width="1" stroke-opacity="0"></use></g></g><g><use xlink:href="#b4lhENPwDG" opacity="1" fill="#a09ea5" fill-opacity="1"></use><g><use xlink:href="#b4lhENPwDG" opacity="1" fill-opacity="0" stroke="#000000" stroke-width="1" stroke-opacity="0"></use></g></g><g><use xlink:href="#dyuaYZtPR" opacity="1" fill="#000000" fill-opacity="0"></use><g><use xlink:href="#dyuaYZtPR" opacity="1" fill-opacity="0" stroke="#000000" stroke-width="1" stroke-opacity="0"></use></g></g><g><use xlink:href="#b2twPBKAWH" opacity="1" fill="#a09ea5" fill-opacity="1"></use><g><use xlink:href="#b2twPBKAWH" opacity="1" fill-opacity="0" stroke="#000000" stroke-width="1" stroke-opacity="0"></use></g></g><g><use xlink:href="#b3lEp39le8" opacity="1" fill="#000000" fill-opacity="0"></use><g><use xlink:href="#b3lEp39le8" opacity="1" fill-opacity="0" stroke="#000000" stroke-width="1" stroke-opacity="0"></use></g></g><g><use xlink:href="#a5YNNukG7U" opacity="1" fill="#a09ea5" fill-opacity="1"></use><g><use xlink:href="#a5YNNukG7U" opacity="1" fill-opacity="0" stroke="#000000" stroke-width="1" stroke-opacity="0"></use></g></g><g><use xlink:href="#b2LE8J7vwd" opacity="1" fill="#000000" fill-opacity="0"></use><g><use xlink:href="#b2LE8J7vwd" opacity="1" fill-opacity="0" stroke="#000000" stroke-width="1" stroke-opacity="0"></use></g></g><g><use xlink:href="#f11dvCKh93" opacity="1" fill="#a09ea5" fill-opacity="1"></use><g><use xlink:href="#f11dvCKh93" opacity="1" fill-opacity="0" stroke="#000000" stroke-width="1" stroke-opacity="0"></use></g></g><g><use xlink:href="#bsHnxZHzJ" opacity="1" fill="#000000" fill-opacity="0"></use><g><use xlink:href="#bsHnxZHzJ" opacity="1" fill-opacity="0" stroke="#000000" stroke-width="1" stroke-opacity="0"></use></g></g><g><use xlink:href="#haFCFSzU" opacity="1" fill="#a09ea5" fill-opacity="1"></use><g><use xlink:href="#haFCFSzU" opacity="1" fill-opacity="0" stroke="#000000" stroke-width="1" stroke-opacity="0"></use></g></g><g><use xlink:href="#a6GcVOdAV" opacity="1" fill="#000000" fill-opacity="0"></use><g><use xlink:href="#a6GcVOdAV" opacity="1" fill-opacity="0" stroke="#000000" stroke-width="1" stroke-opacity="0"></use></g></g><g><use xlink:href="#dMWl5otp3" opacity="1" fill="#a09ea5" fill-opacity="1"></use><g><use xlink:href="#dMWl5otp3" opacity="1" fill-opacity="0" stroke="#000000" stroke-width="1" stroke-opacity="0"></use></g></g><g><use xlink:href="#h29ukIcarU" opacity="1" fill="#000000" fill-opacity="0"></use><g><use xlink:href="#h29ukIcarU" opacity="1" fill-opacity="0" stroke="#000000" stroke-width="1" stroke-opacity="0"></use></g></g><g><use xlink:href="#aysCGV2uh" opacity="1" fill="#a09ea5" fill-opacity="1"></use><g><use xlink:href="#aysCGV2uh" opacity="1" fill-opacity="0" stroke="#000000" stroke-width="1" stroke-opacity="0"></use></g></g><g><use xlink:href="#f17vld6ip5" opacity="1" fill="#000000" fill-opacity="0"></use><g><use xlink:href="#f17vld6ip5" opacity="1" fill-opacity="0" stroke="#000000" stroke-width="1" stroke-opacity="0"></use></g></g><g><use xlink:href="#gKDaH5kwL" opacity="1" fill="#000000" fill-opacity="0"></use><g><use xlink:href="#gKDaH5kwL" opacity="1" fill-opacity="0" stroke="#000000" stroke-width="1" stroke-opacity="0"></use></g></g><g><use xlink:href="#a9pcxyUf5" opacity="1" fill="#000000" fill-opacity="0"></use><g><use xlink:href="#a9pcxyUf5" opacity="1" fill-opacity="0" stroke="#000000" stroke-width="1" stroke-opacity="0"></use></g></g></g></g></svg>