<?xml version="1.0" encoding="utf-8"?>
<!-- Generator: Adobe Illustrator 22.0.1, SVG Export Plug-In . SVG Version: 6.00 Build 0)  -->
<svg version="1.1" id="Layer_1" xmlns="http://www.w3.org/2000/svg" xmlns:xlink="http://www.w3.org/1999/xlink" x="0px" y="0px"
	 viewBox="0 0 360 360" style="enable-background:new 0 0 360 360;" xml:space="preserve">
<style type="text/css">
	.st0{fill:#CC8E58;}
	.st1{fill:#2D2113;}
	.st2{fill:#2C1800;}
	.st3{fill:#A8633A;}
	.st4{fill:#EBE8DB;}
	.st5{fill:#5D2900;}
	.st6{fill:#D6B795;}
	.st7{fill:#DBD5C3;}
	.st8{clip-path:url(#SVGID_4_);}
	.st9{fill:#4D2F00;}
	.st10{fill:#ECD9CB;}
	.st11{fill:#262626;}
	.st12{fill:#918A85;}
	.st13{fill:#5C524A;}
	.st14{fill:#807664;}
	.st15{fill:#CFC7AF;}
	.st16{clip-path:url(#SVGID_6_);}
	.st17{fill:#D9AA8B;}
</style>
<g>
	<polygon class="st0" points="337.7,8.2 320.8,3.8 296.7,16.5 256.1,48.6 256.1,48.6 235.6,42.6 213.4,38.8 180,42.6 146.6,38.8 
		124.4,42.6 103.9,48.6 103.9,48.6 63.3,16.5 39.2,3.8 22.3,8.2 14,20.7 14,50.9 14,68.4 19.9,88.3 20.5,108.2 33.6,134.3 
		34.5,161.8 28.5,192.8 25.6,230.7 40.4,254.8 63.5,274.5 68.6,278.8 87,317.1 115.6,337.4 115.6,337.4 126.2,345 180,356.2 
		180,356.2 180,356.2 180,356.2 180,356.2 233.8,345 244.4,337.4 273,317.1 291.4,278.8 296.5,274.5 319.6,254.8 334.4,230.7 
		331.5,192.8 325.5,161.8 326.4,134.3 339.5,108.2 340.1,88.3 346,68.4 346,50.9 346,20.7 	"/>
	<polygon class="st0" points="248.7,114.4 233,111.8 226.4,84.8 180,136.1 146.6,99.2 146.6,99.2 133.6,84.8 127,111.8 111.3,114.4 
		98.9,127.5 105.5,146.2 109.2,136.2 126.8,130 138.8,146.7 139.1,158.3 139.1,158.3 126.2,200.5 119.8,233.7 153.4,198.5 
		170.9,192.8 180,136.1 189.1,192.8 206.6,198.5 240.2,233.7 233.8,200.5 220.9,158.3 220.9,158.3 221.2,146.7 233.2,130 
		250.8,136.2 254.5,146.2 261.1,127.5 	"/>
	<g>
		<polygon class="st1" points="86.1,54.8 62.1,27.8 36.5,20.1 26.5,22.4 22.6,39.1 22.6,69 36.3,93.4 60.1,108.2 83.7,87.7 		"/>
		<g>
			<g>
				<defs>
					<polygon id="SVGID_1_" points="138.8,158.3 138.8,146.7 126.8,130 109.2,136.2 105.5,146.2 113,157.6 127.5,161.8 					"/>
				</defs>
				<clipPath id="SVGID_2_">
					<use xlink:href="#SVGID_1_"  style="overflow:visible;"/>
				</clipPath>
			</g>
		</g>
		<polygon class="st2" points="180,130 173.9,70.7 180,71.7 		"/>
		<polygon class="st3" points="126.8,47.4 103.9,48.6 63.3,16.5 39.2,3.8 22.3,8.2 14,20.7 14,50.9 22.6,57.2 22.6,39.1 26.5,22.4 
			36.5,20.1 62.1,27.8 86.1,54.8 83.7,87.7 60.1,108.2 44.6,158.3 73.6,169.6 97,144.4 105.5,146.2 98.9,127.5 107.4,118.5 
			111.3,114.4 127,111.8 133.6,84.8 148.9,83.6 161.8,70.7 172.6,86.5 180,136.1 180,54.8 		"/>
		<polygon class="st0" points="40.4,254.8 37.2,217.5 54.4,177.5 73.6,169.6 44.6,158.3 117.7,57.2 83.7,87.7 60.1,108.2 
			33.6,134.3 28.5,192.8 25.6,230.7 		"/>
		<polygon class="st3" points="107.8,109.4 133.6,84.8 127,111.8 111.3,114.4 106.1,119.9 		"/>
		<polygon class="st4" points="126.2,282.2 107.8,266.3 92.3,211.2 100.7,182.7 97,158.3 126.2,200.5 146.6,191.3 170.9,192.8 
			168.9,206.7 152,214.7 146.6,228.1 149.3,239.9 154.2,245.4 142.2,275.1 128.4,275.1 117.7,260.7 117.7,271.1 		"/>
		<polygon class="st5" points="83.7,87.7 86.1,54.8 105.5,61.3 117.7,57.2 		"/>
		<polygon class="st5" points="80.8,58.9 83.7,87.7 86.1,54.8 72.7,40.1 		"/>
		<polygon class="st3" points="33.6,134.3 20.5,108.2 14,68.4 14,50.9 22.6,57.2 22.6,69 36.3,93.4 60.1,108.2 		"/>
		<polygon class="st3" points="105.5,146.2 105.5,132 129.9,120.8 126.8,130 109.2,136.2 		"/>
		<polygon class="st6" points="127.5,161.8 113,157.6 105.5,146.2 97,144.4 92.3,149.4 97,158.3 101.8,165.2 126.2,200.5 
			139.1,158.3 		"/>
		<polygon class="st7" points="144.4,308.9 137.7,285.4 126.2,282.2 107.8,266.3 102.3,246.9 79.4,275.1 68.6,278.8 87,317.1 
			115.6,337.4 137.7,326.2 158.8,315.5 		"/>
	</g>
	<polygon class="st1" points="273.9,54.8 297.9,27.8 323.5,20.1 333.5,22.4 337.4,39.1 337.4,69 323.7,93.4 299.9,108.2 276.3,87.7 
			"/>
	<g>
		<polygon class="st2" points="221.2,158.3 221.2,146.7 233.2,130 250.8,136.2 254.5,146.2 247,157.6 232.5,161.8 		"/>
		<g>
			<defs>
				<polygon id="SVGID_3_" points="221.2,158.3 221.2,146.7 233.2,130 250.8,136.2 254.5,146.2 247,157.6 232.5,161.8 				"/>
			</defs>
			<clipPath id="SVGID_4_">
				<use xlink:href="#SVGID_3_"  style="overflow:visible;"/>
			</clipPath>
			<g class="st8">
				<g>
					<path class="st9" d="M236.3,150.1c5.5,0,10.1-3.8,11.3-8.9c0.1,0.5,0.1,1,0.1,1.6c0,6.6-5,11.9-11.2,11.9s-11.2-5.3-11.2-11.9
						c0-0.1,0-0.2,0-0.3C227,146.9,231.3,150.1,236.3,150.1z"/>
					<path class="st2" d="M236.3,150.1c-5,0-9.3-3.2-11-7.6c0.2-6.4,5.1-11.6,11.2-11.6c5.7,0,10.4,4.5,11.1,10.3
						C246.4,146.3,241.8,150.1,236.3,150.1z"/>
				</g>
				<path class="st10" d="M241.2,143.1l5.8-1.8c0,0-2.2-6-10.9-4.7C236.1,136.7,240.5,140.5,241.2,143.1z"/>
			</g>
		</g>
	</g>
	<polygon class="st2" points="180,130 186.1,70.7 180,71.7 	"/>
	<polygon class="st11" points="208,214.7 191.1,206.7 180,206.7 180,206.7 168.9,206.7 152,214.7 146.6,228.1 149.3,239.9 
		163.3,255.7 180,260.7 180,260.7 180,260.7 180,260.7 180,260.7 196.7,255.7 210.7,239.9 213.4,228.1 	"/>
	<polygon points="187.4,237 193.3,239 200.9,239 206.5,229.1 195.7,221.4 180,218.1 180,218.1 180,218.1 180,218.1 180,218.1 
		164.3,221.4 153.5,229.1 159.1,239 166.7,239 172.6,237 167.5,243.6 154.2,245.4 163.3,255.7 180,260.7 180,260.7 180,260.7 
		180,260.7 180,260.7 196.7,255.7 205.8,245.4 192.5,243.6 	"/>
	<polygon points="231.6,275.1 217.8,275.1 180,266.6 180,266.6 180,266.6 180,266.6 180,266.6 142.2,275.1 128.4,275.1 117.7,260.7 
		117.7,271.1 126.2,282.2 142.2,286.7 163.3,276.9 180,281.8 180,281.8 180,281.8 180,281.8 180,281.8 196.7,276.9 217.8,286.7 
		233.8,282.2 242.3,271.1 242.3,260.7 	"/>
	<polygon class="st12" points="217.8,286.7 196.7,276.9 180,281.8 163.3,276.9 142.2,286.7 163.3,298.1 180,301.4 180,301.4 
		180,301.4 180,301.4 180,301.4 196.7,298.1 	"/>
	<polygon class="st13" points="217.8,275.1 205.8,245.4 196.7,255.7 180,260.7 163.3,255.7 154.2,245.4 142.2,275.1 180,266.6 	"/>
	<polygon class="st4" points="217.8,286.7 196.7,298.1 180,301.4 163.3,298.1 142.2,286.7 137.7,285.4 144.4,308.9 166.7,319.2 
		180,322.7 180,322.7 180,322.7 180,322.7 180,322.7 193.3,319.2 215.6,308.9 222.3,285.4 	"/>
	<polygon class="st3" points="233.2,47.4 256.1,48.6 296.7,16.5 320.8,3.8 337.7,8.2 346,20.7 346,50.9 337.4,57.2 337.4,39.1 
		333.5,22.4 323.5,20.1 297.9,27.8 273.9,54.8 276.3,87.7 299.9,108.2 315.4,158.3 286.4,169.6 263,144.4 254.5,146.2 261.1,127.5 
		252.6,118.5 248.7,114.4 233,111.8 226.4,84.8 211.1,83.6 198.2,70.7 187.4,86.5 180,136.1 180,54.8 	"/>
	<polygon class="st0" points="319.6,254.8 322.8,217.5 305.6,177.5 286.4,169.6 315.4,158.3 242.3,57.2 276.3,87.7 299.9,108.2 
		326.4,134.3 331.5,192.8 334.4,230.7 	"/>
	<polygon class="st3" points="256.1,48.6 235.6,42.6 213.4,38.8 180,42.6 146.6,38.8 124.4,42.6 103.9,48.6 126.8,47.4 180,54.8 
		180,54.8 180,54.8 180,54.8 180,54.8 233.2,47.4 	"/>
	<polygon class="st3" points="252.2,109.4 226.4,84.8 233,111.8 248.7,114.4 253.9,119.9 	"/>
	<polygon class="st4" points="233.8,282.2 252.2,266.3 267.7,211.2 259.3,182.7 263,158.3 233.8,200.5 213.4,191.3 189.1,192.8 
		191.1,206.7 208,214.7 213.4,228.1 210.7,239.9 205.8,245.4 217.8,275.1 231.6,275.1 242.3,260.7 242.3,271.1 	"/>
	<polygon class="st3" points="180,136.1 226.4,84.8 211.1,83.6 198.2,70.7 200.6,60.4 180,54.8 180,54.8 180,54.8 180,54.8 
		180,54.8 159.4,60.4 161.8,70.7 148.9,83.6 133.6,84.8 180,136.1 180,136.1 180,136.1 180,136.1 	"/>
	<polygon class="st5" points="276.3,87.7 273.9,54.8 254.5,61.3 242.3,57.2 	"/>
	<polygon class="st5" points="279.2,58.9 276.3,87.7 273.9,54.8 287.3,40.1 	"/>
	<polygon class="st3" points="326.4,134.3 339.5,108.2 346,68.4 346,50.9 337.4,57.2 337.4,69 323.7,93.4 299.9,108.2 	"/>
	<polygon class="st3" points="254.5,146.2 254.5,132 230.1,120.8 233.2,130 250.8,136.2 	"/>
	<polygon class="st0" points="206.3,148.5 213.4,99.2 180,136.1 	"/>
	<polygon class="st14" points="244.4,337.4 201.2,315.5 193.3,319.2 180,322.7 166.7,319.2 158.8,315.5 115.6,337.4 126.2,345 
		180,356.2 180,356.2 180,356.2 180,356.2 180,356.2 233.8,345 	"/>
	<g>
		<polygon class="st7" points="81.4,161.2 73.6,169.6 54.4,177.5 37.2,217.5 40.4,254.8 63.5,274.5 63.5,249.1 71.4,226.4 87.2,197 
			86.1,156 		"/>
		<polygon class="st7" points="305.6,177.5 286.4,169.6 278.6,161.2 273.9,156 272.8,197 288.6,226.4 296.5,249.1 296.5,274.5 
			319.6,254.8 322.8,217.5 		"/>
	</g>
	<polygon class="st6" points="263,144.4 254.5,146.2 247,157.6 232.5,161.8 220.9,158.3 233.8,200.5 258.2,165.2 263,158.3 
		267.7,149.4 	"/>
	<g>
		<polygon class="st15" points="273.9,156 267.7,149.4 263,158.3 259.3,182.7 267.7,211.2 257.7,246.9 280.6,275.1 291.4,278.8 
			312.6,260.7 		"/>
	</g>
	<polygon class="st7" points="280.6,275.1 257.7,246.9 252.2,266.3 233.8,282.2 222.3,285.4 215.6,308.9 201.2,315.5 222.3,326.2 
		244.4,337.4 273,317.1 291.4,278.8 	"/>
	<polygon class="st15" points="86.1,156 92.3,149.4 97,158.3 100.7,182.7 92.3,211.2 102.3,246.9 79.4,275.1 68.6,278.8 47.4,260.7 
			"/>
	<g>
		<polygon class="st2" points="138.8,158.3 138.8,146.7 126.8,130 109.2,136.2 105.5,146.2 113,157.6 127.5,161.8 		"/>
		<g>
			<defs>
				<polygon id="SVGID_5_" points="138.8,158.3 138.8,146.7 126.8,130 109.2,136.2 105.5,146.2 113,157.6 127.5,161.8 				"/>
			</defs>
			<clipPath id="SVGID_6_">
				<use xlink:href="#SVGID_5_"  style="overflow:visible;"/>
			</clipPath>
			<g class="st16">
				<g>
					<path class="st9" d="M123.7,150.1c-5.5,0-10.1-3.8-11.3-8.9c-0.1,0.5-0.1,1-0.1,1.6c0,6.6,5,11.9,11.2,11.9
						c6.2,0,11.2-5.3,11.2-11.9c0-0.1,0-0.2,0-0.3C133,146.9,128.7,150.1,123.7,150.1z"/>
					<path class="st2" d="M123.7,150.1c5,0,9.3-3.2,11-7.6c-0.2-6.4-5.1-11.6-11.2-11.6c-5.7,0-10.4,4.5-11.1,10.3
						C113.6,146.3,118.2,150.1,123.7,150.1z"/>
				</g>
				<path class="st10" d="M118.8,143.1l-5.8-1.8c0,0,2.2-6,10.9-4.7C123.9,136.7,119.5,140.5,118.8,143.1z"/>
			</g>
		</g>
	</g>
	<polygon class="st17" points="180,136.1 180,136.1 168.9,206.7 180,206.7 180,206.7 191.1,206.7 	"/>
</g>
<g>
	<g>
		<path class="st0" d="M299.9,288.5c0-0.5,0-0.9,0-1.4h4.5c0,0.5,0,0.9,0,1.4h-1.5v4.6c-0.5,0-1,0-1.5,0v-4.6H299.9z"/>
		<path class="st0" d="M310.6,287.1h0.5v6c-0.5,0-1,0-1.6,0v-2.7l-1.3,1.3h-0.2l-1.3-1.3v2.7c-0.5,0-1,0-1.6,0v-6h0.6l2.3,2.6
			L310.6,287.1z"/>
	</g>
	<path class="st0" d="M305.5,299.9c-5.4,0-9.8-4.4-9.8-9.8s4.4-9.8,9.8-9.8c5.4,0,9.8,4.4,9.8,9.8S310.9,299.9,305.5,299.9z
		 M305.5,281.4c-4.8,0-8.6,3.9-8.6,8.6c0,4.8,3.9,8.6,8.6,8.6c4.8,0,8.6-3.9,8.6-8.6C314.1,285.3,310.3,281.4,305.5,281.4z"/>
</g>
</svg>
