<?xml version="1.0" encoding="UTF-8" standalone="no"?>
<!DOCTYPE svg PUBLIC "-//W3C//DTD SVG 1.1//EN" "http://www.w3.org/Graphics/SVG/1.1/DTD/svg11.dtd">
<svg version="1.1" xmlns="http://www.w3.org/2000/svg" xmlns:xlink="http://www.w3.org/1999/xlink" preserveAspectRatio="xMidYMid meet" viewBox="0 0 640 640" width="640" height="640"><defs><path d="M45 18L55 18L55 27L45 27L45 18Z" id="e4qbSOIADv"></path><path d="M14 66L20 66L20 76L14 76L14 66Z" id="ecWnyhaGn"></path><path d="M80 66L86 66L86 76L80 76L80 66Z" id="f1W5OevMnv"></path><path d="M47 66L53 66L53 76L47 76L47 66Z" id="bpuRj7Udd"></path><path d="M67 40L69 40L69 44L67 44L67 40Z" id="a6IXNd3KqT"></path><path d="M50 72C49.45 72 49 72.45 49 73C49 73.55 49.45 74 50 74C50.55 74 51 73.55 51 73C51 72.45 50.55 72 50 72Z" id="f1UoQ14quk"></path><path d="M83 72C82.45 72 82 72.45 82 73C82 73.55 82.45 74 83 74C83.55 74 84 73.55 84 73C84 72.45 83.55 72 83 72Z" id="d8DA1wtJ4"></path><path d="M32 58L36 58L36 60L32 60L32 58Z" id="b1hJSz9JyL"></path><path d="M18 60L18 65L21 65L21 68L27 68L27 93L7 93L7 76L9 76L9 91L25 91L25 70L21 70L21 77L13 77L13 70L9 70L9 72L7 72L7 68L13 68L13 65L16 65L16 58L28 58L28 60L18 60ZM15 75L19 75L19 67L15 67L15 75Z" id="b1J1CkRQNe"></path><path d="M17 72C16.45 72 16 72.45 16 73C16 73.55 16.45 74 17 74C17.55 74 18 73.55 18 73C18 72.45 17.55 72 17 72Z" id="a3E1zkKg"></path><path d="M45.52 7.01L45.75 7.04L45.98 7.07L46.2 7.11L46.43 7.16L46.65 7.22L46.87 7.29L47.09 7.37L47.3 7.45L47.51 7.55L47.72 7.65L47.93 7.76L48.13 7.87L48.32 8L48.52 8.13L48.7 8.27L48.89 8.42L49.06 8.58L49.23 8.75L49.4 8.92L49.56 9.1L49.71 9.29L49.86 9.49L50 9.69L50.01 9.67L50.02 9.65L50.04 9.63L50.05 9.62L50.06 9.6L50.07 9.58L50.09 9.56L50.1 9.54L50.11 9.53L50.13 9.51L50.14 9.49L50.15 9.47L50.16 9.45L50.18 9.44L50.19 9.42L50.2 9.4L50.22 9.38L50.23 9.36L50.24 9.35L50.26 9.33L50.27 9.31L50.29 9.29L50.3 9.28L50.31 9.26L50.33 9.24L50.34 9.23L50.35 9.21L50.37 9.19L50.38 9.17L50.4 9.16L50.41 9.14L50.43 9.12L50.44 9.11L50.45 9.09L50.47 9.07L50.48 9.06L50.5 9.04L50.51 9.02L50.53 9.01L50.54 8.99L50.71 8.81L50.88 8.64L51.06 8.47L51.25 8.32L51.44 8.17L51.63 8.03L51.83 7.9L52.03 7.78L52.24 7.67L52.45 7.57L52.66 7.47L52.88 7.39L53.1 7.31L53.32 7.24L53.54 7.18L53.77 7.13L53.99 7.09L54.22 7.05L54.45 7.03L54.68 7.01L54.91 7L55.14 7L55.37 7.01L55.6 7.03L55.83 7.06L56.06 7.09L56.28 7.14L56.51 7.19L56.73 7.26L56.96 7.33L57.18 7.41L57.39 7.5L57.61 7.6L57.82 7.7L58.03 7.82L58.23 7.94L58.43 8.08L58.63 8.22L58.82 8.37L59.01 8.54L59.19 8.7L59.36 8.88L59.52 9.06L59.68 9.24L59.82 9.43L59.96 9.63L60.09 9.83L60.21 10.03L60.32 10.24L60.43 10.44L60.52 10.66L60.61 10.87L60.69 11.09L60.76 11.31L60.82 11.54L60.87 11.76L60.91 11.99L60.94 12.22L60.97 12.44L60.99 12.67L60.99 12.9L60.99 13.13L60.98 13.36L60.97 13.59L60.94 13.82L60.9 14.05L60.86 14.28L60.8 14.5L60.74 14.73L60.67 14.95L60.59 15.17L60.5 15.39L60.4 15.6L60.29 15.81L60.18 16.02L60.05 16.22L59.92 16.42L59.77 16.62L59.62 16.81L59.46 17L73 17L73 28L69 28L69 36L67 36L67 28L33 28L33 51L67 51L67 48L69 48L69 53L51 53L51 58L84 58L84 65L87 65L87 68L93 68L93 93L73 93L73 84L75 84L75 91L91 91L91 70L87 70L87 77L79 77L79 70L75 70L75 80L73 80L73 68L79 68L79 65L82 65L82 60L51 60L51 65L54 65L54 68L60 68L60 93L40 93L40 88L42 88L42 91L58 91L58 70L54 70L54 77L46 77L46 70L42 70L42 84L40 84L40 68L46 68L46 65L49 65L49 60L40 60L40 58L49 58L49 53L31 53L31 28L27 28L27 17L40.54 17L40.52 16.98L40.51 16.97L40.49 16.95L40.48 16.93L40.46 16.91L40.45 16.9L40.43 16.88L40.42 16.86L40.4 16.85L40.39 16.83L40.38 16.81L40.36 16.79L40.35 16.77L40.33 16.76L40.32 16.74L40.3 16.72L40.29 16.7L40.28 16.69L40.26 16.67L40.25 16.65L40.23 16.63L40.22 16.61L40.21 16.6L40.19 16.58L40.18 16.56L40.16 16.54L40.15 16.52L40.14 16.5L40.12 16.48L40.11 16.47L40.1 16.45L40.08 16.43L40.07 16.41L40.06 16.39L40.05 16.37L40.03 16.35L40.02 16.34L40.01 16.32L39.99 16.3L39.98 16.28L39.85 16.07L39.73 15.86L39.62 15.64L39.51 15.42L39.42 15.2L39.34 14.98L39.26 14.75L39.2 14.53L39.14 14.3L39.09 14.07L39.06 13.84L39.03 13.61L39.01 13.38L39 13.15L39 12.91L39 12.68L39.02 12.45L39.04 12.23L39.08 12L39.12 11.77L39.17 11.55L39.23 11.32L39.3 11.1L39.37 10.89L39.46 10.67L39.55 10.46L39.65 10.25L39.76 10.05L39.88 9.85L40.01 9.65L40.14 9.46L40.28 9.27L40.43 9.09L40.59 8.91L40.75 8.74L40.93 8.57L41.11 8.42L41.3 8.26L41.49 8.12L41.7 7.98L41.91 7.84L42.12 7.72L42.33 7.61L42.55 7.51L42.77 7.41L43 7.33L43.22 7.25L43.45 7.19L43.68 7.13L43.91 7.09L44.14 7.05L44.37 7.02L44.6 7L44.83 6.99L45.06 6.99L45.29 7L45.52 7.01ZM81 75L85 75L85 67L81 67L81 75ZM48 75L52 75L52 67L48 67L48 75ZM29 26L44 26L44 19L29 19L29 26ZM46 26L54 26L54 19L46 19L46 26ZM56 26L71 26L71 19L56 19L56 26ZM52.64 9.77L51.77 10.64L51.2 11.74L51 13L51 17L55 17L56.26 16.8L57.36 16.23L58.23 15.36L58.8 14.26L59 13L58.8 11.74L58.23 10.64L57.36 9.77L56.26 9.2L55 9L53.74 9.2L52.64 9.77ZM42.64 9.77L41.77 10.64L41.2 11.74L41 13L41.2 14.26L41.77 15.36L42.64 16.23L43.74 16.8L45 17L49 17L49 13L48.8 11.74L48.23 10.64L47.36 9.77L46.26 9.2L45 9L43.74 9.2L42.64 9.77Z" id="a5ORw3Prz"></path><path d="M0 0L100 0L100 100L0 100L0 0Z" id="a4oEKKaYcl"></path></defs><g><g><g><use xlink:href="#e4qbSOIADv" opacity="1" fill="#d6d6d6" fill-opacity="1"></use><g><use xlink:href="#e4qbSOIADv" opacity="1" fill-opacity="0" stroke="#000000" stroke-width="1" stroke-opacity="0"></use></g></g><g><use xlink:href="#ecWnyhaGn" opacity="1" fill="#d6d6d6" fill-opacity="1"></use><g><use xlink:href="#ecWnyhaGn" opacity="1" fill-opacity="0" stroke="#000000" stroke-width="1" stroke-opacity="0"></use></g></g><g><use xlink:href="#f1W5OevMnv" opacity="1" fill="#d6d6d6" fill-opacity="1"></use><g><use xlink:href="#f1W5OevMnv" opacity="1" fill-opacity="0" stroke="#000000" stroke-width="1" stroke-opacity="0"></use></g></g><g><use xlink:href="#bpuRj7Udd" opacity="1" fill="#d6d6d6" fill-opacity="1"></use><g><use xlink:href="#bpuRj7Udd" opacity="1" fill-opacity="0" stroke="#000000" stroke-width="1" stroke-opacity="0"></use></g></g><g><use xlink:href="#a6IXNd3KqT" opacity="1" fill="#666666" fill-opacity="1"></use><g><use xlink:href="#a6IXNd3KqT" opacity="1" fill-opacity="0" stroke="#000000" stroke-width="1" stroke-opacity="0"></use></g></g><g><use xlink:href="#f1UoQ14quk" opacity="1" fill="#666666" fill-opacity="1"></use><g><use xlink:href="#f1UoQ14quk" opacity="1" fill-opacity="0" stroke="#000000" stroke-width="1" stroke-opacity="0"></use></g></g><g><use xlink:href="#d8DA1wtJ4" opacity="1" fill="#666666" fill-opacity="1"></use><g><use xlink:href="#d8DA1wtJ4" opacity="1" fill-opacity="0" stroke="#000000" stroke-width="1" stroke-opacity="0"></use></g></g><g><use xlink:href="#b1hJSz9JyL" opacity="1" fill="#666666" fill-opacity="1"></use><g><use xlink:href="#b1hJSz9JyL" opacity="1" fill-opacity="0" stroke="#000000" stroke-width="1" stroke-opacity="0"></use></g></g><g><use xlink:href="#b1J1CkRQNe" opacity="1" fill="#666666" fill-opacity="1"></use><g><use xlink:href="#b1J1CkRQNe" opacity="1" fill-opacity="0" stroke="#000000" stroke-width="1" stroke-opacity="0"></use></g></g><g><use xlink:href="#a3E1zkKg" opacity="1" fill="#666666" fill-opacity="1"></use><g><use xlink:href="#a3E1zkKg" opacity="1" fill-opacity="0" stroke="#000000" stroke-width="1" stroke-opacity="0"></use></g></g><g><use xlink:href="#a5ORw3Prz" opacity="1" fill="#666666" fill-opacity="1"></use><g><use xlink:href="#a5ORw3Prz" opacity="1" fill-opacity="0" stroke="#000000" stroke-width="1" stroke-opacity="0"></use></g></g><g><use xlink:href="#a4oEKKaYcl" opacity="1" fill="#000000" fill-opacity="0"></use><g><use xlink:href="#a4oEKKaYcl" opacity="1" fill-opacity="0" stroke="#000000" stroke-width="1" stroke-opacity="0"></use></g></g></g></g></svg>